<svg xmlns="http://www.w3.org/2000/svg" xmlns:xlink="http://www.w3.org/1999/xlink" width="250" zoomAndPan="magnify" viewBox="0 0 187.5 187.499992" height="250" preserveAspectRatio="xMidYMid meet" version="1.0"><defs><clipPath id="id1"><path d="M 109 0.117188 L 123 0.117188 L 123 22 L 109 22 Z M 109 0.117188 " clip-rule="nonzero"/></clipPath><clipPath id="id2"><path d="M 65 0.117188 L 79 0.117188 L 79 22 L 65 22 Z M 65 0.117188 " clip-rule="nonzero"/></clipPath><clipPath id="id3"><path d="M 109 165 L 123 165 L 123 187 L 109 187 Z M 109 165 " clip-rule="nonzero"/></clipPath><clipPath id="id4"><path d="M 65 165 L 79 165 L 79 187 L 65 187 Z M 65 165 " clip-rule="nonzero"/></clipPath><clipPath id="id5"><path d="M 165 109 L 187 109 L 187 123 L 165 123 Z M 165 109 " clip-rule="nonzero"/></clipPath><clipPath id="id6"><path d="M 165 65 L 187 65 L 187 79 L 165 79 Z M 165 65 " clip-rule="nonzero"/></clipPath></defs><path fill="rgb(96.859741%, 57.249451%, 10.978699%)" d="M 91.59375 91.707031 L 95.945312 91.707031 L 95.945312 96.066406 L 91.59375 96.066406 L 91.59375 91.707031 " fill-opacity="1" fill-rule="nonzero"/><path fill="rgb(96.859741%, 57.249451%, 10.978699%)" d="M 113.367188 82.984375 L 113.367188 104.789062 L 109.011719 104.789062 L 109.011719 82.984375 L 113.367188 82.984375 " fill-opacity="1" fill-rule="nonzero"/><path fill="rgb(18.818665%, 60.778809%, 49.01886%)" d="M 113.367188 87.347656 L 113.367188 100.425781 L 117.722656 100.425781 L 117.722656 87.347656 L 113.367188 87.347656 " fill-opacity="1" fill-rule="nonzero"/><path fill="rgb(93.328857%, 28.62854%, 29.40979%)" d="M 122.078125 91.707031 L 122.078125 96.066406 L 117.722656 96.066406 L 117.722656 91.707031 L 122.078125 91.707031 " fill-opacity="1" fill-rule="nonzero"/><path fill="rgb(96.859741%, 57.249451%, 10.978699%)" d="M 74.171875 104.789062 L 74.171875 82.984375 L 78.527344 82.984375 L 78.527344 104.789062 L 74.171875 104.789062 " fill-opacity="1" fill-rule="nonzero"/><path fill="rgb(18.818665%, 60.778809%, 49.01886%)" d="M 74.171875 100.425781 L 74.171875 87.347656 L 69.816406 87.347656 L 69.816406 100.425781 L 74.171875 100.425781 " fill-opacity="1" fill-rule="nonzero"/><path fill="rgb(93.328857%, 28.62854%, 29.40979%)" d="M 65.460938 96.066406 L 65.460938 91.707031 L 69.816406 91.707031 L 69.816406 96.066406 L 65.460938 96.066406 " fill-opacity="1" fill-rule="nonzero"/><path fill="rgb(96.859741%, 57.249451%, 10.978699%)" d="M 104.65625 113.507812 L 82.882812 113.507812 L 82.882812 109.148438 L 104.65625 109.148438 L 104.65625 113.507812 " fill-opacity="1" fill-rule="nonzero"/><path fill="rgb(18.818665%, 60.778809%, 49.01886%)" d="M 100.300781 113.507812 L 87.238281 113.507812 L 87.238281 117.871094 L 100.300781 117.871094 L 100.300781 113.507812 " fill-opacity="1" fill-rule="nonzero"/><path fill="rgb(93.328857%, 28.62854%, 29.40979%)" d="M 95.945312 122.230469 L 91.59375 122.230469 L 91.59375 117.871094 L 95.945312 117.871094 L 95.945312 122.230469 " fill-opacity="1" fill-rule="nonzero"/><path fill="rgb(96.859741%, 57.249451%, 10.978699%)" d="M 82.882812 74.265625 L 104.65625 74.265625 L 104.65625 78.625 L 82.882812 78.625 L 82.882812 74.265625 " fill-opacity="1" fill-rule="nonzero"/><path fill="rgb(18.818665%, 60.778809%, 49.01886%)" d="M 87.238281 74.265625 L 100.300781 74.265625 L 100.300781 69.90625 L 87.238281 69.90625 L 87.238281 74.265625 " fill-opacity="1" fill-rule="nonzero"/><path fill="rgb(93.328857%, 28.62854%, 29.40979%)" d="M 91.59375 65.542969 L 95.945312 65.542969 L 95.945312 69.90625 L 91.59375 69.90625 L 91.59375 65.542969 " fill-opacity="1" fill-rule="nonzero"/><path fill="rgb(18.818665%, 60.778809%, 49.01886%)" d="M 95.945312 96.066406 L 91.59375 96.066406 L 91.59375 91.707031 L 95.945312 91.707031 Z M 95.945312 87.347656 L 87.238281 87.347656 L 87.238281 100.425781 L 100.300781 100.425781 L 100.300781 87.347656 L 95.945312 87.347656 " fill-opacity="1" fill-rule="nonzero"/><path fill="rgb(93.328857%, 28.62854%, 29.40979%)" d="M 104.65625 104.789062 L 82.882812 104.789062 L 82.882812 82.984375 L 104.65625 82.984375 Z M 104.65625 78.625 L 78.527344 78.625 L 78.527344 109.148438 L 109.011719 109.148438 L 109.011719 78.625 L 104.65625 78.625 " fill-opacity="1" fill-rule="nonzero"/><path fill="rgb(18.818665%, 60.778809%, 49.01886%)" d="M 122.078125 65.542969 L 109.011719 65.542969 L 109.011719 78.625 L 122.078125 78.625 L 122.078125 65.542969 " fill-opacity="1" fill-rule="nonzero"/><path fill="rgb(18.818665%, 60.778809%, 49.01886%)" d="M 78.527344 65.542969 L 65.460938 65.542969 L 65.460938 78.625 L 78.527344 78.625 L 78.527344 65.542969 " fill-opacity="1" fill-rule="nonzero"/><path fill="rgb(96.859741%, 57.249451%, 10.978699%)" d="M 65.460938 56.824219 L 56.753906 56.824219 L 56.753906 65.542969 L 65.460938 65.542969 L 65.460938 56.824219 " fill-opacity="1" fill-rule="nonzero"/><path fill="rgb(96.859741%, 57.249451%, 10.978699%)" d="M 65.460938 78.625 L 61.105469 78.625 L 61.105469 82.984375 L 65.460938 82.984375 L 65.460938 78.625 " fill-opacity="1" fill-rule="nonzero"/><path fill="rgb(96.859741%, 57.249451%, 10.978699%)" d="M 82.882812 61.183594 L 78.527344 61.183594 L 78.527344 65.542969 L 82.882812 65.542969 L 82.882812 61.183594 " fill-opacity="1" fill-rule="nonzero"/><path fill="rgb(96.859741%, 57.249451%, 10.978699%)" d="M 109.011719 61.183594 L 104.65625 61.183594 L 104.65625 65.542969 L 109.011719 65.542969 L 109.011719 61.183594 " fill-opacity="1" fill-rule="nonzero"/><path fill="rgb(96.859741%, 57.249451%, 10.978699%)" d="M 82.882812 122.230469 L 78.527344 122.230469 L 78.527344 126.589844 L 82.882812 126.589844 L 82.882812 122.230469 " fill-opacity="1" fill-rule="nonzero"/><path fill="rgb(96.859741%, 57.249451%, 10.978699%)" d="M 109.011719 122.230469 L 104.65625 122.230469 L 104.65625 126.589844 L 109.011719 126.589844 L 109.011719 122.230469 " fill-opacity="1" fill-rule="nonzero"/><path fill="rgb(96.859741%, 57.249451%, 10.978699%)" d="M 126.433594 78.625 L 122.078125 78.625 L 122.078125 82.984375 L 126.433594 82.984375 L 126.433594 78.625 " fill-opacity="1" fill-rule="nonzero"/><path fill="rgb(18.818665%, 60.778809%, 49.01886%)" d="M 143.851562 78.625 L 139.496094 78.625 L 139.496094 82.984375 L 143.851562 82.984375 L 143.851562 78.625 " fill-opacity="1" fill-rule="nonzero"/><path fill="rgb(96.859741%, 57.249451%, 10.978699%)" d="M 65.460938 104.789062 L 61.105469 104.789062 L 61.105469 109.148438 L 65.460938 109.148438 L 65.460938 104.789062 " fill-opacity="1" fill-rule="nonzero"/><path fill="rgb(96.859741%, 57.249451%, 10.978699%)" d="M 126.433594 104.789062 L 122.078125 104.789062 L 122.078125 109.148438 L 126.433594 109.148438 L 126.433594 104.789062 " fill-opacity="1" fill-rule="nonzero"/><path fill="rgb(18.818665%, 60.778809%, 49.01886%)" d="M 143.851562 104.789062 L 139.496094 104.789062 L 139.496094 109.148438 L 143.851562 109.148438 L 143.851562 104.789062 " fill-opacity="1" fill-rule="nonzero"/><path fill="rgb(93.328857%, 28.62854%, 29.40979%)" d="M 139.496094 91.707031 L 135.140625 91.707031 L 135.140625 96.066406 L 139.496094 96.066406 L 139.496094 91.707031 " fill-opacity="1" fill-rule="nonzero"/><path fill="rgb(96.859741%, 57.249451%, 10.978699%)" d="M 139.496094 78.625 L 135.140625 78.625 L 135.140625 87.347656 L 139.496094 87.347656 L 139.496094 78.625 " fill-opacity="1" fill-rule="nonzero"/><path fill="rgb(96.859741%, 57.249451%, 10.978699%)" d="M 139.496094 100.425781 L 135.140625 100.425781 L 135.140625 109.148438 L 139.496094 109.148438 L 139.496094 100.425781 " fill-opacity="1" fill-rule="nonzero"/><path fill="rgb(93.328857%, 28.62854%, 29.40979%)" d="M 56.753906 52.460938 L 52.398438 52.460938 L 52.398438 56.824219 L 56.753906 56.824219 L 56.753906 52.460938 " fill-opacity="1" fill-rule="nonzero"/><path fill="rgb(96.859741%, 57.249451%, 10.978699%)" d="M 130.789062 56.824219 L 122.078125 56.824219 L 122.078125 65.542969 L 130.789062 65.542969 L 130.789062 56.824219 " fill-opacity="1" fill-rule="nonzero"/><path fill="rgb(93.328857%, 28.62854%, 29.40979%)" d="M 135.140625 52.460938 L 130.789062 52.460938 L 130.789062 56.824219 L 135.140625 56.824219 L 135.140625 52.460938 " fill-opacity="1" fill-rule="nonzero"/><path fill="rgb(96.859741%, 57.249451%, 10.978699%)" d="M 65.460938 122.230469 L 56.753906 122.230469 L 56.753906 130.949219 L 65.460938 130.949219 L 65.460938 122.230469 " fill-opacity="1" fill-rule="nonzero"/><path fill="rgb(96.859741%, 57.249451%, 10.978699%)" d="M 130.789062 122.230469 L 122.078125 122.230469 L 122.078125 130.949219 L 130.789062 130.949219 L 130.789062 122.230469 " fill-opacity="1" fill-rule="nonzero"/><path fill="rgb(93.328857%, 28.62854%, 29.40979%)" d="M 56.753906 130.949219 L 52.398438 130.949219 L 52.398438 135.3125 L 56.753906 135.3125 L 56.753906 130.949219 " fill-opacity="1" fill-rule="nonzero"/><path fill="rgb(93.328857%, 28.62854%, 29.40979%)" d="M 135.140625 130.949219 L 130.789062 130.949219 L 130.789062 135.3125 L 135.140625 135.3125 L 135.140625 130.949219 " fill-opacity="1" fill-rule="nonzero"/><path fill="rgb(18.818665%, 60.778809%, 49.01886%)" d="M 78.527344 109.148438 L 65.460938 109.148438 L 65.460938 122.230469 L 78.527344 122.230469 L 78.527344 109.148438 " fill-opacity="1" fill-rule="nonzero"/><path fill="rgb(18.818665%, 60.778809%, 49.01886%)" d="M 122.078125 109.148438 L 109.011719 109.148438 L 109.011719 122.230469 L 122.078125 122.230469 L 122.078125 109.148438 " fill-opacity="1" fill-rule="nonzero"/><path fill="rgb(93.328857%, 28.62854%, 29.40979%)" d="M 130.789062 87.347656 L 126.433594 87.347656 L 126.433594 78.625 L 130.789062 78.625 L 130.789062 87.347656 " fill-opacity="1" fill-rule="nonzero"/><path fill="rgb(18.818665%, 60.778809%, 49.01886%)" d="M 135.140625 91.707031 L 130.789062 91.707031 L 130.789062 78.625 L 135.140625 78.625 L 135.140625 91.707031 " fill-opacity="1" fill-rule="nonzero"/><path fill="rgb(93.328857%, 28.62854%, 29.40979%)" d="M 130.789062 109.148438 L 126.433594 109.148438 L 126.433594 100.425781 L 130.789062 100.425781 L 130.789062 109.148438 " fill-opacity="1" fill-rule="nonzero"/><path fill="rgb(18.818665%, 60.778809%, 49.01886%)" d="M 135.140625 109.148438 L 130.789062 109.148438 L 130.789062 96.066406 L 135.140625 96.066406 L 135.140625 109.148438 " fill-opacity="1" fill-rule="nonzero"/><path fill="rgb(96.859741%, 57.249451%, 10.978699%)" d="M 148.207031 109.148438 L 143.851562 109.148438 L 143.851562 113.507812 L 148.207031 113.507812 L 148.207031 109.148438 " fill-opacity="1" fill-rule="nonzero"/><path fill="rgb(18.818665%, 60.778809%, 49.01886%)" d="M 165.628906 109.148438 L 161.273438 109.148438 L 161.273438 113.507812 L 165.628906 113.507812 L 165.628906 109.148438 " fill-opacity="1" fill-rule="nonzero"/><path fill="rgb(96.859741%, 57.249451%, 10.978699%)" d="M 148.207031 74.265625 L 143.851562 74.265625 L 143.851562 78.625 L 148.207031 78.625 L 148.207031 74.265625 " fill-opacity="1" fill-rule="nonzero"/><path fill="rgb(18.818665%, 60.778809%, 49.01886%)" d="M 165.628906 74.265625 L 161.273438 74.265625 L 161.273438 78.625 L 165.628906 78.625 L 165.628906 74.265625 " fill-opacity="1" fill-rule="nonzero"/><path fill="rgb(93.328857%, 28.62854%, 29.40979%)" d="M 161.273438 87.347656 L 156.917969 87.347656 L 156.917969 100.425781 L 161.273438 100.425781 L 161.273438 87.347656 " fill-opacity="1" fill-rule="nonzero"/><path fill="rgb(96.859741%, 57.249451%, 10.978699%)" d="M 156.917969 91.707031 L 152.5625 91.707031 L 152.5625 96.066406 L 156.917969 96.066406 L 156.917969 91.707031 " fill-opacity="1" fill-rule="nonzero"/><path fill="rgb(96.859741%, 57.249451%, 10.978699%)" d="M 161.273438 109.148438 L 156.917969 109.148438 L 156.917969 117.871094 L 161.273438 117.871094 L 161.273438 109.148438 " fill-opacity="1" fill-rule="nonzero"/><path fill="rgb(96.859741%, 57.249451%, 10.978699%)" d="M 161.273438 69.90625 L 156.917969 69.90625 L 156.917969 78.625 L 161.273438 78.625 L 161.273438 69.90625 " fill-opacity="1" fill-rule="nonzero"/><path fill="rgb(93.328857%, 28.62854%, 29.40979%)" d="M 152.5625 117.871094 L 148.207031 117.871094 L 148.207031 109.148438 L 152.5625 109.148438 L 152.5625 117.871094 " fill-opacity="1" fill-rule="nonzero"/><path fill="rgb(18.818665%, 60.778809%, 49.01886%)" d="M 156.917969 122.230469 L 152.5625 122.230469 L 152.5625 109.148438 L 156.917969 109.148438 L 156.917969 122.230469 " fill-opacity="1" fill-rule="nonzero"/><path fill="rgb(93.328857%, 28.62854%, 29.40979%)" d="M 152.5625 78.625 L 148.207031 78.625 L 148.207031 69.90625 L 152.5625 69.90625 L 152.5625 78.625 " fill-opacity="1" fill-rule="nonzero"/><path fill="rgb(18.818665%, 60.778809%, 49.01886%)" d="M 156.917969 78.625 L 152.5625 78.625 L 152.5625 65.542969 L 156.917969 65.542969 L 156.917969 78.625 " fill-opacity="1" fill-rule="nonzero"/><path fill="rgb(96.859741%, 57.249451%, 10.978699%)" d="M 39.332031 78.625 L 43.6875 78.625 L 43.6875 74.265625 L 39.332031 74.265625 L 39.332031 78.625 " fill-opacity="1" fill-rule="nonzero"/><path fill="rgb(18.818665%, 60.778809%, 49.01886%)" d="M 21.910156 78.625 L 26.265625 78.625 L 26.265625 74.265625 L 21.910156 74.265625 L 21.910156 78.625 " fill-opacity="1" fill-rule="nonzero"/><path fill="rgb(96.859741%, 57.249451%, 10.978699%)" d="M 39.332031 113.507812 L 43.6875 113.507812 L 43.6875 109.148438 L 39.332031 109.148438 L 39.332031 113.507812 " fill-opacity="1" fill-rule="nonzero"/><path fill="rgb(18.818665%, 60.778809%, 49.01886%)" d="M 21.910156 113.507812 L 26.265625 113.507812 L 26.265625 109.148438 L 21.910156 109.148438 L 21.910156 113.507812 " fill-opacity="1" fill-rule="nonzero"/><path fill="rgb(93.328857%, 28.62854%, 29.40979%)" d="M 26.265625 100.425781 L 30.621094 100.425781 L 30.621094 87.347656 L 26.265625 87.347656 L 26.265625 100.425781 " fill-opacity="1" fill-rule="nonzero"/><path fill="rgb(96.859741%, 57.249451%, 10.978699%)" d="M 30.621094 96.066406 L 34.976562 96.066406 L 34.976562 91.707031 L 30.621094 91.707031 L 30.621094 96.066406 " fill-opacity="1" fill-rule="nonzero"/><path fill="rgb(96.859741%, 57.249451%, 10.978699%)" d="M 26.265625 78.625 L 30.621094 78.625 L 30.621094 69.90625 L 26.265625 69.90625 L 26.265625 78.625 " fill-opacity="1" fill-rule="nonzero"/><path fill="rgb(96.859741%, 57.249451%, 10.978699%)" d="M 26.265625 117.871094 L 30.621094 117.871094 L 30.621094 109.148438 L 26.265625 109.148438 L 26.265625 117.871094 " fill-opacity="1" fill-rule="nonzero"/><path fill="rgb(93.328857%, 28.62854%, 29.40979%)" d="M 34.976562 69.90625 L 39.332031 69.90625 L 39.332031 78.625 L 34.976562 78.625 L 34.976562 69.90625 " fill-opacity="1" fill-rule="nonzero"/><path fill="rgb(18.818665%, 60.778809%, 49.01886%)" d="M 30.621094 65.542969 L 34.976562 65.542969 L 34.976562 78.625 L 30.621094 78.625 L 30.621094 65.542969 " fill-opacity="1" fill-rule="nonzero"/><path fill="rgb(93.328857%, 28.62854%, 29.40979%)" d="M 34.976562 109.148438 L 39.332031 109.148438 L 39.332031 117.871094 L 34.976562 117.871094 L 34.976562 109.148438 " fill-opacity="1" fill-rule="nonzero"/><path fill="rgb(18.818665%, 60.778809%, 49.01886%)" d="M 30.621094 109.148438 L 34.976562 109.148438 L 34.976562 122.230469 L 30.621094 122.230469 L 30.621094 109.148438 " fill-opacity="1" fill-rule="nonzero"/><path fill="rgb(96.859741%, 57.249451%, 10.978699%)" d="M 78.527344 148.394531 L 78.527344 144.03125 L 74.171875 144.03125 L 74.171875 148.394531 L 78.527344 148.394531 " fill-opacity="1" fill-rule="nonzero"/><path fill="rgb(18.818665%, 60.778809%, 49.01886%)" d="M 78.527344 165.835938 L 78.527344 161.472656 L 74.171875 161.472656 L 74.171875 165.835938 L 78.527344 165.835938 " fill-opacity="1" fill-rule="nonzero"/><path fill="rgb(96.859741%, 57.249451%, 10.978699%)" d="M 113.367188 148.394531 L 113.367188 144.03125 L 109.011719 144.03125 L 109.011719 148.394531 L 113.367188 148.394531 " fill-opacity="1" fill-rule="nonzero"/><path fill="rgb(18.818665%, 60.778809%, 49.01886%)" d="M 113.367188 165.835938 L 113.367188 161.472656 L 109.011719 161.472656 L 109.011719 165.835938 L 113.367188 165.835938 " fill-opacity="1" fill-rule="nonzero"/><path fill="rgb(93.328857%, 28.62854%, 29.40979%)" d="M 100.300781 161.472656 L 100.300781 157.113281 L 87.238281 157.113281 L 87.238281 161.472656 L 100.300781 161.472656 " fill-opacity="1" fill-rule="nonzero"/><path fill="rgb(96.859741%, 57.249451%, 10.978699%)" d="M 95.945312 157.113281 L 95.945312 152.753906 L 91.59375 152.753906 L 91.59375 157.113281 L 95.945312 157.113281 " fill-opacity="1" fill-rule="nonzero"/><path fill="rgb(96.859741%, 57.249451%, 10.978699%)" d="M 78.527344 161.472656 L 78.527344 157.113281 L 69.816406 157.113281 L 69.816406 161.472656 L 78.527344 161.472656 " fill-opacity="1" fill-rule="nonzero"/><path fill="rgb(96.859741%, 57.249451%, 10.978699%)" d="M 117.722656 161.472656 L 117.722656 157.113281 L 109.011719 157.113281 L 109.011719 161.472656 L 117.722656 161.472656 " fill-opacity="1" fill-rule="nonzero"/><path fill="rgb(93.328857%, 28.62854%, 29.40979%)" d="M 69.816406 152.753906 L 69.816406 148.394531 L 78.527344 148.394531 L 78.527344 152.753906 L 69.816406 152.753906 " fill-opacity="1" fill-rule="nonzero"/><path fill="rgb(18.818665%, 60.778809%, 49.01886%)" d="M 65.460938 157.113281 L 65.460938 152.753906 L 78.527344 152.753906 L 78.527344 157.113281 L 65.460938 157.113281 " fill-opacity="1" fill-rule="nonzero"/><path fill="rgb(93.328857%, 28.62854%, 29.40979%)" d="M 109.011719 152.753906 L 109.011719 148.394531 L 117.722656 148.394531 L 117.722656 152.753906 L 109.011719 152.753906 " fill-opacity="1" fill-rule="nonzero"/><path fill="rgb(18.818665%, 60.778809%, 49.01886%)" d="M 109.011719 157.113281 L 109.011719 152.753906 L 122.078125 152.753906 L 122.078125 157.113281 L 109.011719 157.113281 " fill-opacity="1" fill-rule="nonzero"/><path fill="rgb(96.859741%, 57.249451%, 10.978699%)" d="M 109.011719 39.382812 L 109.011719 43.742188 L 113.367188 43.742188 L 113.367188 39.382812 L 109.011719 39.382812 " fill-opacity="1" fill-rule="nonzero"/><path fill="rgb(18.818665%, 60.778809%, 49.01886%)" d="M 109.011719 21.9375 L 109.011719 26.300781 L 113.367188 26.300781 L 113.367188 21.9375 L 109.011719 21.9375 " fill-opacity="1" fill-rule="nonzero"/><path fill="rgb(96.859741%, 57.249451%, 10.978699%)" d="M 74.171875 39.382812 L 74.171875 43.742188 L 78.527344 43.742188 L 78.527344 39.382812 L 74.171875 39.382812 " fill-opacity="1" fill-rule="nonzero"/><path fill="rgb(18.818665%, 60.778809%, 49.01886%)" d="M 74.171875 21.9375 L 74.171875 26.300781 L 78.527344 26.300781 L 78.527344 21.9375 L 74.171875 21.9375 " fill-opacity="1" fill-rule="nonzero"/><path fill="rgb(93.328857%, 28.62854%, 29.40979%)" d="M 87.238281 26.300781 L 87.238281 30.660156 L 100.300781 30.660156 L 100.300781 26.300781 L 87.238281 26.300781 " fill-opacity="1" fill-rule="nonzero"/><path fill="rgb(96.859741%, 57.249451%, 10.978699%)" d="M 91.59375 30.660156 L 91.59375 35.019531 L 95.945312 35.019531 L 95.945312 30.660156 L 91.59375 30.660156 " fill-opacity="1" fill-rule="nonzero"/><path fill="rgb(96.859741%, 57.249451%, 10.978699%)" d="M 109.011719 26.300781 L 109.011719 30.660156 L 117.722656 30.660156 L 117.722656 26.300781 L 109.011719 26.300781 " fill-opacity="1" fill-rule="nonzero"/><path fill="rgb(96.859741%, 57.249451%, 10.978699%)" d="M 69.816406 26.300781 L 69.816406 30.660156 L 78.527344 30.660156 L 78.527344 26.300781 L 69.816406 26.300781 " fill-opacity="1" fill-rule="nonzero"/><path fill="rgb(93.328857%, 28.62854%, 29.40979%)" d="M 117.722656 35.019531 L 117.722656 39.382812 L 109.011719 39.382812 L 109.011719 35.019531 L 117.722656 35.019531 " fill-opacity="1" fill-rule="nonzero"/><path fill="rgb(18.818665%, 60.778809%, 49.01886%)" d="M 122.078125 30.660156 L 122.078125 35.019531 L 109.011719 35.019531 L 109.011719 30.660156 L 122.078125 30.660156 " fill-opacity="1" fill-rule="nonzero"/><path fill="rgb(93.328857%, 28.62854%, 29.40979%)" d="M 78.527344 35.019531 L 78.527344 39.382812 L 69.816406 39.382812 L 69.816406 35.019531 L 78.527344 35.019531 " fill-opacity="1" fill-rule="nonzero"/><path fill="rgb(18.818665%, 60.778809%, 49.01886%)" d="M 78.527344 30.660156 L 78.527344 35.019531 L 65.460938 35.019531 L 65.460938 30.660156 L 78.527344 30.660156 " fill-opacity="1" fill-rule="nonzero"/><g clip-path="url(#id1)"><path fill="rgb(96.859741%, 57.249451%, 10.978699%)" d="M 117.722656 8.859375 L 117.722656 4.496094 L 113.367188 4.496094 L 113.367188 0.136719 L 109.011719 0.136719 L 109.011719 21.9375 L 113.367188 21.9375 L 113.367188 17.578125 L 117.722656 17.578125 L 117.722656 13.21875 L 122.078125 13.21875 L 122.078125 8.859375 L 117.722656 8.859375 " fill-opacity="1" fill-rule="nonzero"/></g><g clip-path="url(#id2)"><path fill="rgb(96.859741%, 57.249451%, 10.978699%)" d="M 74.171875 0.136719 L 74.171875 4.496094 L 69.816406 4.496094 L 69.816406 8.859375 L 65.460938 8.859375 L 65.460938 13.21875 L 69.816406 13.21875 L 69.816406 17.578125 L 74.171875 17.578125 L 74.171875 21.9375 L 78.527344 21.9375 L 78.527344 0.136719 L 74.171875 0.136719 " fill-opacity="1" fill-rule="nonzero"/></g><g clip-path="url(#id3)"><path fill="rgb(96.859741%, 57.249451%, 10.978699%)" d="M 117.722656 174.554688 L 117.722656 170.195312 L 113.367188 170.195312 L 113.367188 165.835938 L 109.011719 165.835938 L 109.011719 187.636719 L 113.367188 187.636719 L 113.367188 183.277344 L 117.722656 183.277344 L 117.722656 178.914062 L 122.078125 178.914062 L 122.078125 174.554688 L 117.722656 174.554688 " fill-opacity="1" fill-rule="nonzero"/></g><g clip-path="url(#id4)"><path fill="rgb(96.859741%, 57.249451%, 10.978699%)" d="M 74.171875 165.835938 L 74.171875 170.195312 L 69.816406 170.195312 L 69.816406 174.554688 L 65.460938 174.554688 L 65.460938 178.914062 L 69.816406 178.914062 L 69.816406 183.277344 L 74.171875 183.277344 L 74.171875 187.636719 L 78.527344 187.636719 L 78.527344 165.835938 L 74.171875 165.835938 " fill-opacity="1" fill-rule="nonzero"/></g><g clip-path="url(#id5)"><path fill="rgb(96.859741%, 57.249451%, 10.978699%)" d="M 183.046875 109.148438 L 165.628906 109.148438 L 165.628906 113.507812 L 169.980469 113.507812 L 169.980469 117.871094 L 174.335938 117.871094 L 174.335938 122.230469 L 178.691406 122.230469 L 178.691406 117.871094 L 183.046875 117.871094 L 183.046875 113.507812 L 187.402344 113.507812 L 187.402344 109.148438 L 183.046875 109.148438 " fill-opacity="1" fill-rule="nonzero"/></g><g clip-path="url(#id6)"><path fill="rgb(96.859741%, 57.249451%, 10.978699%)" d="M 183.046875 74.265625 L 183.046875 69.90625 L 178.691406 69.90625 L 178.691406 65.542969 L 174.335938 65.542969 L 174.335938 69.90625 L 169.980469 69.90625 L 169.980469 74.265625 L 165.628906 74.265625 L 165.628906 78.625 L 187.402344 78.625 L 187.402344 74.265625 L 183.046875 74.265625 " fill-opacity="1" fill-rule="nonzero"/></g><path fill="rgb(96.859741%, 57.249451%, 10.978699%)" d="M 17.558594 109.148438 L 0.136719 109.148438 L 0.136719 113.507812 L 4.492188 113.507812 L 4.492188 117.871094 L 8.847656 117.871094 L 8.847656 122.230469 L 13.203125 122.230469 L 13.203125 117.871094 L 17.558594 117.871094 L 17.558594 113.507812 L 21.910156 113.507812 L 21.910156 109.148438 L 17.558594 109.148438 " fill-opacity="1" fill-rule="nonzero"/><path fill="rgb(96.859741%, 57.249451%, 10.978699%)" d="M 17.558594 74.265625 L 17.558594 69.90625 L 13.203125 69.90625 L 13.203125 65.542969 L 8.847656 65.542969 L 8.847656 69.90625 L 4.492188 69.90625 L 4.492188 74.265625 L 0.136719 74.265625 L 0.136719 78.625 L 21.910156 78.625 L 21.910156 74.265625 L 17.558594 74.265625 " fill-opacity="1" fill-rule="nonzero"/><path fill="rgb(18.818665%, 60.778809%, 49.01886%)" d="M 109.011719 144.03125 L 109.011719 139.671875 L 104.65625 139.671875 L 104.65625 144.03125 L 109.011719 144.03125 " fill-opacity="1" fill-rule="nonzero"/><path fill="rgb(18.818665%, 60.778809%, 49.01886%)" d="M 82.882812 144.03125 L 82.882812 139.671875 L 78.527344 139.671875 L 78.527344 144.03125 L 82.882812 144.03125 " fill-opacity="1" fill-rule="nonzero"/><path fill="rgb(93.328857%, 28.62854%, 29.40979%)" d="M 95.945312 139.671875 L 95.945312 135.3125 L 91.59375 135.3125 L 91.59375 139.671875 L 95.945312 139.671875 " fill-opacity="1" fill-rule="nonzero"/><path fill="rgb(96.859741%, 57.249451%, 10.978699%)" d="M 109.011719 139.671875 L 109.011719 135.3125 L 100.300781 135.3125 L 100.300781 139.671875 L 109.011719 139.671875 " fill-opacity="1" fill-rule="nonzero"/><path fill="rgb(96.859741%, 57.249451%, 10.978699%)" d="M 87.238281 139.671875 L 87.238281 135.3125 L 78.527344 135.3125 L 78.527344 139.671875 L 87.238281 139.671875 " fill-opacity="1" fill-rule="nonzero"/><path fill="rgb(93.328857%, 28.62854%, 29.40979%)" d="M 100.300781 130.949219 L 100.300781 126.589844 L 109.011719 126.589844 L 109.011719 130.949219 L 100.300781 130.949219 " fill-opacity="1" fill-rule="nonzero"/><path fill="rgb(18.818665%, 60.778809%, 49.01886%)" d="M 95.945312 135.3125 L 95.945312 130.949219 L 109.011719 130.949219 L 109.011719 135.3125 L 95.945312 135.3125 " fill-opacity="1" fill-rule="nonzero"/><path fill="rgb(93.328857%, 28.62854%, 29.40979%)" d="M 78.527344 130.949219 L 78.527344 126.589844 L 87.238281 126.589844 L 87.238281 130.949219 L 78.527344 130.949219 " fill-opacity="1" fill-rule="nonzero"/><path fill="rgb(18.818665%, 60.778809%, 49.01886%)" d="M 78.527344 135.3125 L 78.527344 130.949219 L 91.59375 130.949219 L 91.59375 135.3125 L 78.527344 135.3125 " fill-opacity="1" fill-rule="nonzero"/><path fill="rgb(18.818665%, 60.778809%, 49.01886%)" d="M 43.6875 109.148438 L 48.042969 109.148438 L 48.042969 104.789062 L 43.6875 104.789062 L 43.6875 109.148438 " fill-opacity="1" fill-rule="nonzero"/><path fill="rgb(18.818665%, 60.778809%, 49.01886%)" d="M 43.6875 82.984375 L 48.042969 82.984375 L 48.042969 78.625 L 43.6875 78.625 L 43.6875 82.984375 " fill-opacity="1" fill-rule="nonzero"/><path fill="rgb(93.328857%, 28.62854%, 29.40979%)" d="M 48.042969 96.066406 L 52.398438 96.066406 L 52.398438 91.707031 L 48.042969 91.707031 L 48.042969 96.066406 " fill-opacity="1" fill-rule="nonzero"/><path fill="rgb(96.859741%, 57.249451%, 10.978699%)" d="M 48.042969 109.148438 L 52.398438 109.148438 L 52.398438 100.425781 L 48.042969 100.425781 L 48.042969 109.148438 " fill-opacity="1" fill-rule="nonzero"/><path fill="rgb(96.859741%, 57.249451%, 10.978699%)" d="M 48.042969 87.347656 L 52.398438 87.347656 L 52.398438 78.625 L 48.042969 78.625 L 48.042969 87.347656 " fill-opacity="1" fill-rule="nonzero"/><path fill="rgb(93.328857%, 28.62854%, 29.40979%)" d="M 56.753906 100.425781 L 61.105469 100.425781 L 61.105469 109.148438 L 56.753906 109.148438 L 56.753906 100.425781 " fill-opacity="1" fill-rule="nonzero"/><path fill="rgb(18.818665%, 60.778809%, 49.01886%)" d="M 52.398438 96.066406 L 56.753906 96.066406 L 56.753906 109.148438 L 52.398438 109.148438 L 52.398438 96.066406 " fill-opacity="1" fill-rule="nonzero"/><path fill="rgb(93.328857%, 28.62854%, 29.40979%)" d="M 56.753906 78.625 L 61.105469 78.625 L 61.105469 87.347656 L 56.753906 87.347656 L 56.753906 78.625 " fill-opacity="1" fill-rule="nonzero"/><path fill="rgb(18.818665%, 60.778809%, 49.01886%)" d="M 52.398438 78.625 L 56.753906 78.625 L 56.753906 91.707031 L 52.398438 91.707031 L 52.398438 78.625 " fill-opacity="1" fill-rule="nonzero"/><path fill="rgb(18.818665%, 60.778809%, 49.01886%)" d="M 78.527344 43.742188 L 78.527344 48.101562 L 82.882812 48.101562 L 82.882812 43.742188 L 78.527344 43.742188 " fill-opacity="1" fill-rule="nonzero"/><path fill="rgb(18.818665%, 60.778809%, 49.01886%)" d="M 104.65625 43.742188 L 104.65625 48.101562 L 109.011719 48.101562 L 109.011719 43.742188 L 104.65625 43.742188 " fill-opacity="1" fill-rule="nonzero"/><path fill="rgb(93.328857%, 28.62854%, 29.40979%)" d="M 91.59375 48.101562 L 91.59375 52.460938 L 95.945312 52.460938 L 95.945312 48.101562 L 91.59375 48.101562 " fill-opacity="1" fill-rule="nonzero"/><path fill="rgb(96.859741%, 57.249451%, 10.978699%)" d="M 78.527344 48.101562 L 78.527344 52.460938 L 87.238281 52.460938 L 87.238281 48.101562 L 78.527344 48.101562 " fill-opacity="1" fill-rule="nonzero"/><path fill="rgb(96.859741%, 57.249451%, 10.978699%)" d="M 100.300781 48.101562 L 100.300781 52.460938 L 109.011719 52.460938 L 109.011719 48.101562 L 100.300781 48.101562 " fill-opacity="1" fill-rule="nonzero"/><path fill="rgb(93.328857%, 28.62854%, 29.40979%)" d="M 87.238281 56.824219 L 87.238281 61.183594 L 78.527344 61.183594 L 78.527344 56.824219 L 87.238281 56.824219 " fill-opacity="1" fill-rule="nonzero"/><path fill="rgb(18.818665%, 60.778809%, 49.01886%)" d="M 91.59375 52.460938 L 91.59375 56.824219 L 78.527344 56.824219 L 78.527344 52.460938 L 91.59375 52.460938 " fill-opacity="1" fill-rule="nonzero"/><path fill="rgb(93.328857%, 28.62854%, 29.40979%)" d="M 109.011719 56.824219 L 109.011719 61.183594 L 100.300781 61.183594 L 100.300781 56.824219 L 109.011719 56.824219 " fill-opacity="1" fill-rule="nonzero"/><path fill="rgb(18.818665%, 60.778809%, 49.01886%)" d="M 109.011719 52.460938 L 109.011719 56.824219 L 95.945312 56.824219 L 95.945312 52.460938 L 109.011719 52.460938 " fill-opacity="1" fill-rule="nonzero"/></svg>