<svg xmlns="http://www.w3.org/2000/svg" xmlns:xlink="http://www.w3.org/1999/xlink" width="250" zoomAndPan="magnify" viewBox="0 0 187.5 187.499992" height="250" preserveAspectRatio="xMidYMid meet" version="1.0"><defs><clipPath id="id1"><path d="M 173 108 L 187 108 L 187 174 L 173 174 Z M 173 108 " clip-rule="nonzero"/></clipPath><clipPath id="id2"><path d="M 108 173 L 174 173 L 174 187 L 108 187 Z M 108 173 " clip-rule="nonzero"/></clipPath><clipPath id="id3"><path d="M 173 108 L 187 108 L 187 174 L 173 174 Z M 173 108 " clip-rule="nonzero"/></clipPath><clipPath id="id4"><path d="M 108 173 L 174 173 L 174 187 L 108 187 Z M 108 173 " clip-rule="nonzero"/></clipPath></defs><path fill="rgb(55.288696%, 28.62854%, 16.468811%)" d="M 173.078125 137.019531 L 173.078125 144.230469 L 165.867188 144.230469 L 165.867188 151.441406 L 158.652344 151.441406 L 158.652344 158.652344 L 151.441406 158.652344 L 151.441406 165.867188 L 144.230469 165.867188 L 144.230469 173.078125 L 137.019531 173.078125 L 137.019531 180.289062 L 173.078125 180.289062 L 173.078125 173.078125 L 180.289062 173.078125 L 180.289062 137.019531 L 173.078125 137.019531 " fill-opacity="1" fill-rule="nonzero"/><path fill="rgb(55.288696%, 28.62854%, 16.468811%)" d="M 137.019531 137.019531 L 144.230469 137.019531 L 144.230469 129.808594 L 151.441406 129.808594 L 151.441406 122.597656 L 158.652344 122.597656 L 158.652344 115.382812 L 165.867188 115.382812 L 165.867188 108.171875 L 173.078125 108.171875 L 173.078125 86.539062 L 165.867188 86.539062 L 165.867188 93.75 L 151.441406 93.75 L 151.441406 86.539062 L 144.230469 86.539062 L 144.230469 79.328125 L 137.019531 79.328125 L 137.019531 72.117188 L 129.808594 72.117188 L 129.808594 64.902344 L 122.597656 64.902344 L 122.597656 57.691406 L 115.382812 57.691406 L 115.382812 50.480469 L 108.171875 50.480469 L 108.171875 43.269531 L 100.960938 43.269531 L 100.960938 36.058594 L 93.75 36.058594 L 93.75 21.632812 L 100.960938 21.632812 L 100.960938 14.421875 L 79.328125 14.421875 L 79.328125 21.632812 L 72.117188 21.632812 L 72.117188 28.847656 L 64.902344 28.847656 L 64.902344 36.058594 L 57.691406 36.058594 L 57.691406 43.269531 L 50.480469 43.269531 L 50.480469 50.480469 L 43.269531 50.480469 L 43.269531 57.691406 L 36.058594 57.691406 L 36.058594 64.902344 L 28.847656 64.902344 L 28.847656 72.117188 L 21.632812 72.117188 L 21.632812 79.328125 L 14.421875 79.328125 L 14.421875 100.960938 L 21.632812 100.960938 L 21.632812 115.382812 L 28.847656 115.382812 L 28.847656 129.808594 L 36.058594 129.808594 L 36.058594 137.019531 L 43.269531 137.019531 L 43.269531 144.230469 L 50.480469 144.230469 L 50.480469 151.441406 L 57.691406 151.441406 L 57.691406 158.652344 L 72.117188 158.652344 L 72.117188 165.867188 L 86.539062 165.867188 L 86.539062 173.078125 L 108.171875 173.078125 L 108.171875 165.867188 L 115.382812 165.867188 L 115.382812 158.652344 L 122.597656 158.652344 L 122.597656 151.441406 L 129.808594 151.441406 L 129.808594 144.230469 L 137.019531 144.230469 L 137.019531 137.019531 " fill-opacity="1" fill-rule="nonzero"/><path fill="rgb(55.288696%, 28.62854%, 16.468811%)" d="M 14.421875 43.269531 L 21.632812 43.269531 L 21.632812 36.058594 L 28.847656 36.058594 L 28.847656 28.847656 L 36.058594 28.847656 L 36.058594 21.632812 L 43.269531 21.632812 L 43.269531 14.421875 L 50.480469 14.421875 L 50.480469 7.210938 L 14.421875 7.210938 L 14.421875 14.421875 L 7.210938 14.421875 L 7.210938 50.480469 L 14.421875 50.480469 L 14.421875 43.269531 " fill-opacity="1" fill-rule="nonzero"/><g clip-path="url(#id1)"><path fill="rgb(0%, 0%, 0%)" d="M 180.289062 122.597656 L 180.289062 129.808594 L 173.078125 129.808594 L 173.078125 137.019531 L 180.289062 137.019531 L 180.289062 173.078125 L 187.5 173.078125 L 187.5 108.171875 L 180.289062 108.171875 L 180.289062 122.597656 " fill-opacity="1" fill-rule="nonzero"/></g><path fill="rgb(0%, 0%, 0%)" d="M 173.078125 180.289062 L 180.289062 180.289062 L 180.289062 173.078125 L 173.078125 173.078125 L 173.078125 180.289062 " fill-opacity="1" fill-rule="nonzero"/><path fill="rgb(0%, 0%, 0%)" d="M 173.078125 108.171875 L 180.289062 108.171875 L 180.289062 86.539062 L 173.078125 86.539062 L 173.078125 108.171875 " fill-opacity="1" fill-rule="nonzero"/><path fill="rgb(0%, 0%, 0%)" d="M 165.867188 144.230469 L 173.078125 144.230469 L 173.078125 137.019531 L 165.867188 137.019531 L 165.867188 144.230469 " fill-opacity="1" fill-rule="nonzero"/><path fill="rgb(0%, 0%, 0%)" d="M 165.867188 115.382812 L 173.078125 115.382812 L 173.078125 108.171875 L 165.867188 108.171875 L 165.867188 115.382812 " fill-opacity="1" fill-rule="nonzero"/><path fill="rgb(0%, 0%, 0%)" d="M 165.867188 86.539062 L 173.078125 86.539062 L 173.078125 72.117188 L 165.867188 72.117188 L 165.867188 86.539062 " fill-opacity="1" fill-rule="nonzero"/><g clip-path="url(#id2)"><path fill="rgb(0%, 0%, 0%)" d="M 137.019531 180.289062 L 137.019531 173.078125 L 129.808594 173.078125 L 129.808594 180.289062 L 108.171875 180.289062 L 108.171875 187.5 L 173.078125 187.5 L 173.078125 180.289062 L 137.019531 180.289062 " fill-opacity="1" fill-rule="nonzero"/></g><path fill="rgb(0%, 0%, 0%)" d="M 158.652344 151.441406 L 165.867188 151.441406 L 165.867188 144.230469 L 158.652344 144.230469 L 158.652344 151.441406 " fill-opacity="1" fill-rule="nonzero"/><path fill="rgb(0%, 0%, 0%)" d="M 158.652344 122.597656 L 165.867188 122.597656 L 165.867188 115.382812 L 158.652344 115.382812 L 158.652344 122.597656 " fill-opacity="1" fill-rule="nonzero"/><path fill="rgb(0%, 0%, 0%)" d="M 158.652344 72.117188 L 165.867188 72.117188 L 165.867188 57.691406 L 158.652344 57.691406 L 158.652344 72.117188 " fill-opacity="1" fill-rule="nonzero"/><path fill="rgb(0%, 0%, 0%)" d="M 151.441406 158.652344 L 158.652344 158.652344 L 158.652344 151.441406 L 151.441406 151.441406 L 151.441406 158.652344 " fill-opacity="1" fill-rule="nonzero"/><path fill="rgb(0%, 0%, 0%)" d="M 151.441406 129.808594 L 158.652344 129.808594 L 158.652344 122.597656 L 151.441406 122.597656 L 151.441406 129.808594 " fill-opacity="1" fill-rule="nonzero"/><path fill="rgb(0%, 0%, 0%)" d="M 151.441406 86.539062 L 151.441406 93.75 L 165.867188 93.75 L 165.867188 86.539062 L 151.441406 86.539062 " fill-opacity="1" fill-rule="nonzero"/><path fill="rgb(0%, 0%, 0%)" d="M 158.652344 57.691406 L 158.652344 50.480469 L 151.441406 50.480469 L 151.441406 57.691406 L 158.652344 57.691406 " fill-opacity="1" fill-rule="nonzero"/><path fill="rgb(0%, 0%, 0%)" d="M 144.230469 165.867188 L 151.441406 165.867188 L 151.441406 158.652344 L 144.230469 158.652344 L 144.230469 165.867188 " fill-opacity="1" fill-rule="nonzero"/><path fill="rgb(0%, 0%, 0%)" d="M 144.230469 137.019531 L 151.441406 137.019531 L 151.441406 129.808594 L 144.230469 129.808594 L 144.230469 137.019531 " fill-opacity="1" fill-rule="nonzero"/><path fill="rgb(0%, 0%, 0%)" d="M 144.230469 79.328125 L 144.230469 86.539062 L 151.441406 86.539062 L 151.441406 79.328125 L 144.230469 79.328125 " fill-opacity="1" fill-rule="nonzero"/><path fill="rgb(0%, 0%, 0%)" d="M 151.441406 50.480469 L 151.441406 43.269531 L 144.230469 43.269531 L 144.230469 50.480469 L 151.441406 50.480469 " fill-opacity="1" fill-rule="nonzero"/><path fill="rgb(0%, 0%, 0%)" d="M 137.019531 173.078125 L 144.230469 173.078125 L 144.230469 165.867188 L 137.019531 165.867188 L 137.019531 173.078125 " fill-opacity="1" fill-rule="nonzero"/><path fill="rgb(0%, 0%, 0%)" d="M 137.019531 144.230469 L 144.230469 144.230469 L 144.230469 137.019531 L 137.019531 137.019531 L 137.019531 144.230469 " fill-opacity="1" fill-rule="nonzero"/><path fill="rgb(0%, 0%, 0%)" d="M 137.019531 72.117188 L 137.019531 79.328125 L 144.230469 79.328125 L 144.230469 72.117188 L 137.019531 72.117188 " fill-opacity="1" fill-rule="nonzero"/><path fill="rgb(0%, 0%, 0%)" d="M 144.230469 43.269531 L 144.230469 36.058594 L 137.019531 36.058594 L 137.019531 43.269531 L 144.230469 43.269531 " fill-opacity="1" fill-rule="nonzero"/><path fill="rgb(0%, 0%, 0%)" d="M 129.808594 151.441406 L 137.019531 151.441406 L 137.019531 144.230469 L 129.808594 144.230469 L 129.808594 151.441406 " fill-opacity="1" fill-rule="nonzero"/><path fill="rgb(0%, 0%, 0%)" d="M 129.808594 64.902344 L 129.808594 72.117188 L 137.019531 72.117188 L 137.019531 64.902344 L 129.808594 64.902344 " fill-opacity="1" fill-rule="nonzero"/><path fill="rgb(0%, 0%, 0%)" d="M 137.019531 36.058594 L 137.019531 28.847656 L 129.808594 28.847656 L 129.808594 36.058594 L 137.019531 36.058594 " fill-opacity="1" fill-rule="nonzero"/><path fill="rgb(0%, 0%, 0%)" d="M 122.597656 158.652344 L 129.808594 158.652344 L 129.808594 151.441406 L 122.597656 151.441406 L 122.597656 158.652344 " fill-opacity="1" fill-rule="nonzero"/><path fill="rgb(0%, 0%, 0%)" d="M 122.597656 57.691406 L 122.597656 64.902344 L 129.808594 64.902344 L 129.808594 57.691406 L 122.597656 57.691406 " fill-opacity="1" fill-rule="nonzero"/><path fill="rgb(0%, 0%, 0%)" d="M 115.382812 165.867188 L 122.597656 165.867188 L 122.597656 158.652344 L 115.382812 158.652344 L 115.382812 165.867188 " fill-opacity="1" fill-rule="nonzero"/><path fill="rgb(0%, 0%, 0%)" d="M 115.382812 50.480469 L 115.382812 57.691406 L 122.597656 57.691406 L 122.597656 50.480469 L 115.382812 50.480469 " fill-opacity="1" fill-rule="nonzero"/><path fill="rgb(0%, 0%, 0%)" d="M 122.597656 28.847656 L 129.808594 28.847656 L 129.808594 21.632812 L 115.382812 21.632812 L 115.382812 28.847656 L 122.597656 28.847656 " fill-opacity="1" fill-rule="nonzero"/><path fill="rgb(0%, 0%, 0%)" d="M 108.171875 173.078125 L 115.382812 173.078125 L 115.382812 165.867188 L 108.171875 165.867188 L 108.171875 173.078125 " fill-opacity="1" fill-rule="nonzero"/><path fill="rgb(0%, 0%, 0%)" d="M 108.171875 43.269531 L 108.171875 50.480469 L 115.382812 50.480469 L 115.382812 43.269531 L 108.171875 43.269531 " fill-opacity="1" fill-rule="nonzero"/><path fill="rgb(0%, 0%, 0%)" d="M 100.960938 173.078125 L 86.539062 173.078125 L 86.539062 180.289062 L 108.171875 180.289062 L 108.171875 173.078125 L 100.960938 173.078125 " fill-opacity="1" fill-rule="nonzero"/><path fill="rgb(0%, 0%, 0%)" d="M 100.960938 36.058594 L 100.960938 43.269531 L 108.171875 43.269531 L 108.171875 36.058594 L 100.960938 36.058594 " fill-opacity="1" fill-rule="nonzero"/><path fill="rgb(0%, 0%, 0%)" d="M 108.171875 21.632812 L 115.382812 21.632812 L 115.382812 14.421875 L 100.960938 14.421875 L 100.960938 21.632812 L 108.171875 21.632812 " fill-opacity="1" fill-rule="nonzero"/><path fill="rgb(0%, 0%, 0%)" d="M 100.960938 21.632812 L 93.75 21.632812 L 93.75 36.058594 L 100.960938 36.058594 L 100.960938 21.632812 " fill-opacity="1" fill-rule="nonzero"/><path fill="rgb(0%, 0%, 0%)" d="M 79.328125 165.867188 L 72.117188 165.867188 L 72.117188 173.078125 L 86.539062 173.078125 L 86.539062 165.867188 L 79.328125 165.867188 " fill-opacity="1" fill-rule="nonzero"/><path fill="rgb(0%, 0%, 0%)" d="M 86.539062 14.421875 L 100.960938 14.421875 L 100.960938 7.210938 L 79.328125 7.210938 L 79.328125 14.421875 L 86.539062 14.421875 " fill-opacity="1" fill-rule="nonzero"/><path fill="rgb(0%, 0%, 0%)" d="M 72.117188 21.632812 L 79.328125 21.632812 L 79.328125 14.421875 L 72.117188 14.421875 L 72.117188 21.632812 " fill-opacity="1" fill-rule="nonzero"/><path fill="rgb(0%, 0%, 0%)" d="M 64.902344 158.652344 L 57.691406 158.652344 L 57.691406 165.867188 L 72.117188 165.867188 L 72.117188 158.652344 L 64.902344 158.652344 " fill-opacity="1" fill-rule="nonzero"/><path fill="rgb(0%, 0%, 0%)" d="M 64.902344 28.847656 L 72.117188 28.847656 L 72.117188 21.632812 L 64.902344 21.632812 L 64.902344 28.847656 " fill-opacity="1" fill-rule="nonzero"/><path fill="rgb(0%, 0%, 0%)" d="M 57.691406 36.058594 L 64.902344 36.058594 L 64.902344 28.847656 L 57.691406 28.847656 L 57.691406 36.058594 " fill-opacity="1" fill-rule="nonzero"/><path fill="rgb(0%, 0%, 0%)" d="M 50.480469 151.441406 L 50.480469 158.652344 L 57.691406 158.652344 L 57.691406 151.441406 L 50.480469 151.441406 " fill-opacity="1" fill-rule="nonzero"/><path fill="rgb(0%, 0%, 0%)" d="M 50.480469 43.269531 L 57.691406 43.269531 L 57.691406 36.058594 L 50.480469 36.058594 L 50.480469 43.269531 " fill-opacity="1" fill-rule="nonzero"/><path fill="rgb(0%, 0%, 0%)" d="M 43.269531 144.230469 L 43.269531 151.441406 L 50.480469 151.441406 L 50.480469 144.230469 L 43.269531 144.230469 " fill-opacity="1" fill-rule="nonzero"/><path fill="rgb(0%, 0%, 0%)" d="M 43.269531 50.480469 L 50.480469 50.480469 L 50.480469 43.269531 L 43.269531 43.269531 L 43.269531 50.480469 " fill-opacity="1" fill-rule="nonzero"/><path fill="rgb(0%, 0%, 0%)" d="M 43.269531 21.632812 L 50.480469 21.632812 L 50.480469 14.421875 L 43.269531 14.421875 L 43.269531 21.632812 " fill-opacity="1" fill-rule="nonzero"/><path fill="rgb(0%, 0%, 0%)" d="M 36.058594 137.019531 L 36.058594 144.230469 L 43.269531 144.230469 L 43.269531 137.019531 L 36.058594 137.019531 " fill-opacity="1" fill-rule="nonzero"/><path fill="rgb(0%, 0%, 0%)" d="M 36.058594 57.691406 L 43.269531 57.691406 L 43.269531 50.480469 L 36.058594 50.480469 L 36.058594 57.691406 " fill-opacity="1" fill-rule="nonzero"/><path fill="rgb(0%, 0%, 0%)" d="M 36.058594 28.847656 L 43.269531 28.847656 L 43.269531 21.632812 L 36.058594 21.632812 L 36.058594 28.847656 " fill-opacity="1" fill-rule="nonzero"/><path fill="rgb(0%, 0%, 0%)" d="M 28.847656 129.808594 L 28.847656 137.019531 L 36.058594 137.019531 L 36.058594 129.808594 L 28.847656 129.808594 " fill-opacity="1" fill-rule="nonzero"/><path fill="rgb(0%, 0%, 0%)" d="M 28.847656 64.902344 L 36.058594 64.902344 L 36.058594 57.691406 L 28.847656 57.691406 L 28.847656 64.902344 " fill-opacity="1" fill-rule="nonzero"/><path fill="rgb(0%, 0%, 0%)" d="M 28.847656 36.058594 L 36.058594 36.058594 L 36.058594 28.847656 L 28.847656 28.847656 L 28.847656 36.058594 " fill-opacity="1" fill-rule="nonzero"/><path fill="rgb(0%, 0%, 0%)" d="M 21.632812 115.382812 L 21.632812 129.808594 L 28.847656 129.808594 L 28.847656 115.382812 L 21.632812 115.382812 " fill-opacity="1" fill-rule="nonzero"/><path fill="rgb(0%, 0%, 0%)" d="M 21.632812 72.117188 L 28.847656 72.117188 L 28.847656 64.902344 L 21.632812 64.902344 L 21.632812 72.117188 " fill-opacity="1" fill-rule="nonzero"/><path fill="rgb(0%, 0%, 0%)" d="M 21.632812 43.269531 L 28.847656 43.269531 L 28.847656 36.058594 L 21.632812 36.058594 L 21.632812 43.269531 " fill-opacity="1" fill-rule="nonzero"/><path fill="rgb(0%, 0%, 0%)" d="M 50.480469 7.210938 L 50.480469 14.421875 L 57.691406 14.421875 L 57.691406 7.210938 L 79.328125 7.210938 L 79.328125 0 L 14.421875 0 L 14.421875 7.210938 L 50.480469 7.210938 " fill-opacity="1" fill-rule="nonzero"/><path fill="rgb(0%, 0%, 0%)" d="M 14.421875 100.960938 L 14.421875 115.382812 L 21.632812 115.382812 L 21.632812 100.960938 L 14.421875 100.960938 " fill-opacity="1" fill-rule="nonzero"/><path fill="rgb(0%, 0%, 0%)" d="M 14.421875 79.328125 L 21.632812 79.328125 L 21.632812 72.117188 L 14.421875 72.117188 L 14.421875 79.328125 " fill-opacity="1" fill-rule="nonzero"/><path fill="rgb(0%, 0%, 0%)" d="M 14.421875 50.480469 L 21.632812 50.480469 L 21.632812 43.269531 L 14.421875 43.269531 L 14.421875 50.480469 " fill-opacity="1" fill-rule="nonzero"/><path fill="rgb(0%, 0%, 0%)" d="M 14.421875 79.328125 L 7.210938 79.328125 L 7.210938 100.960938 L 14.421875 100.960938 L 14.421875 79.328125 " fill-opacity="1" fill-rule="nonzero"/><path fill="rgb(0%, 0%, 0%)" d="M 14.421875 7.210938 L 7.210938 7.210938 L 7.210938 14.421875 L 14.421875 14.421875 L 14.421875 7.210938 " fill-opacity="1" fill-rule="nonzero"/><path fill="rgb(0%, 0%, 0%)" d="M 7.210938 57.691406 L 14.421875 57.691406 L 14.421875 50.480469 L 7.210938 50.480469 L 7.210938 14.421875 L 0 14.421875 L 0 79.328125 L 7.210938 79.328125 L 7.210938 57.691406 " fill-opacity="1" fill-rule="nonzero"/><path fill="rgb(54.508972%, 54.899597%, 55.288696%)" d="M 158.652344 86.539062 L 165.867188 86.539062 L 165.867188 72.117188 L 158.652344 72.117188 L 158.652344 57.691406 L 151.441406 57.691406 L 151.441406 50.480469 L 144.230469 50.480469 L 144.230469 43.269531 L 137.019531 43.269531 L 137.019531 36.058594 L 129.808594 36.058594 L 129.808594 28.847656 L 115.382812 28.847656 L 115.382812 21.632812 L 100.960938 21.632812 L 100.960938 36.058594 L 108.171875 36.058594 L 108.171875 43.269531 L 115.382812 43.269531 L 115.382812 50.480469 L 122.597656 50.480469 L 122.597656 57.691406 L 129.808594 57.691406 L 129.808594 64.902344 L 137.019531 64.902344 L 137.019531 72.117188 L 144.230469 72.117188 L 144.230469 79.328125 L 151.441406 79.328125 L 151.441406 86.539062 L 158.652344 86.539062 " fill-opacity="1" fill-rule="nonzero"/><path fill="rgb(54.508972%, 54.899597%, 55.288696%)" d="M 14.421875 72.117188 L 21.632812 72.117188 L 21.632812 64.902344 L 28.847656 64.902344 L 28.847656 57.691406 L 36.058594 57.691406 L 36.058594 50.480469 L 43.269531 50.480469 L 43.269531 43.269531 L 50.480469 43.269531 L 50.480469 36.058594 L 57.691406 36.058594 L 57.691406 28.847656 L 64.902344 28.847656 L 64.902344 21.632812 L 72.117188 21.632812 L 72.117188 14.421875 L 79.328125 14.421875 L 79.328125 7.210938 L 57.691406 7.210938 L 57.691406 14.421875 L 50.480469 14.421875 L 50.480469 21.632812 L 43.269531 21.632812 L 43.269531 28.847656 L 36.058594 28.847656 L 36.058594 36.058594 L 28.847656 36.058594 L 28.847656 43.269531 L 21.632812 43.269531 L 21.632812 50.480469 L 14.421875 50.480469 L 14.421875 57.691406 L 7.210938 57.691406 L 7.210938 79.328125 L 14.421875 79.328125 L 14.421875 72.117188 " fill-opacity="1" fill-rule="nonzero"/><path fill="rgb(54.508972%, 54.899597%, 55.288696%)" d="M 173.078125 115.382812 L 165.867188 115.382812 L 165.867188 122.597656 L 158.652344 122.597656 L 158.652344 129.808594 L 151.441406 129.808594 L 151.441406 137.019531 L 144.230469 137.019531 L 144.230469 144.230469 L 137.019531 144.230469 L 137.019531 151.441406 L 129.808594 151.441406 L 129.808594 158.652344 L 122.597656 158.652344 L 122.597656 165.867188 L 115.382812 165.867188 L 115.382812 173.078125 L 108.171875 173.078125 L 108.171875 180.289062 L 129.808594 180.289062 L 129.808594 173.078125 L 137.019531 173.078125 L 137.019531 165.867188 L 144.230469 165.867188 L 144.230469 158.652344 L 151.441406 158.652344 L 151.441406 151.441406 L 158.652344 151.441406 L 158.652344 144.230469 L 165.867188 144.230469 L 165.867188 137.019531 L 173.078125 137.019531 L 173.078125 129.808594 L 180.289062 129.808594 L 180.289062 108.171875 L 173.078125 108.171875 L 173.078125 115.382812 " fill-opacity="1" fill-rule="nonzero"/><path fill="rgb(73.329163%, 53.329468%, 27.839661%)" d="M 180.289062 137.019531 L 173.078125 137.019531 L 173.078125 173.078125 L 180.289062 173.078125 L 180.289062 137.019531 " fill-opacity="1" fill-rule="nonzero"/><path fill="rgb(67.449951%, 67.83905%, 68.238831%)" d="M 173.078125 129.808594 L 180.289062 129.808594 L 180.289062 122.597656 L 173.078125 122.597656 L 173.078125 129.808594 " fill-opacity="1" fill-rule="nonzero"/><path fill="rgb(37.649536%, 11.369324%, 7.449341%)" d="M 165.867188 173.078125 L 151.441406 173.078125 L 151.441406 165.867188 L 144.230469 165.867188 L 144.230469 173.078125 L 137.019531 173.078125 L 137.019531 180.289062 L 173.078125 180.289062 L 173.078125 173.078125 L 165.867188 173.078125 " fill-opacity="1" fill-rule="nonzero"/><path fill="rgb(55.288696%, 28.62854%, 16.468811%)" d="M 165.867188 158.652344 L 158.652344 158.652344 L 158.652344 165.867188 L 151.441406 165.867188 L 151.441406 173.078125 L 173.078125 173.078125 L 173.078125 151.441406 L 165.867188 151.441406 L 165.867188 158.652344 " fill-opacity="1" fill-rule="nonzero"/><path fill="rgb(37.649536%, 11.369324%, 7.449341%)" d="M 165.867188 151.441406 L 173.078125 151.441406 L 173.078125 144.230469 L 165.867188 144.230469 L 165.867188 151.441406 " fill-opacity="1" fill-rule="nonzero"/><path fill="rgb(67.449951%, 67.83905%, 68.238831%)" d="M 165.867188 137.019531 L 173.078125 137.019531 L 173.078125 129.808594 L 165.867188 129.808594 L 165.867188 137.019531 " fill-opacity="1" fill-rule="nonzero"/><path fill="rgb(73.329163%, 53.329468%, 27.839661%)" d="M 165.867188 93.75 L 165.867188 108.171875 L 173.078125 108.171875 L 173.078125 86.539062 L 165.867188 86.539062 L 165.867188 93.75 " fill-opacity="1" fill-rule="nonzero"/><path fill="rgb(37.649536%, 11.369324%, 7.449341%)" d="M 158.652344 158.652344 L 165.867188 158.652344 L 165.867188 151.441406 L 158.652344 151.441406 L 158.652344 158.652344 " fill-opacity="1" fill-rule="nonzero"/><path fill="rgb(67.449951%, 67.83905%, 68.238831%)" d="M 165.867188 137.019531 L 158.652344 137.019531 L 158.652344 144.230469 L 165.867188 144.230469 L 165.867188 137.019531 " fill-opacity="1" fill-rule="nonzero"/><path fill="rgb(37.649536%, 11.369324%, 7.449341%)" d="M 158.652344 115.382812 L 165.867188 115.382812 L 165.867188 108.171875 L 158.652344 108.171875 L 158.652344 115.382812 " fill-opacity="1" fill-rule="nonzero"/><path fill="rgb(55.288696%, 28.62854%, 16.468811%)" d="M 158.652344 108.171875 L 165.867188 108.171875 L 165.867188 100.960938 L 158.652344 100.960938 L 158.652344 108.171875 " fill-opacity="1" fill-rule="nonzero"/><path fill="rgb(37.649536%, 11.369324%, 7.449341%)" d="M 158.652344 158.652344 L 151.441406 158.652344 L 151.441406 165.867188 L 158.652344 165.867188 L 158.652344 158.652344 " fill-opacity="1" fill-rule="nonzero"/><path fill="rgb(67.449951%, 67.83905%, 68.238831%)" d="M 158.652344 144.230469 L 151.441406 144.230469 L 151.441406 151.441406 L 158.652344 151.441406 L 158.652344 144.230469 " fill-opacity="1" fill-rule="nonzero"/><path fill="rgb(73.329163%, 53.329468%, 27.839661%)" d="M 158.652344 108.171875 L 151.441406 108.171875 L 151.441406 122.597656 L 158.652344 122.597656 L 158.652344 108.171875 " fill-opacity="1" fill-rule="nonzero"/><path fill="rgb(37.649536%, 11.369324%, 7.449341%)" d="M 151.441406 108.171875 L 158.652344 108.171875 L 158.652344 100.960938 L 165.867188 100.960938 L 165.867188 93.75 L 151.441406 93.75 L 151.441406 108.171875 " fill-opacity="1" fill-rule="nonzero"/><path fill="rgb(67.449951%, 67.83905%, 68.238831%)" d="M 151.441406 79.328125 L 158.652344 79.328125 L 158.652344 72.117188 L 151.441406 72.117188 L 151.441406 79.328125 " fill-opacity="1" fill-rule="nonzero"/><path fill="rgb(67.449951%, 67.83905%, 68.238831%)" d="M 151.441406 151.441406 L 144.230469 151.441406 L 144.230469 158.652344 L 151.441406 158.652344 L 151.441406 151.441406 " fill-opacity="1" fill-rule="nonzero"/><path fill="rgb(73.329163%, 53.329468%, 27.839661%)" d="M 144.230469 93.75 L 144.230469 108.171875 L 151.441406 108.171875 L 151.441406 93.75 L 144.230469 93.75 " fill-opacity="1" fill-rule="nonzero"/><path fill="rgb(37.649536%, 11.369324%, 7.449341%)" d="M 151.441406 86.539062 L 144.230469 86.539062 L 144.230469 93.75 L 151.441406 93.75 L 151.441406 86.539062 " fill-opacity="1" fill-rule="nonzero"/><path fill="rgb(67.449951%, 67.83905%, 68.238831%)" d="M 144.230469 72.117188 L 151.441406 72.117188 L 151.441406 64.902344 L 144.230469 64.902344 L 144.230469 72.117188 " fill-opacity="1" fill-rule="nonzero"/><path fill="rgb(67.449951%, 67.83905%, 68.238831%)" d="M 137.019531 158.652344 L 137.019531 165.867188 L 144.230469 165.867188 L 144.230469 158.652344 L 137.019531 158.652344 " fill-opacity="1" fill-rule="nonzero"/><path fill="rgb(73.329163%, 53.329468%, 27.839661%)" d="M 137.019531 86.539062 L 137.019531 93.75 L 144.230469 93.75 L 144.230469 86.539062 L 137.019531 86.539062 " fill-opacity="1" fill-rule="nonzero"/><path fill="rgb(37.649536%, 11.369324%, 7.449341%)" d="M 144.230469 79.328125 L 137.019531 79.328125 L 137.019531 86.539062 L 144.230469 86.539062 L 144.230469 79.328125 " fill-opacity="1" fill-rule="nonzero"/><path fill="rgb(67.449951%, 67.83905%, 68.238831%)" d="M 137.019531 64.902344 L 144.230469 64.902344 L 144.230469 57.691406 L 137.019531 57.691406 L 137.019531 64.902344 " fill-opacity="1" fill-rule="nonzero"/><path fill="rgb(73.329163%, 53.329468%, 27.839661%)" d="M 129.808594 79.328125 L 129.808594 86.539062 L 137.019531 86.539062 L 137.019531 79.328125 L 129.808594 79.328125 " fill-opacity="1" fill-rule="nonzero"/><path fill="rgb(37.649536%, 11.369324%, 7.449341%)" d="M 137.019531 72.117188 L 129.808594 72.117188 L 129.808594 79.328125 L 137.019531 79.328125 L 137.019531 72.117188 " fill-opacity="1" fill-rule="nonzero"/><path fill="rgb(67.449951%, 67.83905%, 68.238831%)" d="M 129.808594 57.691406 L 137.019531 57.691406 L 137.019531 50.480469 L 129.808594 50.480469 L 129.808594 57.691406 " fill-opacity="1" fill-rule="nonzero"/><path fill="rgb(73.329163%, 53.329468%, 27.839661%)" d="M 122.597656 72.117188 L 122.597656 79.328125 L 129.808594 79.328125 L 129.808594 72.117188 L 122.597656 72.117188 " fill-opacity="1" fill-rule="nonzero"/><path fill="rgb(37.649536%, 11.369324%, 7.449341%)" d="M 129.808594 64.902344 L 122.597656 64.902344 L 122.597656 72.117188 L 129.808594 72.117188 L 129.808594 64.902344 " fill-opacity="1" fill-rule="nonzero"/><path fill="rgb(67.449951%, 67.83905%, 68.238831%)" d="M 122.597656 50.480469 L 129.808594 50.480469 L 129.808594 43.269531 L 122.597656 43.269531 L 122.597656 50.480469 " fill-opacity="1" fill-rule="nonzero"/><path fill="rgb(67.449951%, 67.83905%, 68.238831%)" d="M 129.808594 180.289062 L 129.808594 173.078125 L 137.019531 173.078125 L 137.019531 165.867188 L 115.382812 165.867188 L 115.382812 173.078125 L 108.171875 173.078125 L 108.171875 180.289062 L 129.808594 180.289062 " fill-opacity="1" fill-rule="nonzero"/><path fill="rgb(55.288696%, 28.62854%, 16.468811%)" d="M 122.597656 151.441406 L 129.808594 151.441406 L 129.808594 144.230469 L 137.019531 144.230469 L 137.019531 137.019531 L 144.230469 137.019531 L 144.230469 129.808594 L 151.441406 129.808594 L 151.441406 108.171875 L 144.230469 108.171875 L 144.230469 93.75 L 137.019531 93.75 L 137.019531 86.539062 L 129.808594 86.539062 L 129.808594 79.328125 L 122.597656 79.328125 L 122.597656 72.117188 L 115.382812 72.117188 L 115.382812 64.902344 L 108.171875 64.902344 L 108.171875 57.691406 L 100.960938 57.691406 L 100.960938 50.480469 L 93.75 50.480469 L 93.75 43.269531 L 79.328125 43.269531 L 79.328125 36.058594 L 57.691406 36.058594 L 57.691406 43.269531 L 50.480469 43.269531 L 50.480469 50.480469 L 43.269531 50.480469 L 43.269531 57.691406 L 36.058594 57.691406 L 36.058594 64.902344 L 28.847656 64.902344 L 28.847656 79.328125 L 36.058594 79.328125 L 36.058594 93.75 L 43.269531 93.75 L 43.269531 108.171875 L 50.480469 108.171875 L 50.480469 115.382812 L 57.691406 115.382812 L 57.691406 122.597656 L 64.902344 122.597656 L 64.902344 129.808594 L 72.117188 129.808594 L 72.117188 137.019531 L 79.328125 137.019531 L 79.328125 144.230469 L 93.75 144.230469 L 93.75 151.441406 L 108.171875 151.441406 L 108.171875 158.652344 L 122.597656 158.652344 L 122.597656 151.441406 " fill-opacity="1" fill-rule="nonzero"/><path fill="rgb(73.329163%, 53.329468%, 27.839661%)" d="M 115.382812 64.902344 L 115.382812 72.117188 L 122.597656 72.117188 L 122.597656 64.902344 L 115.382812 64.902344 " fill-opacity="1" fill-rule="nonzero"/><path fill="rgb(37.649536%, 11.369324%, 7.449341%)" d="M 122.597656 57.691406 L 115.382812 57.691406 L 115.382812 64.902344 L 122.597656 64.902344 L 122.597656 57.691406 " fill-opacity="1" fill-rule="nonzero"/><path fill="rgb(67.449951%, 67.83905%, 68.238831%)" d="M 115.382812 43.269531 L 122.597656 43.269531 L 122.597656 36.058594 L 115.382812 36.058594 L 115.382812 43.269531 " fill-opacity="1" fill-rule="nonzero"/><path fill="rgb(73.329163%, 53.329468%, 27.839661%)" d="M 108.171875 57.691406 L 108.171875 64.902344 L 115.382812 64.902344 L 115.382812 57.691406 L 108.171875 57.691406 " fill-opacity="1" fill-rule="nonzero"/><path fill="rgb(37.649536%, 11.369324%, 7.449341%)" d="M 115.382812 50.480469 L 108.171875 50.480469 L 108.171875 57.691406 L 115.382812 57.691406 L 115.382812 50.480469 " fill-opacity="1" fill-rule="nonzero"/><path fill="rgb(67.449951%, 67.83905%, 68.238831%)" d="M 115.382812 36.058594 L 115.382812 28.847656 L 108.171875 28.847656 L 108.171875 36.058594 L 115.382812 36.058594 " fill-opacity="1" fill-rule="nonzero"/><path fill="rgb(73.329163%, 53.329468%, 27.839661%)" d="M 100.960938 50.480469 L 100.960938 57.691406 L 108.171875 57.691406 L 108.171875 50.480469 L 100.960938 50.480469 " fill-opacity="1" fill-rule="nonzero"/><path fill="rgb(37.649536%, 11.369324%, 7.449341%)" d="M 108.171875 43.269531 L 100.960938 43.269531 L 100.960938 50.480469 L 108.171875 50.480469 L 108.171875 43.269531 " fill-opacity="1" fill-rule="nonzero"/><path fill="rgb(37.649536%, 11.369324%, 7.449341%)" d="M 108.171875 173.078125 L 108.171875 165.867188 L 115.382812 165.867188 L 115.382812 158.652344 L 108.171875 158.652344 L 108.171875 151.441406 L 93.75 151.441406 L 93.75 144.230469 L 79.328125 144.230469 L 79.328125 137.019531 L 72.117188 137.019531 L 72.117188 129.808594 L 64.902344 129.808594 L 64.902344 122.597656 L 57.691406 122.597656 L 57.691406 115.382812 L 50.480469 115.382812 L 50.480469 108.171875 L 43.269531 108.171875 L 43.269531 93.75 L 36.058594 93.75 L 36.058594 79.328125 L 28.847656 79.328125 L 28.847656 72.117188 L 21.632812 72.117188 L 21.632812 79.328125 L 14.421875 79.328125 L 14.421875 100.960938 L 21.632812 100.960938 L 21.632812 115.382812 L 28.847656 115.382812 L 28.847656 129.808594 L 36.058594 129.808594 L 36.058594 137.019531 L 43.269531 137.019531 L 43.269531 144.230469 L 50.480469 144.230469 L 50.480469 151.441406 L 57.691406 151.441406 L 57.691406 158.652344 L 72.117188 158.652344 L 72.117188 165.867188 L 86.539062 165.867188 L 86.539062 173.078125 L 108.171875 173.078125 " fill-opacity="1" fill-rule="nonzero"/><path fill="rgb(73.329163%, 53.329468%, 27.839661%)" d="M 93.75 43.269531 L 93.75 50.480469 L 100.960938 50.480469 L 100.960938 43.269531 L 93.75 43.269531 " fill-opacity="1" fill-rule="nonzero"/><path fill="rgb(37.649536%, 11.369324%, 7.449341%)" d="M 100.960938 36.058594 L 93.75 36.058594 L 93.75 43.269531 L 100.960938 43.269531 L 100.960938 36.058594 " fill-opacity="1" fill-rule="nonzero"/><path fill="rgb(73.329163%, 53.329468%, 27.839661%)" d="M 86.539062 36.058594 L 79.328125 36.058594 L 79.328125 43.269531 L 93.75 43.269531 L 93.75 36.058594 L 86.539062 36.058594 " fill-opacity="1" fill-rule="nonzero"/><path fill="rgb(37.649536%, 11.369324%, 7.449341%)" d="M 93.75 36.058594 L 93.75 28.847656 L 79.328125 28.847656 L 79.328125 36.058594 L 93.75 36.058594 " fill-opacity="1" fill-rule="nonzero"/><path fill="rgb(73.329163%, 53.329468%, 27.839661%)" d="M 79.328125 14.421875 L 79.328125 21.632812 L 100.960938 21.632812 L 100.960938 14.421875 L 79.328125 14.421875 " fill-opacity="1" fill-rule="nonzero"/><path fill="rgb(55.288696%, 28.62854%, 16.468811%)" d="M 86.539062 28.847656 L 93.75 28.847656 L 93.75 21.632812 L 79.328125 21.632812 L 79.328125 28.847656 L 86.539062 28.847656 " fill-opacity="1" fill-rule="nonzero"/><path fill="rgb(73.329163%, 53.329468%, 27.839661%)" d="M 72.117188 28.847656 L 64.902344 28.847656 L 64.902344 36.058594 L 79.328125 36.058594 L 79.328125 28.847656 L 72.117188 28.847656 " fill-opacity="1" fill-rule="nonzero"/><path fill="rgb(37.649536%, 11.369324%, 7.449341%)" d="M 72.117188 28.847656 L 79.328125 28.847656 L 79.328125 21.632812 L 72.117188 21.632812 L 72.117188 28.847656 " fill-opacity="1" fill-rule="nonzero"/><path fill="rgb(67.449951%, 67.83905%, 68.238831%)" d="M 72.117188 14.421875 L 79.328125 14.421875 L 79.328125 7.210938 L 72.117188 7.210938 L 72.117188 14.421875 " fill-opacity="1" fill-rule="nonzero"/><path fill="rgb(67.449951%, 67.83905%, 68.238831%)" d="M 64.902344 21.632812 L 72.117188 21.632812 L 72.117188 14.421875 L 64.902344 14.421875 L 64.902344 21.632812 " fill-opacity="1" fill-rule="nonzero"/><path fill="rgb(67.449951%, 67.83905%, 68.238831%)" d="M 64.902344 21.632812 L 57.691406 21.632812 L 57.691406 28.847656 L 64.902344 28.847656 L 64.902344 21.632812 " fill-opacity="1" fill-rule="nonzero"/><path fill="rgb(67.449951%, 67.83905%, 68.238831%)" d="M 50.480469 28.847656 L 50.480469 36.058594 L 57.691406 36.058594 L 57.691406 28.847656 L 50.480469 28.847656 " fill-opacity="1" fill-rule="nonzero"/><path fill="rgb(67.449951%, 67.83905%, 68.238831%)" d="M 43.269531 36.058594 L 43.269531 43.269531 L 50.480469 43.269531 L 50.480469 36.058594 L 43.269531 36.058594 " fill-opacity="1" fill-rule="nonzero"/><path fill="rgb(67.449951%, 67.83905%, 68.238831%)" d="M 36.058594 43.269531 L 36.058594 50.480469 L 43.269531 50.480469 L 43.269531 43.269531 L 36.058594 43.269531 " fill-opacity="1" fill-rule="nonzero"/><path fill="rgb(67.449951%, 67.83905%, 68.238831%)" d="M 36.058594 50.480469 L 28.847656 50.480469 L 28.847656 57.691406 L 36.058594 57.691406 L 36.058594 50.480469 " fill-opacity="1" fill-rule="nonzero"/><path fill="rgb(55.288696%, 28.62854%, 16.468811%)" d="M 28.847656 28.847656 L 36.058594 28.847656 L 36.058594 21.632812 L 28.847656 21.632812 L 28.847656 14.421875 L 14.421875 14.421875 L 14.421875 36.058594 L 28.847656 36.058594 L 28.847656 28.847656 " fill-opacity="1" fill-rule="nonzero"/><path fill="rgb(73.329163%, 53.329468%, 27.839661%)" d="M 21.632812 14.421875 L 28.847656 14.421875 L 28.847656 21.632812 L 43.269531 21.632812 L 43.269531 14.421875 L 50.480469 14.421875 L 50.480469 7.210938 L 14.421875 7.210938 L 14.421875 14.421875 L 21.632812 14.421875 " fill-opacity="1" fill-rule="nonzero"/><path fill="rgb(67.449951%, 67.83905%, 68.238831%)" d="M 14.421875 72.117188 L 21.632812 72.117188 L 21.632812 64.902344 L 28.847656 64.902344 L 28.847656 57.691406 L 21.632812 57.691406 L 21.632812 50.480469 L 14.421875 50.480469 L 14.421875 57.691406 L 7.210938 57.691406 L 7.210938 79.328125 L 14.421875 79.328125 L 14.421875 72.117188 " fill-opacity="1" fill-rule="nonzero"/><path fill="rgb(37.649536%, 11.369324%, 7.449341%)" d="M 7.210938 50.480469 L 14.421875 50.480469 L 14.421875 43.269531 L 21.632812 43.269531 L 21.632812 36.058594 L 14.421875 36.058594 L 14.421875 14.421875 L 7.210938 14.421875 L 7.210938 50.480469 " fill-opacity="1" fill-rule="nonzero"/><path fill="rgb(46.669006%, 47.059631%, 47.44873%)" d="M 151.441406 79.328125 L 151.441406 86.539062 L 158.652344 86.539062 L 158.652344 79.328125 L 151.441406 79.328125 " fill-opacity="1" fill-rule="nonzero"/><path fill="rgb(46.669006%, 47.059631%, 47.44873%)" d="M 144.230469 72.117188 L 144.230469 79.328125 L 151.441406 79.328125 L 151.441406 72.117188 L 144.230469 72.117188 " fill-opacity="1" fill-rule="nonzero"/><path fill="rgb(46.669006%, 47.059631%, 47.44873%)" d="M 151.441406 64.902344 L 151.441406 57.691406 L 144.230469 57.691406 L 144.230469 64.902344 L 151.441406 64.902344 " fill-opacity="1" fill-rule="nonzero"/><path fill="rgb(46.669006%, 47.059631%, 47.44873%)" d="M 137.019531 64.902344 L 137.019531 72.117188 L 144.230469 72.117188 L 144.230469 64.902344 L 137.019531 64.902344 " fill-opacity="1" fill-rule="nonzero"/><path fill="rgb(46.669006%, 47.059631%, 47.44873%)" d="M 144.230469 57.691406 L 144.230469 50.480469 L 137.019531 50.480469 L 137.019531 57.691406 L 144.230469 57.691406 " fill-opacity="1" fill-rule="nonzero"/><path fill="rgb(46.669006%, 47.059631%, 47.44873%)" d="M 129.808594 57.691406 L 129.808594 64.902344 L 137.019531 64.902344 L 137.019531 57.691406 L 129.808594 57.691406 " fill-opacity="1" fill-rule="nonzero"/><path fill="rgb(46.669006%, 47.059631%, 47.44873%)" d="M 137.019531 50.480469 L 137.019531 43.269531 L 129.808594 43.269531 L 129.808594 50.480469 L 137.019531 50.480469 " fill-opacity="1" fill-rule="nonzero"/><path fill="rgb(46.669006%, 47.059631%, 47.44873%)" d="M 122.597656 50.480469 L 122.597656 57.691406 L 129.808594 57.691406 L 129.808594 50.480469 L 122.597656 50.480469 " fill-opacity="1" fill-rule="nonzero"/><path fill="rgb(46.669006%, 47.059631%, 47.44873%)" d="M 129.808594 36.058594 L 122.597656 36.058594 L 122.597656 43.269531 L 129.808594 43.269531 L 129.808594 36.058594 " fill-opacity="1" fill-rule="nonzero"/><path fill="rgb(46.669006%, 47.059631%, 47.44873%)" d="M 115.382812 43.269531 L 115.382812 50.480469 L 122.597656 50.480469 L 122.597656 43.269531 L 115.382812 43.269531 " fill-opacity="1" fill-rule="nonzero"/><path fill="rgb(46.669006%, 47.059631%, 47.44873%)" d="M 108.171875 36.058594 L 108.171875 43.269531 L 115.382812 43.269531 L 115.382812 36.058594 L 108.171875 36.058594 " fill-opacity="1" fill-rule="nonzero"/><path fill="rgb(46.669006%, 47.059631%, 47.44873%)" d="M 100.960938 28.847656 L 100.960938 36.058594 L 108.171875 36.058594 L 108.171875 28.847656 L 100.960938 28.847656 " fill-opacity="1" fill-rule="nonzero"/><path fill="rgb(85.099792%, 85.099792%, 85.099792%)" d="M 173.078125 115.382812 L 165.867188 115.382812 L 165.867188 122.597656 L 158.652344 122.597656 L 158.652344 129.808594 L 151.441406 129.808594 L 151.441406 137.019531 L 144.230469 137.019531 L 144.230469 144.230469 L 137.019531 144.230469 L 137.019531 151.441406 L 129.808594 151.441406 L 129.808594 158.652344 L 122.597656 158.652344 L 122.597656 165.867188 L 137.019531 165.867188 L 137.019531 158.652344 L 144.230469 158.652344 L 144.230469 151.441406 L 151.441406 151.441406 L 151.441406 144.230469 L 158.652344 144.230469 L 158.652344 137.019531 L 165.867188 137.019531 L 165.867188 129.808594 L 173.078125 129.808594 L 173.078125 122.597656 L 180.289062 122.597656 L 180.289062 108.171875 L 173.078125 108.171875 L 173.078125 115.382812 " fill-opacity="1" fill-rule="nonzero"/><path fill="rgb(85.099792%, 85.099792%, 85.099792%)" d="M 158.652344 86.539062 L 165.867188 86.539062 L 165.867188 72.117188 L 158.652344 72.117188 L 158.652344 86.539062 " fill-opacity="1" fill-rule="nonzero"/><path fill="rgb(85.099792%, 85.099792%, 85.099792%)" d="M 158.652344 57.691406 L 151.441406 57.691406 L 151.441406 72.117188 L 158.652344 72.117188 L 158.652344 57.691406 " fill-opacity="1" fill-rule="nonzero"/><path fill="rgb(85.099792%, 85.099792%, 85.099792%)" d="M 144.230469 50.480469 L 144.230469 57.691406 L 151.441406 57.691406 L 151.441406 50.480469 L 144.230469 50.480469 " fill-opacity="1" fill-rule="nonzero"/><path fill="rgb(85.099792%, 85.099792%, 85.099792%)" d="M 137.019531 43.269531 L 137.019531 50.480469 L 144.230469 50.480469 L 144.230469 43.269531 L 137.019531 43.269531 " fill-opacity="1" fill-rule="nonzero"/><path fill="rgb(85.099792%, 85.099792%, 85.099792%)" d="M 129.808594 36.058594 L 129.808594 43.269531 L 137.019531 43.269531 L 137.019531 36.058594 L 129.808594 36.058594 " fill-opacity="1" fill-rule="nonzero"/><path fill="rgb(85.099792%, 85.099792%, 85.099792%)" d="M 122.597656 28.847656 L 115.382812 28.847656 L 115.382812 36.058594 L 129.808594 36.058594 L 129.808594 28.847656 L 122.597656 28.847656 " fill-opacity="1" fill-rule="nonzero"/><path fill="rgb(85.099792%, 85.099792%, 85.099792%)" d="M 108.171875 21.632812 L 100.960938 21.632812 L 100.960938 28.847656 L 115.382812 28.847656 L 115.382812 21.632812 L 108.171875 21.632812 " fill-opacity="1" fill-rule="nonzero"/><path fill="rgb(85.099792%, 85.099792%, 85.099792%)" d="M 28.847656 50.480469 L 36.058594 50.480469 L 36.058594 43.269531 L 43.269531 43.269531 L 43.269531 36.058594 L 50.480469 36.058594 L 50.480469 28.847656 L 57.691406 28.847656 L 57.691406 21.632812 L 64.902344 21.632812 L 64.902344 14.421875 L 72.117188 14.421875 L 72.117188 7.210938 L 57.691406 7.210938 L 57.691406 14.421875 L 50.480469 14.421875 L 50.480469 21.632812 L 43.269531 21.632812 L 43.269531 28.847656 L 36.058594 28.847656 L 36.058594 36.058594 L 28.847656 36.058594 L 28.847656 43.269531 L 21.632812 43.269531 L 21.632812 57.691406 L 28.847656 57.691406 L 28.847656 50.480469 " fill-opacity="1" fill-rule="nonzero"/><g clip-path="url(#id3)"><path fill="rgb(0%, 0%, 0%)" d="M 180.289062 122.597656 L 180.289062 129.808594 L 173.078125 129.808594 L 173.078125 137.019531 L 180.289062 137.019531 L 180.289062 173.078125 L 187.5 173.078125 L 187.5 108.171875 L 180.289062 108.171875 L 180.289062 122.597656 " fill-opacity="1" fill-rule="nonzero"/></g><path fill="rgb(0%, 0%, 0%)" d="M 173.078125 180.289062 L 180.289062 180.289062 L 180.289062 173.078125 L 173.078125 173.078125 L 173.078125 180.289062 " fill-opacity="1" fill-rule="nonzero"/><path fill="rgb(0%, 0%, 0%)" d="M 173.078125 108.171875 L 180.289062 108.171875 L 180.289062 86.539062 L 173.078125 86.539062 L 173.078125 108.171875 " fill-opacity="1" fill-rule="nonzero"/><path fill="rgb(0%, 0%, 0%)" d="M 165.867188 144.230469 L 173.078125 144.230469 L 173.078125 137.019531 L 165.867188 137.019531 L 165.867188 144.230469 " fill-opacity="1" fill-rule="nonzero"/><path fill="rgb(0%, 0%, 0%)" d="M 165.867188 115.382812 L 173.078125 115.382812 L 173.078125 108.171875 L 165.867188 108.171875 L 165.867188 115.382812 " fill-opacity="1" fill-rule="nonzero"/><path fill="rgb(0%, 0%, 0%)" d="M 165.867188 86.539062 L 173.078125 86.539062 L 173.078125 72.117188 L 165.867188 72.117188 L 165.867188 86.539062 " fill-opacity="1" fill-rule="nonzero"/><g clip-path="url(#id4)"><path fill="rgb(0%, 0%, 0%)" d="M 137.019531 180.289062 L 137.019531 173.078125 L 129.808594 173.078125 L 129.808594 180.289062 L 108.171875 180.289062 L 108.171875 187.5 L 173.078125 187.5 L 173.078125 180.289062 L 137.019531 180.289062 " fill-opacity="1" fill-rule="nonzero"/></g><path fill="rgb(0%, 0%, 0%)" d="M 158.652344 151.441406 L 165.867188 151.441406 L 165.867188 144.230469 L 158.652344 144.230469 L 158.652344 151.441406 " fill-opacity="1" fill-rule="nonzero"/><path fill="rgb(0%, 0%, 0%)" d="M 158.652344 122.597656 L 165.867188 122.597656 L 165.867188 115.382812 L 158.652344 115.382812 L 158.652344 122.597656 " fill-opacity="1" fill-rule="nonzero"/><path fill="rgb(0%, 0%, 0%)" d="M 158.652344 72.117188 L 165.867188 72.117188 L 165.867188 57.691406 L 158.652344 57.691406 L 158.652344 72.117188 " fill-opacity="1" fill-rule="nonzero"/><path fill="rgb(0%, 0%, 0%)" d="M 151.441406 158.652344 L 158.652344 158.652344 L 158.652344 151.441406 L 151.441406 151.441406 L 151.441406 158.652344 " fill-opacity="1" fill-rule="nonzero"/><path fill="rgb(0%, 0%, 0%)" d="M 151.441406 129.808594 L 158.652344 129.808594 L 158.652344 122.597656 L 151.441406 122.597656 L 151.441406 129.808594 " fill-opacity="1" fill-rule="nonzero"/><path fill="rgb(0%, 0%, 0%)" d="M 151.441406 86.539062 L 151.441406 93.75 L 165.867188 93.75 L 165.867188 86.539062 L 151.441406 86.539062 " fill-opacity="1" fill-rule="nonzero"/><path fill="rgb(0%, 0%, 0%)" d="M 158.652344 57.691406 L 158.652344 50.480469 L 151.441406 50.480469 L 151.441406 57.691406 L 158.652344 57.691406 " fill-opacity="1" fill-rule="nonzero"/><path fill="rgb(0%, 0%, 0%)" d="M 144.230469 165.867188 L 151.441406 165.867188 L 151.441406 158.652344 L 144.230469 158.652344 L 144.230469 165.867188 " fill-opacity="1" fill-rule="nonzero"/><path fill="rgb(0%, 0%, 0%)" d="M 144.230469 137.019531 L 151.441406 137.019531 L 151.441406 129.808594 L 144.230469 129.808594 L 144.230469 137.019531 " fill-opacity="1" fill-rule="nonzero"/><path fill="rgb(0%, 0%, 0%)" d="M 144.230469 79.328125 L 144.230469 86.539062 L 151.441406 86.539062 L 151.441406 79.328125 L 144.230469 79.328125 " fill-opacity="1" fill-rule="nonzero"/><path fill="rgb(0%, 0%, 0%)" d="M 151.441406 50.480469 L 151.441406 43.269531 L 144.230469 43.269531 L 144.230469 50.480469 L 151.441406 50.480469 " fill-opacity="1" fill-rule="nonzero"/><path fill="rgb(0%, 0%, 0%)" d="M 137.019531 173.078125 L 144.230469 173.078125 L 144.230469 165.867188 L 137.019531 165.867188 L 137.019531 173.078125 " fill-opacity="1" fill-rule="nonzero"/><path fill="rgb(0%, 0%, 0%)" d="M 137.019531 144.230469 L 144.230469 144.230469 L 144.230469 137.019531 L 137.019531 137.019531 L 137.019531 144.230469 " fill-opacity="1" fill-rule="nonzero"/><path fill="rgb(0%, 0%, 0%)" d="M 137.019531 72.117188 L 137.019531 79.328125 L 144.230469 79.328125 L 144.230469 72.117188 L 137.019531 72.117188 " fill-opacity="1" fill-rule="nonzero"/><path fill="rgb(0%, 0%, 0%)" d="M 144.230469 43.269531 L 144.230469 36.058594 L 137.019531 36.058594 L 137.019531 43.269531 L 144.230469 43.269531 " fill-opacity="1" fill-rule="nonzero"/><path fill="rgb(0%, 0%, 0%)" d="M 129.808594 151.441406 L 137.019531 151.441406 L 137.019531 144.230469 L 129.808594 144.230469 L 129.808594 151.441406 " fill-opacity="1" fill-rule="nonzero"/><path fill="rgb(0%, 0%, 0%)" d="M 129.808594 64.902344 L 129.808594 72.117188 L 137.019531 72.117188 L 137.019531 64.902344 L 129.808594 64.902344 " fill-opacity="1" fill-rule="nonzero"/><path fill="rgb(0%, 0%, 0%)" d="M 137.019531 36.058594 L 137.019531 28.847656 L 129.808594 28.847656 L 129.808594 36.058594 L 137.019531 36.058594 " fill-opacity="1" fill-rule="nonzero"/><path fill="rgb(0%, 0%, 0%)" d="M 122.597656 158.652344 L 129.808594 158.652344 L 129.808594 151.441406 L 122.597656 151.441406 L 122.597656 158.652344 " fill-opacity="1" fill-rule="nonzero"/><path fill="rgb(0%, 0%, 0%)" d="M 122.597656 57.691406 L 122.597656 64.902344 L 129.808594 64.902344 L 129.808594 57.691406 L 122.597656 57.691406 " fill-opacity="1" fill-rule="nonzero"/><path fill="rgb(0%, 0%, 0%)" d="M 115.382812 165.867188 L 122.597656 165.867188 L 122.597656 158.652344 L 115.382812 158.652344 L 115.382812 165.867188 " fill-opacity="1" fill-rule="nonzero"/><path fill="rgb(0%, 0%, 0%)" d="M 115.382812 50.480469 L 115.382812 57.691406 L 122.597656 57.691406 L 122.597656 50.480469 L 115.382812 50.480469 " fill-opacity="1" fill-rule="nonzero"/><path fill="rgb(0%, 0%, 0%)" d="M 122.597656 28.847656 L 129.808594 28.847656 L 129.808594 21.632812 L 115.382812 21.632812 L 115.382812 28.847656 L 122.597656 28.847656 " fill-opacity="1" fill-rule="nonzero"/><path fill="rgb(0%, 0%, 0%)" d="M 108.171875 173.078125 L 115.382812 173.078125 L 115.382812 165.867188 L 108.171875 165.867188 L 108.171875 173.078125 " fill-opacity="1" fill-rule="nonzero"/><path fill="rgb(0%, 0%, 0%)" d="M 108.171875 43.269531 L 108.171875 50.480469 L 115.382812 50.480469 L 115.382812 43.269531 L 108.171875 43.269531 " fill-opacity="1" fill-rule="nonzero"/><path fill="rgb(0%, 0%, 0%)" d="M 100.960938 173.078125 L 86.539062 173.078125 L 86.539062 180.289062 L 108.171875 180.289062 L 108.171875 173.078125 L 100.960938 173.078125 " fill-opacity="1" fill-rule="nonzero"/><path fill="rgb(0%, 0%, 0%)" d="M 100.960938 36.058594 L 100.960938 43.269531 L 108.171875 43.269531 L 108.171875 36.058594 L 100.960938 36.058594 " fill-opacity="1" fill-rule="nonzero"/><path fill="rgb(0%, 0%, 0%)" d="M 108.171875 21.632812 L 115.382812 21.632812 L 115.382812 14.421875 L 100.960938 14.421875 L 100.960938 21.632812 L 108.171875 21.632812 " fill-opacity="1" fill-rule="nonzero"/><path fill="rgb(0%, 0%, 0%)" d="M 100.960938 21.632812 L 93.75 21.632812 L 93.75 36.058594 L 100.960938 36.058594 L 100.960938 21.632812 " fill-opacity="1" fill-rule="nonzero"/><path fill="rgb(0%, 0%, 0%)" d="M 79.328125 165.867188 L 72.117188 165.867188 L 72.117188 173.078125 L 86.539062 173.078125 L 86.539062 165.867188 L 79.328125 165.867188 " fill-opacity="1" fill-rule="nonzero"/><path fill="rgb(0%, 0%, 0%)" d="M 86.539062 14.421875 L 100.960938 14.421875 L 100.960938 7.210938 L 79.328125 7.210938 L 79.328125 14.421875 L 86.539062 14.421875 " fill-opacity="1" fill-rule="nonzero"/><path fill="rgb(0%, 0%, 0%)" d="M 72.117188 21.632812 L 79.328125 21.632812 L 79.328125 14.421875 L 72.117188 14.421875 L 72.117188 21.632812 " fill-opacity="1" fill-rule="nonzero"/><path fill="rgb(0%, 0%, 0%)" d="M 64.902344 158.652344 L 57.691406 158.652344 L 57.691406 165.867188 L 72.117188 165.867188 L 72.117188 158.652344 L 64.902344 158.652344 " fill-opacity="1" fill-rule="nonzero"/><path fill="rgb(0%, 0%, 0%)" d="M 64.902344 28.847656 L 72.117188 28.847656 L 72.117188 21.632812 L 64.902344 21.632812 L 64.902344 28.847656 " fill-opacity="1" fill-rule="nonzero"/><path fill="rgb(0%, 0%, 0%)" d="M 57.691406 36.058594 L 64.902344 36.058594 L 64.902344 28.847656 L 57.691406 28.847656 L 57.691406 36.058594 " fill-opacity="1" fill-rule="nonzero"/><path fill="rgb(0%, 0%, 0%)" d="M 50.480469 151.441406 L 50.480469 158.652344 L 57.691406 158.652344 L 57.691406 151.441406 L 50.480469 151.441406 " fill-opacity="1" fill-rule="nonzero"/><path fill="rgb(0%, 0%, 0%)" d="M 50.480469 43.269531 L 57.691406 43.269531 L 57.691406 36.058594 L 50.480469 36.058594 L 50.480469 43.269531 " fill-opacity="1" fill-rule="nonzero"/><path fill="rgb(0%, 0%, 0%)" d="M 43.269531 144.230469 L 43.269531 151.441406 L 50.480469 151.441406 L 50.480469 144.230469 L 43.269531 144.230469 " fill-opacity="1" fill-rule="nonzero"/><path fill="rgb(0%, 0%, 0%)" d="M 43.269531 50.480469 L 50.480469 50.480469 L 50.480469 43.269531 L 43.269531 43.269531 L 43.269531 50.480469 " fill-opacity="1" fill-rule="nonzero"/><path fill="rgb(0%, 0%, 0%)" d="M 43.269531 21.632812 L 50.480469 21.632812 L 50.480469 14.421875 L 43.269531 14.421875 L 43.269531 21.632812 " fill-opacity="1" fill-rule="nonzero"/><path fill="rgb(0%, 0%, 0%)" d="M 36.058594 137.019531 L 36.058594 144.230469 L 43.269531 144.230469 L 43.269531 137.019531 L 36.058594 137.019531 " fill-opacity="1" fill-rule="nonzero"/><path fill="rgb(0%, 0%, 0%)" d="M 36.058594 57.691406 L 43.269531 57.691406 L 43.269531 50.480469 L 36.058594 50.480469 L 36.058594 57.691406 " fill-opacity="1" fill-rule="nonzero"/><path fill="rgb(0%, 0%, 0%)" d="M 36.058594 28.847656 L 43.269531 28.847656 L 43.269531 21.632812 L 36.058594 21.632812 L 36.058594 28.847656 " fill-opacity="1" fill-rule="nonzero"/><path fill="rgb(0%, 0%, 0%)" d="M 28.847656 129.808594 L 28.847656 137.019531 L 36.058594 137.019531 L 36.058594 129.808594 L 28.847656 129.808594 " fill-opacity="1" fill-rule="nonzero"/><path fill="rgb(0%, 0%, 0%)" d="M 28.847656 64.902344 L 36.058594 64.902344 L 36.058594 57.691406 L 28.847656 57.691406 L 28.847656 64.902344 " fill-opacity="1" fill-rule="nonzero"/><path fill="rgb(0%, 0%, 0%)" d="M 28.847656 36.058594 L 36.058594 36.058594 L 36.058594 28.847656 L 28.847656 28.847656 L 28.847656 36.058594 " fill-opacity="1" fill-rule="nonzero"/><path fill="rgb(0%, 0%, 0%)" d="M 21.632812 115.382812 L 21.632812 129.808594 L 28.847656 129.808594 L 28.847656 115.382812 L 21.632812 115.382812 " fill-opacity="1" fill-rule="nonzero"/><path fill="rgb(0%, 0%, 0%)" d="M 21.632812 72.117188 L 28.847656 72.117188 L 28.847656 64.902344 L 21.632812 64.902344 L 21.632812 72.117188 " fill-opacity="1" fill-rule="nonzero"/><path fill="rgb(0%, 0%, 0%)" d="M 21.632812 43.269531 L 28.847656 43.269531 L 28.847656 36.058594 L 21.632812 36.058594 L 21.632812 43.269531 " fill-opacity="1" fill-rule="nonzero"/><path fill="rgb(0%, 0%, 0%)" d="M 50.480469 7.210938 L 50.480469 14.421875 L 57.691406 14.421875 L 57.691406 7.210938 L 79.328125 7.210938 L 79.328125 0 L 14.421875 0 L 14.421875 7.210938 L 50.480469 7.210938 " fill-opacity="1" fill-rule="nonzero"/><path fill="rgb(0%, 0%, 0%)" d="M 14.421875 100.960938 L 14.421875 115.382812 L 21.632812 115.382812 L 21.632812 100.960938 L 14.421875 100.960938 " fill-opacity="1" fill-rule="nonzero"/><path fill="rgb(0%, 0%, 0%)" d="M 14.421875 79.328125 L 21.632812 79.328125 L 21.632812 72.117188 L 14.421875 72.117188 L 14.421875 79.328125 " fill-opacity="1" fill-rule="nonzero"/><path fill="rgb(0%, 0%, 0%)" d="M 14.421875 50.480469 L 21.632812 50.480469 L 21.632812 43.269531 L 14.421875 43.269531 L 14.421875 50.480469 " fill-opacity="1" fill-rule="nonzero"/><path fill="rgb(0%, 0%, 0%)" d="M 14.421875 79.328125 L 7.210938 79.328125 L 7.210938 100.960938 L 14.421875 100.960938 L 14.421875 79.328125 " fill-opacity="1" fill-rule="nonzero"/><path fill="rgb(0%, 0%, 0%)" d="M 14.421875 7.210938 L 7.210938 7.210938 L 7.210938 14.421875 L 14.421875 14.421875 L 14.421875 7.210938 " fill-opacity="1" fill-rule="nonzero"/><path fill="rgb(0%, 0%, 0%)" d="M 7.210938 57.691406 L 14.421875 57.691406 L 14.421875 50.480469 L 7.210938 50.480469 L 7.210938 14.421875 L 0 14.421875 L 0 79.328125 L 7.210938 79.328125 L 7.210938 57.691406 " fill-opacity="1" fill-rule="nonzero"/></svg>