<svg xmlns="http://www.w3.org/2000/svg" xmlns:xlink="http://www.w3.org/1999/xlink" width="250" zoomAndPan="magnify" viewBox="0 0 187.5 187.499992" height="250" preserveAspectRatio="xMidYMid meet" version="1.0"><defs><clipPath id="id1"><path d="M 26 122 L 116 122 L 116 180 L 26 180 Z M 26 122 " clip-rule="nonzero"/></clipPath><clipPath id="id2"><path d="M 25.457031 143.5625 L 106.480469 121.398438 L 116.570312 158.292969 L 35.546875 180.457031 Z M 25.457031 143.5625 " clip-rule="nonzero"/></clipPath><clipPath id="id3"><path d="M 25.457031 143.5625 L 106.480469 121.398438 L 116.570312 158.292969 L 35.546875 180.457031 Z M 25.457031 143.5625 " clip-rule="nonzero"/></clipPath><clipPath id="id4"><path d="M 25.457031 143.5625 L 106.480469 121.398438 L 116.570312 158.292969 L 35.546875 180.457031 Z M 25.457031 143.5625 " clip-rule="nonzero"/></clipPath><clipPath id="id5"><path d="M 28 124 L 114 124 L 114 178 L 28 178 Z M 28 124 " clip-rule="nonzero"/></clipPath><clipPath id="id6"><path d="M 25.457031 143.5625 L 106.480469 121.398438 L 116.570312 158.292969 L 35.546875 180.457031 Z M 25.457031 143.5625 " clip-rule="nonzero"/></clipPath><clipPath id="id7"><path d="M 25.457031 143.5625 L 106.480469 121.398438 L 116.570312 158.292969 L 35.546875 180.457031 Z M 25.457031 143.5625 " clip-rule="nonzero"/></clipPath><clipPath id="id8"><path d="M 25.457031 143.5625 L 106.480469 121.398438 L 116.570312 158.292969 L 35.546875 180.457031 Z M 25.457031 143.5625 " clip-rule="nonzero"/></clipPath><clipPath id="id9"><path d="M 26 122 L 116 122 L 116 180 L 26 180 Z M 26 122 " clip-rule="nonzero"/></clipPath><clipPath id="id10"><path d="M 25.457031 143.5625 L 106.480469 121.398438 L 116.570312 158.292969 L 35.546875 180.457031 Z M 25.457031 143.5625 " clip-rule="nonzero"/></clipPath><clipPath id="id11"><path d="M 25.457031 143.5625 L 106.480469 121.398438 L 116.570312 158.292969 L 35.546875 180.457031 Z M 25.457031 143.5625 " clip-rule="nonzero"/></clipPath><clipPath id="id12"><path d="M 25.457031 143.5625 L 106.480469 121.398438 L 116.570312 158.292969 L 35.546875 180.457031 Z M 25.457031 143.5625 " clip-rule="nonzero"/></clipPath><clipPath id="id13"><path d="M 29 124 L 112 124 L 112 173 L 29 173 Z M 29 124 " clip-rule="nonzero"/></clipPath><clipPath id="id14"><path d="M 25.457031 143.5625 L 106.480469 121.398438 L 116.570312 158.292969 L 35.546875 180.457031 Z M 25.457031 143.5625 " clip-rule="nonzero"/></clipPath><clipPath id="id15"><path d="M 25.457031 143.5625 L 106.480469 121.398438 L 116.570312 158.292969 L 35.546875 180.457031 Z M 25.457031 143.5625 " clip-rule="nonzero"/></clipPath><clipPath id="id16"><path d="M 25.457031 143.5625 L 106.480469 121.398438 L 116.570312 158.292969 L 35.546875 180.457031 Z M 25.457031 143.5625 " clip-rule="nonzero"/></clipPath><clipPath id="id17"><path d="M 31 132 L 112 132 L 112 175 L 31 175 Z M 31 132 " clip-rule="nonzero"/></clipPath><clipPath id="id18"><path d="M 25.457031 143.5625 L 106.480469 121.398438 L 116.570312 158.292969 L 35.546875 180.457031 Z M 25.457031 143.5625 " clip-rule="nonzero"/></clipPath><clipPath id="id19"><path d="M 25.457031 143.5625 L 106.480469 121.398438 L 116.570312 158.292969 L 35.546875 180.457031 Z M 25.457031 143.5625 " clip-rule="nonzero"/></clipPath><clipPath id="id20"><path d="M 25.457031 143.5625 L 106.480469 121.398438 L 116.570312 158.292969 L 35.546875 180.457031 Z M 25.457031 143.5625 " clip-rule="nonzero"/></clipPath><clipPath id="id21"><path d="M 32 129 L 110 129 L 110 171 L 32 171 Z M 32 129 " clip-rule="nonzero"/></clipPath><clipPath id="id22"><path d="M 25.457031 143.5625 L 106.480469 121.398438 L 116.570312 158.292969 L 35.546875 180.457031 Z M 25.457031 143.5625 " clip-rule="nonzero"/></clipPath><clipPath id="id23"><path d="M 25.457031 143.5625 L 106.480469 121.398438 L 116.570312 158.292969 L 35.546875 180.457031 Z M 25.457031 143.5625 " clip-rule="nonzero"/></clipPath><clipPath id="id24"><path d="M 25.457031 143.5625 L 106.480469 121.398438 L 116.570312 158.292969 L 35.546875 180.457031 Z M 25.457031 143.5625 " clip-rule="nonzero"/></clipPath><clipPath id="id25"><path d="M 28 125 L 114 125 L 114 178 L 28 178 Z M 28 125 " clip-rule="nonzero"/></clipPath><clipPath id="id26"><path d="M 25.457031 143.5625 L 106.480469 121.398438 L 116.570312 158.292969 L 35.546875 180.457031 Z M 25.457031 143.5625 " clip-rule="nonzero"/></clipPath><clipPath id="id27"><path d="M 25.457031 143.5625 L 106.480469 121.398438 L 116.570312 158.292969 L 35.546875 180.457031 Z M 25.457031 143.5625 " clip-rule="nonzero"/></clipPath><clipPath id="id28"><path d="M 25.457031 143.5625 L 106.480469 121.398438 L 116.570312 158.292969 L 35.546875 180.457031 Z M 25.457031 143.5625 " clip-rule="nonzero"/></clipPath><clipPath id="id29"><path d="M 30 148 L 35 148 L 35 153 L 30 153 Z M 30 148 " clip-rule="nonzero"/></clipPath><clipPath id="id30"><path d="M 25.457031 143.5625 L 106.480469 121.398438 L 116.570312 158.292969 L 35.546875 180.457031 Z M 25.457031 143.5625 " clip-rule="nonzero"/></clipPath><clipPath id="id31"><path d="M 25.457031 143.5625 L 106.480469 121.398438 L 116.570312 158.292969 L 35.546875 180.457031 Z M 25.457031 143.5625 " clip-rule="nonzero"/></clipPath><clipPath id="id32"><path d="M 25.457031 143.5625 L 106.480469 121.398438 L 116.570312 158.292969 L 35.546875 180.457031 Z M 25.457031 143.5625 " clip-rule="nonzero"/></clipPath><clipPath id="id33"><path d="M 30 148 L 33 148 L 33 152 L 30 152 Z M 30 148 " clip-rule="nonzero"/></clipPath><clipPath id="id34"><path d="M 25.457031 143.5625 L 106.480469 121.398438 L 116.570312 158.292969 L 35.546875 180.457031 Z M 25.457031 143.5625 " clip-rule="nonzero"/></clipPath><clipPath id="id35"><path d="M 25.457031 143.5625 L 106.480469 121.398438 L 116.570312 158.292969 L 35.546875 180.457031 Z M 25.457031 143.5625 " clip-rule="nonzero"/></clipPath><clipPath id="id36"><path d="M 25.457031 143.5625 L 106.480469 121.398438 L 116.570312 158.292969 L 35.546875 180.457031 Z M 25.457031 143.5625 " clip-rule="nonzero"/></clipPath><clipPath id="id37"><path d="M 34 159 L 46 159 L 46 167 L 34 167 Z M 34 159 " clip-rule="nonzero"/></clipPath><clipPath id="id38"><path d="M 25.457031 143.5625 L 106.480469 121.398438 L 116.570312 158.292969 L 35.546875 180.457031 Z M 25.457031 143.5625 " clip-rule="nonzero"/></clipPath><clipPath id="id39"><path d="M 25.457031 143.5625 L 106.480469 121.398438 L 116.570312 158.292969 L 35.546875 180.457031 Z M 25.457031 143.5625 " clip-rule="nonzero"/></clipPath><clipPath id="id40"><path d="M 25.457031 143.5625 L 106.480469 121.398438 L 116.570312 158.292969 L 35.546875 180.457031 Z M 25.457031 143.5625 " clip-rule="nonzero"/></clipPath><clipPath id="id41"><path d="M 34 160 L 44 160 L 44 165 L 34 165 Z M 34 160 " clip-rule="nonzero"/></clipPath><clipPath id="id42"><path d="M 25.457031 143.5625 L 106.480469 121.398438 L 116.570312 158.292969 L 35.546875 180.457031 Z M 25.457031 143.5625 " clip-rule="nonzero"/></clipPath><clipPath id="id43"><path d="M 25.457031 143.5625 L 106.480469 121.398438 L 116.570312 158.292969 L 35.546875 180.457031 Z M 25.457031 143.5625 " clip-rule="nonzero"/></clipPath><clipPath id="id44"><path d="M 25.457031 143.5625 L 106.480469 121.398438 L 116.570312 158.292969 L 35.546875 180.457031 Z M 25.457031 143.5625 " clip-rule="nonzero"/></clipPath><clipPath id="id45"><path d="M 84 140 L 91 140 L 91 146 L 84 146 Z M 84 140 " clip-rule="nonzero"/></clipPath><clipPath id="id46"><path d="M 25.457031 143.5625 L 106.480469 121.398438 L 116.570312 158.292969 L 35.546875 180.457031 Z M 25.457031 143.5625 " clip-rule="nonzero"/></clipPath><clipPath id="id47"><path d="M 25.457031 143.5625 L 106.480469 121.398438 L 116.570312 158.292969 L 35.546875 180.457031 Z M 25.457031 143.5625 " clip-rule="nonzero"/></clipPath><clipPath id="id48"><path d="M 25.457031 143.5625 L 106.480469 121.398438 L 116.570312 158.292969 L 35.546875 180.457031 Z M 25.457031 143.5625 " clip-rule="nonzero"/></clipPath><clipPath id="id49"><path d="M 84 140 L 89 140 L 89 144 L 84 144 Z M 84 140 " clip-rule="nonzero"/></clipPath><clipPath id="id50"><path d="M 25.457031 143.5625 L 106.480469 121.398438 L 116.570312 158.292969 L 35.546875 180.457031 Z M 25.457031 143.5625 " clip-rule="nonzero"/></clipPath><clipPath id="id51"><path d="M 25.457031 143.5625 L 106.480469 121.398438 L 116.570312 158.292969 L 35.546875 180.457031 Z M 25.457031 143.5625 " clip-rule="nonzero"/></clipPath><clipPath id="id52"><path d="M 25.457031 143.5625 L 106.480469 121.398438 L 116.570312 158.292969 L 35.546875 180.457031 Z M 25.457031 143.5625 " clip-rule="nonzero"/></clipPath><clipPath id="id53"><path d="M 130 122 L 159 122 L 159 165 L 130 165 Z M 130 122 " clip-rule="nonzero"/></clipPath><clipPath id="id54"><path d="M 134.351562 121.328125 L 161.910156 124.605469 L 157.042969 165.566406 L 129.484375 162.289062 Z M 134.351562 121.328125 " clip-rule="nonzero"/></clipPath><clipPath id="id55"><path d="M 134.351562 121.328125 L 161.910156 124.605469 L 157.042969 165.566406 L 129.484375 162.289062 Z M 134.351562 121.328125 " clip-rule="nonzero"/></clipPath><clipPath id="id56"><path d="M 134.351562 121.328125 L 161.910156 124.605469 L 157.042969 165.566406 L 129.484375 162.289062 Z M 134.351562 121.328125 " clip-rule="nonzero"/></clipPath><clipPath id="id57"><path d="M 131 123 L 159 123 L 159 164 L 131 164 Z M 131 123 " clip-rule="nonzero"/></clipPath><clipPath id="id58"><path d="M 134.351562 121.328125 L 161.910156 124.605469 L 157.042969 165.566406 L 129.484375 162.289062 Z M 134.351562 121.328125 " clip-rule="nonzero"/></clipPath><clipPath id="id59"><path d="M 134.351562 121.328125 L 161.910156 124.605469 L 157.042969 165.566406 L 129.484375 162.289062 Z M 134.351562 121.328125 " clip-rule="nonzero"/></clipPath><clipPath id="id60"><path d="M 134.351562 121.328125 L 161.910156 124.605469 L 157.042969 165.566406 L 129.484375 162.289062 Z M 134.351562 121.328125 " clip-rule="nonzero"/></clipPath><clipPath id="id61"><path d="M 130 122 L 159 122 L 159 165 L 130 165 Z M 130 122 " clip-rule="nonzero"/></clipPath><clipPath id="id62"><path d="M 134.351562 121.328125 L 161.910156 124.605469 L 157.042969 165.566406 L 129.484375 162.289062 Z M 134.351562 121.328125 " clip-rule="nonzero"/></clipPath><clipPath id="id63"><path d="M 134.351562 121.328125 L 161.910156 124.605469 L 157.042969 165.566406 L 129.484375 162.289062 Z M 134.351562 121.328125 " clip-rule="nonzero"/></clipPath><clipPath id="id64"><path d="M 134.351562 121.328125 L 161.910156 124.605469 L 157.042969 165.566406 L 129.484375 162.289062 Z M 134.351562 121.328125 " clip-rule="nonzero"/></clipPath><clipPath id="id65"><path d="M 131 124 L 155 124 L 155 164 L 131 164 Z M 131 124 " clip-rule="nonzero"/></clipPath><clipPath id="id66"><path d="M 134.351562 121.328125 L 161.910156 124.605469 L 157.042969 165.566406 L 129.484375 162.289062 Z M 134.351562 121.328125 " clip-rule="nonzero"/></clipPath><clipPath id="id67"><path d="M 134.351562 121.328125 L 161.910156 124.605469 L 157.042969 165.566406 L 129.484375 162.289062 Z M 134.351562 121.328125 " clip-rule="nonzero"/></clipPath><clipPath id="id68"><path d="M 134.351562 121.328125 L 161.910156 124.605469 L 157.042969 165.566406 L 129.484375 162.289062 Z M 134.351562 121.328125 " clip-rule="nonzero"/></clipPath><clipPath id="id69"><path d="M 144 124 L 152 124 L 152 146 L 144 146 Z M 144 124 " clip-rule="nonzero"/></clipPath><clipPath id="id70"><path d="M 134.351562 121.328125 L 161.910156 124.605469 L 157.042969 165.566406 L 129.484375 162.289062 Z M 134.351562 121.328125 " clip-rule="nonzero"/></clipPath><clipPath id="id71"><path d="M 134.351562 121.328125 L 161.910156 124.605469 L 157.042969 165.566406 L 129.484375 162.289062 Z M 134.351562 121.328125 " clip-rule="nonzero"/></clipPath><clipPath id="id72"><path d="M 134.351562 121.328125 L 161.910156 124.605469 L 157.042969 165.566406 L 129.484375 162.289062 Z M 134.351562 121.328125 " clip-rule="nonzero"/></clipPath><clipPath id="id73"><path d="M 139 158 L 149 158 L 149 161 L 139 161 Z M 139 158 " clip-rule="nonzero"/></clipPath><clipPath id="id74"><path d="M 134.351562 121.328125 L 161.910156 124.605469 L 157.042969 165.566406 L 129.484375 162.289062 Z M 134.351562 121.328125 " clip-rule="nonzero"/></clipPath><clipPath id="id75"><path d="M 134.351562 121.328125 L 161.910156 124.605469 L 157.042969 165.566406 L 129.484375 162.289062 Z M 134.351562 121.328125 " clip-rule="nonzero"/></clipPath><clipPath id="id76"><path d="M 134.351562 121.328125 L 161.910156 124.605469 L 157.042969 165.566406 L 129.484375 162.289062 Z M 134.351562 121.328125 " clip-rule="nonzero"/></clipPath><clipPath id="id77"><path d="M 25.453125 0 L 161.953125 0 L 161.953125 114 L 25.453125 114 Z M 25.453125 0 " clip-rule="nonzero"/></clipPath><clipPath id="id78"><path d="M 25.453125 2 L 160 2 L 160 112 L 25.453125 112 Z M 25.453125 2 " clip-rule="nonzero"/></clipPath><clipPath id="id79"><path d="M 25.453125 0 L 161.953125 0 L 161.953125 114 L 25.453125 114 Z M 25.453125 0 " clip-rule="nonzero"/></clipPath></defs><g clip-path="url(#id1)"><g clip-path="url(#id2)"><g clip-path="url(#id3)"><g clip-path="url(#id4)"><path fill="rgb(9.408569%, 7.839966%, 14.509583%)" d="M 107.375 124.761719 L 115.628906 154.945312 L 113.941406 155.410156 L 114.402344 157.085938 L 112.714844 157.546875 L 113.171875 159.222656 L 38.945312 179.527344 L 38.484375 177.851562 L 36.796875 178.3125 L 36.339844 176.632812 L 34.652344 177.09375 L 26.394531 146.910156 L 28.082031 146.449219 L 27.625 144.769531 L 29.3125 144.308594 L 28.851562 142.632812 L 103.082031 122.328125 L 103.539062 124.007812 L 105.226562 123.542969 L 105.6875 125.222656 Z M 107.375 124.761719 " fill-opacity="1" fill-rule="nonzero"/></g></g></g></g><g clip-path="url(#id5)"><g clip-path="url(#id6)"><g clip-path="url(#id7)"><g clip-path="url(#id8)"><path fill="rgb(35.289001%, 41.178894%, 53.329468%)" d="M 105.6875 125.222656 L 113.941406 155.410156 L 112.257812 155.871094 L 112.714844 157.546875 L 38.484375 177.851562 L 38.027344 176.171875 L 36.339844 176.632812 L 28.082031 146.449219 L 29.769531 145.984375 L 29.3125 144.308594 L 103.539062 124.007812 L 104 125.683594 Z M 105.6875 125.222656 " fill-opacity="1" fill-rule="nonzero"/></g></g></g></g><g clip-path="url(#id9)"><g clip-path="url(#id10)"><g clip-path="url(#id11)"><g clip-path="url(#id12)"><path fill="rgb(9.408569%, 7.839966%, 14.509583%)" d="M 103.082031 122.328125 L 103.539062 124.007812 L 29.3125 144.308594 L 28.851562 142.632812 Z M 27.625 144.769531 L 28.082031 146.449219 L 29.769531 145.984375 L 29.3125 144.308594 Z M 36.339844 176.632812 L 36.796875 178.3125 L 38.484375 177.851562 L 38.027344 176.171875 Z M 38.484375 177.851562 L 38.945312 179.527344 L 113.171875 159.222656 L 112.714844 157.546875 Z M 112.257812 155.871094 L 112.714844 157.546875 L 114.402344 157.085938 L 113.941406 155.410156 Z M 103.539062 124.007812 L 104 125.683594 L 105.6875 125.222656 L 105.226562 123.542969 Z M 26.394531 146.910156 L 34.652344 177.09375 L 36.339844 176.632812 L 28.082031 146.449219 Z M 105.6875 125.222656 L 113.941406 155.410156 L 115.628906 154.945312 L 107.375 124.761719 Z M 105.6875 125.222656 " fill-opacity="1" fill-rule="nonzero"/></g></g></g></g><g clip-path="url(#id13)"><g clip-path="url(#id14)"><g clip-path="url(#id15)"><g clip-path="url(#id16)"><path fill="rgb(75.289917%, 79.60968%, 86.268616%)" d="M 40.808594 146.570312 L 41.726562 149.925781 L 38.351562 150.847656 L 37.433594 147.496094 Z M 42.496094 146.109375 L 43.414062 149.464844 L 46.789062 148.542969 L 45.871094 145.1875 Z M 47.558594 144.726562 L 48.476562 148.078125 L 51.847656 147.15625 L 50.933594 143.804688 Z M 55.992188 142.417969 L 56.910156 145.773438 L 60.285156 144.851562 L 59.367188 141.496094 Z M 61.054688 141.035156 L 61.972656 144.386719 L 65.34375 143.464844 L 64.429688 140.113281 Z M 66.113281 139.648438 L 67.03125 143.003906 L 70.40625 142.082031 L 69.488281 138.726562 Z M 74.550781 137.34375 L 75.46875 140.695312 L 78.839844 139.773438 L 77.925781 136.421875 Z M 79.609375 135.957031 L 80.527344 139.3125 L 83.902344 138.390625 L 82.984375 135.035156 Z M 84.671875 134.574219 L 85.589844 137.929688 L 88.964844 137.003906 L 88.046875 133.652344 Z M 91.421875 132.730469 L 92.339844 136.082031 L 95.710938 135.160156 L 94.792969 131.804688 Z M 96.480469 131.34375 L 97.398438 134.699219 L 100.773438 133.777344 L 99.855469 130.421875 Z M 101.542969 129.960938 L 102.460938 133.3125 L 105.835938 132.390625 L 104.917969 129.035156 Z M 100.152344 144.761719 L 101.070312 148.113281 L 104.441406 147.191406 L 103.523438 143.835938 Z M 96.925781 152.851562 L 97.84375 156.207031 L 101.214844 155.285156 L 100.300781 151.929688 Z M 107.046875 150.085938 L 107.964844 153.4375 L 111.339844 152.515625 L 110.421875 149.160156 Z M 101.984375 151.46875 L 102.902344 154.824219 L 106.277344 153.898438 L 105.359375 150.546875 Z M 32.523438 156.046875 L 33.4375 159.402344 L 38.5 158.019531 L 37.582031 154.664062 Z M 81.59375 149.835938 L 82.511719 153.191406 L 92.632812 150.421875 L 91.714844 147.066406 Z M 39.269531 154.203125 L 40.1875 157.554688 L 43.5625 156.632812 L 42.644531 153.28125 Z M 44.332031 152.816406 L 45.25 156.171875 L 48.621094 155.25 L 47.707031 151.894531 Z M 49.390625 151.433594 L 50.308594 154.789062 L 53.683594 153.863281 L 52.765625 150.511719 Z M 54.453125 150.050781 L 55.371094 153.402344 L 58.746094 152.480469 L 57.828125 149.125 Z M 59.515625 148.664062 L 60.433594 152.019531 L 63.804688 151.097656 L 62.890625 147.742188 Z M 64.574219 147.28125 L 65.492188 150.636719 L 68.867188 149.710938 L 67.949219 146.359375 Z M 69.636719 145.898438 L 70.554688 149.25 L 73.929688 148.328125 L 73.011719 144.972656 Z M 74.699219 144.511719 L 75.617188 147.867188 L 78.988281 146.945312 L 78.070312 143.589844 Z M 79.757812 143.128906 L 80.675781 146.480469 L 84.050781 145.558594 L 83.132812 142.207031 Z M 46.167969 159.527344 L 47.082031 162.878906 L 50.457031 161.957031 L 49.539062 158.601562 Z M 51.226562 158.140625 L 52.144531 161.496094 L 55.519531 160.574219 L 54.601562 157.21875 Z M 56.289062 156.757812 L 57.207031 160.113281 L 60.578125 159.1875 L 59.664062 155.835938 Z M 61.347656 155.375 L 62.265625 158.726562 L 65.640625 157.804688 L 64.722656 154.449219 Z M 66.410156 153.988281 L 67.328125 157.34375 L 70.703125 156.421875 L 69.785156 153.066406 Z M 71.472656 152.605469 L 72.390625 155.957031 L 75.761719 155.035156 L 74.84375 151.683594 Z M 76.53125 151.21875 L 77.449219 154.574219 L 80.824219 153.652344 L 79.90625 150.296875 Z M 49.6875 165.773438 L 50.605469 169.128906 L 80.972656 160.820312 L 80.054688 157.46875 Z M 42.941406 167.617188 L 43.855469 170.972656 L 48.917969 169.589844 L 48 166.234375 Z M 37.878906 169.003906 L 38.796875 172.355469 L 42.171875 171.433594 L 41.253906 168.082031 Z M 81.742188 157.003906 L 82.660156 160.359375 L 87.71875 158.976562 L 86.800781 155.621094 Z M 88.488281 155.160156 L 89.40625 158.515625 L 92.78125 157.589844 L 91.863281 154.238281 Z M 52.929688 137.847656 L 29.3125 144.308594 L 29.769531 145.984375 L 53.386719 139.527344 Z M 61.363281 135.542969 L 56.304688 136.925781 L 56.761719 138.601562 L 61.824219 137.21875 Z M 63.511719 136.757812 L 65.199219 136.296875 L 64.738281 134.617188 L 63.050781 135.082031 Z M 95.105469 126.3125 L 73.175781 132.3125 L 73.632812 133.988281 L 95.5625 127.988281 Z M 103.539062 124.007812 L 98.480469 125.390625 L 98.9375 127.066406 L 104 125.683594 Z M 103.539062 124.007812 " fill-opacity="1" fill-rule="nonzero"/></g></g></g></g><g clip-path="url(#id17)"><g clip-path="url(#id18)"><g clip-path="url(#id19)"><g clip-path="url(#id20)"><path fill="rgb(14.898682%, 16.859436%, 26.669312%)" d="M 38.960938 159.695312 L 33.898438 161.078125 L 33.4375 159.402344 L 38.5 158.019531 Z M 45.394531 163.34375 L 35.273438 166.109375 L 35.734375 167.789062 L 45.855469 165.019531 Z M 43.5625 156.632812 L 40.1875 157.554688 L 40.644531 159.234375 L 44.019531 158.3125 Z M 48.621094 155.25 L 45.25 156.171875 L 45.707031 157.847656 L 49.082031 156.925781 Z M 50.457031 161.957031 L 47.082031 162.878906 L 47.542969 164.558594 L 50.917969 163.632812 Z M 55.519531 160.574219 L 52.144531 161.496094 L 52.601562 163.171875 L 55.976562 162.25 Z M 60.578125 159.1875 L 57.207031 160.113281 L 57.664062 161.789062 L 61.039062 160.867188 Z M 65.640625 157.804688 L 62.265625 158.726562 L 62.726562 160.40625 L 66.097656 159.480469 Z M 70.703125 156.421875 L 67.328125 157.34375 L 67.785156 159.019531 L 71.160156 158.097656 Z M 75.761719 155.035156 L 72.390625 155.957031 L 72.847656 157.636719 L 76.222656 156.714844 Z M 80.824219 153.652344 L 77.449219 154.574219 L 77.910156 156.25 L 81.28125 155.328125 Z M 92.632812 150.421875 L 82.511719 153.191406 L 82.96875 154.867188 L 93.09375 152.097656 Z M 53.683594 153.863281 L 50.308594 154.789062 L 50.769531 156.464844 L 54.140625 155.542969 Z M 58.746094 152.480469 L 55.371094 153.402344 L 55.828125 155.082031 L 59.203125 154.15625 Z M 63.804688 151.097656 L 60.433594 152.019531 L 60.890625 153.695312 L 64.265625 152.773438 Z M 68.867188 149.710938 L 65.492188 150.636719 L 65.953125 152.3125 L 69.324219 151.390625 Z M 73.929688 148.328125 L 70.554688 149.25 L 71.011719 150.929688 L 74.386719 150.003906 Z M 78.988281 146.945312 L 75.617188 147.867188 L 76.074219 149.542969 L 79.449219 148.621094 Z M 84.050781 145.558594 L 80.675781 146.480469 L 81.136719 148.160156 L 84.507812 147.238281 Z M 90.796875 143.714844 L 85.738281 145.097656 L 86.195312 146.773438 L 91.257812 145.390625 Z M 42.171875 171.433594 L 38.796875 172.355469 L 39.253906 174.035156 L 42.628906 173.109375 Z M 48.917969 169.589844 L 43.855469 170.972656 L 44.316406 172.648438 L 49.375 171.265625 Z M 80.972656 160.820312 L 50.605469 169.128906 L 51.0625 170.804688 L 81.429688 162.5 Z M 87.71875 158.976562 L 82.660156 160.359375 L 83.117188 162.035156 L 88.179688 160.652344 Z M 92.78125 157.589844 L 89.40625 158.515625 L 89.867188 160.191406 L 93.238281 159.269531 Z M 101.214844 155.285156 L 97.84375 156.207031 L 98.300781 157.882812 L 101.675781 156.960938 Z M 106.277344 153.898438 L 102.902344 154.824219 L 103.363281 156.5 L 106.734375 155.578125 Z M 111.339844 152.515625 L 107.964844 153.4375 L 108.421875 155.117188 L 111.796875 154.191406 Z M 104.441406 147.191406 L 101.070312 148.113281 L 101.527344 149.792969 L 104.902344 148.867188 Z M 34.980469 151.769531 L 31.605469 152.695312 L 32.0625 154.371094 L 35.4375 153.449219 Z M 41.726562 149.925781 L 38.351562 150.847656 L 38.8125 152.527344 L 42.183594 151.601562 Z M 46.789062 148.542969 L 43.414062 149.464844 L 43.871094 151.140625 L 47.246094 150.21875 Z M 51.847656 147.15625 L 48.476562 148.078125 L 48.933594 149.757812 L 52.308594 148.832031 Z M 60.285156 144.851562 L 56.910156 145.773438 L 57.367188 147.449219 L 60.742188 146.527344 Z M 65.34375 143.464844 L 61.972656 144.386719 L 62.429688 146.066406 L 65.804688 145.140625 Z M 70.40625 142.082031 L 67.03125 143.003906 L 67.492188 144.679688 L 70.863281 143.757812 Z M 78.839844 139.773438 L 75.46875 140.695312 L 75.925781 142.375 L 79.300781 141.449219 Z M 83.902344 138.390625 L 80.527344 139.3125 L 80.988281 140.988281 L 84.363281 140.066406 Z M 88.964844 137.003906 L 85.589844 137.929688 L 86.046875 139.605469 L 89.421875 138.683594 Z M 95.710938 135.160156 L 92.339844 136.082031 L 92.796875 137.757812 L 96.171875 136.835938 Z M 100.773438 133.777344 L 97.398438 134.699219 L 97.859375 136.375 L 101.230469 135.453125 Z M 105.835938 132.390625 L 102.460938 133.3125 L 102.917969 134.992188 L 106.292969 134.066406 Z M 105.835938 132.390625 " fill-opacity="1" fill-rule="nonzero"/></g></g></g></g><g clip-path="url(#id21)"><g clip-path="url(#id22)"><g clip-path="url(#id23)"><g clip-path="url(#id24)"><path fill="rgb(100%, 100%, 100%)" d="M 39.582031 148.710938 L 37.894531 149.171875 L 37.433594 147.496094 L 39.121094 147.03125 Z M 44.183594 145.648438 L 42.496094 146.109375 L 42.957031 147.785156 L 44.640625 147.324219 Z M 49.246094 144.265625 L 47.558594 144.726562 L 48.015625 146.402344 L 49.703125 145.941406 Z M 57.679688 141.957031 L 55.992188 142.417969 L 56.453125 144.09375 L 58.136719 143.632812 Z M 62.742188 140.574219 L 61.054688 141.035156 L 61.511719 142.710938 L 63.199219 142.25 Z M 67.800781 139.1875 L 66.113281 139.648438 L 66.574219 141.328125 L 68.261719 140.867188 Z M 76.238281 136.882812 L 74.550781 137.34375 L 75.007812 139.019531 L 76.695312 138.558594 Z M 81.296875 135.496094 L 79.609375 135.957031 L 80.070312 137.636719 L 81.757812 137.175781 Z M 86.359375 134.113281 L 84.671875 134.574219 L 85.132812 136.25 L 86.816406 135.789062 Z M 93.109375 132.265625 L 91.421875 132.730469 L 91.878906 134.40625 L 93.566406 133.945312 Z M 98.167969 130.882812 L 96.480469 131.34375 L 96.941406 133.019531 L 98.628906 132.558594 Z M 103.230469 129.5 L 101.542969 129.960938 L 102 131.636719 L 103.6875 131.175781 Z M 35.894531 155.125 L 32.523438 156.046875 L 32.980469 157.726562 L 36.355469 156.800781 Z M 40.957031 153.742188 L 39.269531 154.203125 L 39.730469 155.878906 L 41.414062 155.417969 Z M 46.019531 152.355469 L 44.332031 152.816406 L 44.789062 154.496094 L 46.476562 154.035156 Z M 47.851562 159.066406 L 46.167969 159.527344 L 46.625 161.203125 L 48.3125 160.742188 Z M 52.914062 157.679688 L 51.226562 158.140625 L 51.6875 159.820312 L 53.371094 159.359375 Z M 57.976562 156.296875 L 56.289062 156.757812 L 56.746094 158.433594 L 58.433594 157.972656 Z M 63.035156 154.910156 L 61.347656 155.375 L 61.808594 157.050781 L 63.496094 156.589844 Z M 68.097656 153.527344 L 66.410156 153.988281 L 66.871094 155.667969 L 68.554688 155.203125 Z M 73.160156 152.144531 L 71.472656 152.605469 L 71.929688 154.28125 L 73.617188 153.820312 Z M 78.21875 150.757812 L 76.53125 151.21875 L 76.992188 152.898438 L 78.679688 152.4375 Z M 90.027344 147.527344 L 81.59375 149.835938 L 82.050781 151.511719 L 90.488281 149.207031 Z M 51.078125 150.972656 L 49.390625 151.433594 L 49.851562 153.109375 L 51.539062 152.648438 Z M 56.140625 149.589844 L 54.453125 150.050781 L 54.914062 151.726562 L 56.597656 151.265625 Z M 61.203125 148.203125 L 59.515625 148.664062 L 59.972656 150.34375 L 61.660156 149.882812 Z M 66.261719 146.820312 L 64.574219 147.28125 L 65.035156 148.957031 L 66.722656 148.496094 Z M 71.324219 145.433594 L 69.636719 145.898438 L 70.09375 147.574219 L 71.78125 147.113281 Z M 76.386719 144.050781 L 74.699219 144.511719 L 75.15625 146.1875 L 76.84375 145.726562 Z M 81.445312 142.667969 L 79.757812 143.128906 L 80.21875 144.804688 L 81.90625 144.34375 Z M 39.566406 168.542969 L 37.878906 169.003906 L 38.335938 170.679688 L 40.023438 170.21875 Z M 46.3125 166.695312 L 42.941406 167.617188 L 43.398438 169.296875 L 46.773438 168.371094 Z M 64.871094 161.621094 L 49.6875 165.773438 L 50.148438 167.449219 L 65.328125 163.296875 Z M 69.933594 160.234375 L 66.558594 161.160156 L 67.015625 162.835938 L 70.390625 161.914062 Z M 73.304688 159.3125 L 71.621094 159.773438 L 72.078125 161.453125 L 73.765625 160.988281 Z M 85.117188 156.082031 L 81.742188 157.003906 L 82.199219 158.683594 L 85.574219 157.761719 Z M 90.175781 154.699219 L 88.488281 155.160156 L 88.949219 156.835938 L 90.636719 156.375 Z M 101.839844 144.300781 L 100.152344 144.761719 L 100.609375 146.4375 L 102.296875 145.976562 Z M 98.613281 152.390625 L 96.925781 152.851562 L 97.382812 154.53125 L 99.070312 154.070312 Z M 103.671875 151.007812 L 101.984375 151.46875 L 102.445312 153.144531 L 104.132812 152.683594 Z M 108.734375 149.621094 L 107.046875 150.085938 L 107.503906 151.761719 L 109.191406 151.300781 Z M 108.734375 149.621094 " fill-opacity="1" fill-rule="nonzero"/></g></g></g></g><g clip-path="url(#id25)"><g clip-path="url(#id26)"><g clip-path="url(#id27)"><g clip-path="url(#id28)"><path fill="rgb(22.749329%, 26.669312%, 39.99939%)" d="M 34.980469 151.769531 L 34.0625 148.417969 L 35.75 147.957031 L 37.433594 147.496094 L 38.351562 150.847656 L 36.664062 151.308594 Z M 43.414062 149.464844 L 42.496094 146.109375 L 40.808594 146.570312 L 41.726562 149.925781 Z M 48.476562 148.078125 L 47.558594 144.726562 L 45.871094 145.1875 L 46.789062 148.542969 Z M 53.535156 146.695312 L 52.617188 143.339844 L 50.933594 143.804688 L 51.847656 147.15625 Z M 61.972656 144.386719 L 61.054688 141.035156 L 59.367188 141.496094 L 60.285156 144.851562 Z M 40.351562 144.894531 L 36.976562 145.816406 L 37.433594 147.496094 L 40.808594 146.570312 Z M 45.410156 143.511719 L 42.039062 144.433594 L 42.496094 146.109375 L 45.871094 145.1875 Z M 50.472656 142.125 L 47.097656 143.046875 L 47.558594 144.726562 L 50.933594 143.804688 Z M 58.90625 139.820312 L 55.535156 140.742188 L 55.992188 142.417969 L 59.367188 141.496094 Z M 67.03125 143.003906 L 66.113281 139.648438 L 64.429688 140.113281 L 65.34375 143.464844 Z M 63.96875 138.433594 L 60.59375 139.355469 L 61.054688 141.035156 L 64.429688 140.113281 Z M 69.03125 137.050781 L 65.65625 137.972656 L 66.113281 139.648438 L 69.488281 138.726562 Z M 72.09375 141.621094 L 71.175781 138.265625 L 69.488281 138.726562 L 70.40625 142.082031 Z M 55.992188 142.417969 L 54.304688 142.878906 L 55.222656 146.234375 L 56.910156 145.773438 Z M 73.78125 141.160156 L 75.46875 140.695312 L 74.550781 137.34375 L 72.863281 137.804688 Z M 74.089844 135.664062 L 74.550781 137.34375 L 77.925781 136.421875 L 77.464844 134.742188 Z M 78.839844 139.773438 L 80.527344 139.3125 L 79.609375 135.957031 L 77.925781 136.421875 Z M 79.152344 134.28125 L 79.609375 135.957031 L 82.984375 135.035156 L 82.527344 133.359375 Z M 83.902344 138.390625 L 85.589844 137.929688 L 84.671875 134.574219 L 82.984375 135.035156 Z M 84.214844 132.898438 L 84.671875 134.574219 L 88.046875 133.652344 L 87.585938 131.972656 Z M 88.046875 133.652344 L 88.964844 137.003906 L 92.339844 136.082031 L 91.421875 132.730469 Z M 90.960938 131.050781 L 91.421875 132.730469 L 94.792969 131.804688 L 94.335938 130.128906 Z M 95.710938 135.160156 L 97.398438 134.699219 L 96.480469 131.34375 L 94.792969 131.804688 Z M 40.1875 157.554688 L 39.269531 154.203125 L 37.582031 154.664062 L 38.5 158.019531 Z M 42.183594 151.601562 L 38.8125 152.527344 L 39.269531 154.203125 L 42.644531 153.28125 Z M 45.25 156.171875 L 44.332031 152.816406 L 42.644531 153.28125 L 43.5625 156.632812 Z M 47.246094 150.21875 L 43.871094 151.140625 L 44.332031 152.816406 L 47.707031 151.894531 Z M 50.308594 154.789062 L 49.390625 151.433594 L 47.707031 151.894531 L 48.621094 155.25 Z M 52.308594 148.832031 L 48.933594 149.757812 L 49.390625 151.433594 L 52.765625 150.511719 Z M 55.371094 153.402344 L 54.453125 150.050781 L 52.765625 150.511719 L 53.683594 153.863281 Z M 57.367188 147.449219 L 53.996094 148.371094 L 54.453125 150.050781 L 57.828125 149.125 Z M 60.433594 152.019531 L 59.515625 148.664062 L 57.828125 149.125 L 58.746094 152.480469 Z M 62.429688 146.066406 L 59.054688 146.988281 L 59.515625 148.664062 L 62.890625 147.742188 Z M 65.492188 150.636719 L 64.574219 147.28125 L 62.890625 147.742188 L 63.804688 151.097656 Z M 67.492188 144.679688 L 64.117188 145.605469 L 64.574219 147.28125 L 67.949219 146.359375 Z M 70.554688 149.25 L 69.636719 145.898438 L 67.949219 146.359375 L 68.867188 149.710938 Z M 72.550781 143.296875 L 69.179688 144.21875 L 69.636719 145.898438 L 73.011719 144.972656 Z M 75.617188 147.867188 L 74.699219 144.511719 L 73.011719 144.972656 L 73.929688 148.328125 Z M 77.613281 141.914062 L 74.238281 142.835938 L 74.699219 144.511719 L 78.070312 143.589844 Z M 80.675781 146.480469 L 79.757812 143.128906 L 78.070312 143.589844 L 78.988281 146.945312 Z M 82.675781 140.527344 L 79.300781 141.449219 L 79.757812 143.128906 L 83.132812 142.207031 Z M 85.738281 145.097656 L 84.820312 141.742188 L 83.132812 142.207031 L 84.050781 145.558594 Z M 89.421875 138.683594 L 84.363281 140.066406 L 84.820312 141.742188 L 89.882812 140.359375 Z M 92.484375 143.253906 L 91.566406 139.898438 L 89.882812 140.359375 L 90.796875 143.714844 Z M 47.082031 162.878906 L 46.167969 159.527344 L 44.480469 159.988281 L 45.394531 163.34375 Z M 49.082031 156.925781 L 45.707031 157.847656 L 46.167969 159.527344 L 49.539062 158.601562 Z M 52.144531 161.496094 L 51.226562 158.140625 L 49.539062 158.601562 L 50.457031 161.957031 Z M 54.140625 155.542969 L 50.769531 156.464844 L 51.226562 158.140625 L 54.601562 157.21875 Z M 57.207031 160.113281 L 56.289062 156.757812 L 54.601562 157.21875 L 55.519531 160.574219 Z M 59.203125 154.15625 L 55.828125 155.082031 L 56.289062 156.757812 L 59.664062 155.835938 Z M 62.265625 158.726562 L 61.347656 155.375 L 59.664062 155.835938 L 60.578125 159.1875 Z M 64.265625 152.773438 L 60.890625 153.695312 L 61.347656 155.375 L 64.722656 154.449219 Z M 67.328125 157.34375 L 66.410156 153.988281 L 64.722656 154.449219 L 65.640625 157.804688 Z M 69.324219 151.390625 L 65.953125 152.3125 L 66.410156 153.988281 L 69.785156 153.066406 Z M 72.390625 155.957031 L 71.472656 152.605469 L 69.785156 153.066406 L 70.703125 156.421875 Z M 74.386719 150.003906 L 71.011719 150.929688 L 71.472656 152.605469 L 74.84375 151.683594 Z M 77.449219 154.574219 L 76.53125 151.21875 L 74.84375 151.683594 L 75.761719 155.035156 Z M 79.449219 148.621094 L 76.074219 149.542969 L 76.53125 151.21875 L 79.90625 150.296875 Z M 82.511719 153.191406 L 81.59375 149.835938 L 79.90625 150.296875 L 80.824219 153.652344 Z M 91.257812 145.390625 L 81.136719 148.160156 L 81.59375 149.835938 L 91.714844 147.066406 Z M 94.320312 149.960938 L 93.402344 146.605469 L 91.714844 147.066406 L 92.632812 150.421875 Z M 99.382812 148.574219 L 101.070312 148.113281 L 100.152344 144.761719 L 98.464844 145.222656 Z M 37.417969 167.324219 L 37.878906 169.003906 L 41.253906 168.082031 L 40.792969 166.402344 Z M 42.171875 171.433594 L 43.855469 170.972656 L 42.941406 167.617188 L 41.253906 168.082031 Z M 42.480469 165.941406 L 42.941406 167.617188 L 48 166.234375 L 47.542969 164.558594 Z M 48.917969 169.589844 L 50.605469 169.128906 L 49.6875 165.773438 L 48 166.234375 Z M 79.597656 155.789062 L 49.230469 164.097656 L 49.6875 165.773438 L 80.054688 157.46875 Z M 82.660156 160.359375 L 81.742188 157.003906 L 80.054688 157.46875 L 80.972656 160.820312 Z M 86.34375 153.945312 L 81.28125 155.328125 L 81.742188 157.003906 L 86.800781 155.621094 Z M 89.40625 158.515625 L 88.488281 155.160156 L 86.800781 155.621094 L 87.71875 158.976562 Z M 91.40625 152.558594 L 88.03125 153.484375 L 88.488281 155.160156 L 91.863281 154.238281 Z M 94.46875 157.128906 L 93.550781 153.777344 L 91.863281 154.238281 L 92.78125 157.589844 Z M 96.15625 156.667969 L 97.84375 156.207031 L 96.925781 152.851562 L 95.238281 153.3125 Z M 96.464844 151.175781 L 96.925781 152.851562 L 100.300781 151.929688 L 99.839844 150.253906 Z M 101.214844 155.285156 L 102.902344 154.824219 L 101.984375 151.46875 L 100.300781 151.929688 Z M 63.789062 170.929688 L 67.164062 170.003906 L 66.707031 168.328125 L 63.332031 169.25 Z M 60.417969 171.851562 L 62.105469 171.390625 L 61.644531 169.710938 L 59.957031 170.175781 Z M 104 125.683594 L 104.457031 127.359375 L 102.769531 127.820312 L 102.3125 126.144531 L 100.625 126.605469 L 101.085938 128.28125 L 99.398438 128.746094 L 96.023438 129.667969 L 96.480469 131.34375 L 99.855469 130.421875 L 100.773438 133.777344 L 102.460938 133.3125 L 101.542969 129.960938 L 104.917969 129.035156 L 105.835938 132.390625 L 106.292969 134.066406 L 104.605469 134.53125 L 105.066406 136.207031 L 106.75 135.746094 L 107.210938 137.421875 L 105.523438 137.882812 L 105.980469 139.5625 L 107.667969 139.097656 L 108.128906 140.777344 L 106.441406 141.238281 L 106.898438 142.914062 L 108.585938 142.453125 L 109.046875 144.128906 L 107.359375 144.59375 L 107.816406 146.269531 L 109.503906 145.808594 L 109.960938 147.484375 L 108.277344 147.945312 L 107.816406 146.269531 L 106.128906 146.730469 L 106.589844 148.40625 L 104.902344 148.867188 L 101.527344 149.792969 L 101.984375 151.46875 L 105.359375 150.546875 L 106.277344 153.898438 L 107.964844 153.4375 L 107.046875 150.085938 L 110.421875 149.160156 L 111.339844 152.515625 L 111.796875 154.191406 L 86.492188 161.113281 L 86.949219 162.792969 L 70.078125 167.40625 L 70.539062 169.082031 L 112.714844 157.546875 L 112.257812 155.871094 L 113.941406 155.410156 L 113.027344 152.054688 L 112.109375 148.699219 L 107.519531 131.929688 L 106.605469 128.574219 L 105.6875 125.222656 Z M 107.359375 144.59375 L 106.898438 142.914062 L 105.210938 143.375 L 104.753906 141.699219 L 99.691406 143.082031 L 100.152344 144.761719 L 103.523438 143.835938 L 104.441406 147.191406 L 106.128906 146.730469 L 105.671875 145.054688 Z M 105.980469 139.5625 L 104.296875 140.023438 L 104.753906 141.699219 L 106.441406 141.238281 Z M 105.066406 136.207031 L 103.378906 136.667969 L 103.835938 138.34375 L 105.523438 137.882812 Z M 101.230469 135.453125 L 101.691406 137.128906 L 103.378906 136.667969 L 102.917969 134.992188 Z M 102.148438 138.804688 L 102.609375 140.484375 L 104.296875 140.023438 L 103.835938 138.34375 Z M 34.355469 162.757812 L 44.480469 159.988281 L 44.019531 158.3125 L 33.898438 161.078125 L 32.523438 156.046875 L 37.582031 154.664062 L 37.125 152.988281 L 32.0625 154.371094 L 30.6875 149.339844 L 34.0625 148.417969 L 33.601562 146.738281 L 30.230469 147.664062 L 29.769531 145.984375 L 28.082031 146.449219 L 36.339844 176.632812 L 38.027344 176.171875 L 38.484375 177.851562 L 50.292969 174.621094 L 49.835938 172.941406 L 39.714844 175.710938 L 39.253906 174.035156 L 37.566406 174.496094 L 37.109375 172.820312 L 38.796875 172.355469 L 37.878906 169.003906 L 36.191406 169.464844 Z M 34.355469 162.757812 " fill-opacity="1" fill-rule="nonzero"/></g></g></g></g><g clip-path="url(#id29)"><g clip-path="url(#id30)"><g clip-path="url(#id31)"><g clip-path="url(#id32)"><path fill="rgb(99.609375%, 68.238831%, 20.388794%)" d="M 30.6875 149.339844 L 34.0625 148.417969 L 34.980469 151.769531 L 31.605469 152.695312 Z M 30.6875 149.339844 " fill-opacity="1" fill-rule="nonzero"/></g></g></g></g><g clip-path="url(#id33)"><g clip-path="url(#id34)"><g clip-path="url(#id35)"><g clip-path="url(#id36)"><path fill="rgb(99.609375%, 90.589905%, 38.038635%)" d="M 30.6875 149.339844 L 32.375 148.878906 L 32.832031 150.554688 L 31.144531 151.015625 Z M 30.6875 149.339844 " fill-opacity="1" fill-rule="nonzero"/></g></g></g></g><g clip-path="url(#id37)"><g clip-path="url(#id38)"><g clip-path="url(#id39)"><g clip-path="url(#id40)"><path fill="rgb(24.308777%, 53.729248%, 28.239441%)" d="M 34.355469 162.757812 L 44.480469 159.988281 L 45.394531 163.34375 L 35.273438 166.109375 Z M 34.355469 162.757812 " fill-opacity="1" fill-rule="nonzero"/></g></g></g></g><g clip-path="url(#id41)"><g clip-path="url(#id42)"><g clip-path="url(#id43)"><g clip-path="url(#id44)"><path fill="rgb(38.819885%, 78.039551%, 30.198669%)" d="M 34.355469 162.757812 L 42.792969 160.449219 L 43.25 162.125 L 34.816406 164.433594 Z M 34.355469 162.757812 " fill-opacity="1" fill-rule="nonzero"/></g></g></g></g><g clip-path="url(#id45)"><g clip-path="url(#id46)"><g clip-path="url(#id47)"><g clip-path="url(#id48)"><path fill="rgb(89.408875%, 23.139954%, 26.669312%)" d="M 84.820312 141.742188 L 89.882812 140.359375 L 90.796875 143.714844 L 85.738281 145.097656 Z M 84.820312 141.742188 " fill-opacity="1" fill-rule="nonzero"/></g></g></g></g><g clip-path="url(#id49)"><g clip-path="url(#id50)"><g clip-path="url(#id51)"><g clip-path="url(#id52)"><path fill="rgb(96.469116%, 45.878601%, 47.839355%)" d="M 84.820312 141.742188 L 88.195312 140.820312 L 88.652344 142.496094 L 85.277344 143.421875 Z M 84.820312 141.742188 " fill-opacity="1" fill-rule="nonzero"/></g></g></g></g><g clip-path="url(#id53)"><g clip-path="url(#id54)"><g clip-path="url(#id55)"><g clip-path="url(#id56)"><path fill="rgb(9.408569%, 7.839966%, 14.509583%)" d="M 158.992188 149.003906 L 158.476562 153.363281 L 157.613281 153.261719 L 157.304688 155.875 L 156.445312 155.773438 L 156.238281 157.515625 L 155.375 157.414062 L 155.167969 159.15625 L 154.308594 159.054688 L 154.207031 159.925781 L 153.34375 159.824219 L 153.242188 160.695312 L 152.382812 160.59375 L 152.277344 161.464844 L 151.417969 161.363281 L 151.316406 162.234375 L 149.59375 162.027344 L 149.492188 162.898438 L 147.769531 162.695312 L 147.667969 163.566406 L 145.945312 163.363281 L 145.84375 164.234375 L 143.261719 163.929688 L 140.683594 163.621094 L 140.785156 162.75 L 139.066406 162.546875 L 139.167969 161.671875 L 137.449219 161.46875 L 137.554688 160.597656 L 135.832031 160.394531 L 135.9375 159.523438 L 135.078125 159.417969 L 135.179688 158.546875 L 134.320312 158.445312 L 134.421875 157.574219 L 133.5625 157.472656 L 133.667969 156.601562 L 132.808594 156.5 L 133.015625 154.753906 L 132.152344 154.652344 L 132.359375 152.910156 L 131.5 152.808594 L 131.707031 151.066406 L 131.8125 150.191406 L 130.953125 150.089844 L 131.261719 147.476562 L 131.46875 145.734375 L 132.328125 145.835938 L 132.847656 141.476562 L 133.707031 141.582031 L 134.019531 138.964844 L 134.878906 139.066406 L 135.1875 136.453125 L 136.050781 136.554688 L 136.152344 135.683594 L 136.359375 133.941406 L 135.5 133.839844 L 135.914062 130.351562 L 136.773438 130.453125 L 136.878906 129.582031 L 137.085938 127.839844 L 137.945312 127.941406 L 138.152344 126.199219 L 139.011719 126.300781 L 139.117188 125.429688 L 139.976562 125.53125 L 140.078125 124.660156 L 141.800781 124.863281 L 141.902344 123.992188 L 144.484375 124.300781 L 144.585938 123.429688 L 146.308594 123.632812 L 146.410156 122.761719 L 148.132812 122.964844 L 149.851562 123.171875 L 149.746094 124.042969 L 151.46875 124.246094 L 151.363281 125.117188 L 153.945312 125.425781 L 153.839844 126.296875 L 155.5625 126.5 L 155.457031 127.371094 L 156.316406 127.472656 L 156.214844 128.347656 L 157.074219 128.449219 L 156.867188 130.191406 L 157.726562 130.292969 L 157.417969 132.90625 L 158.277344 133.011719 L 157.863281 136.496094 L 157.003906 136.394531 L 156.691406 139.007812 L 157.550781 139.109375 L 157.242188 141.726562 L 158.101562 141.828125 L 157.789062 144.441406 L 158.652344 144.542969 L 158.132812 148.902344 Z M 158.992188 149.003906 " fill-opacity="1" fill-rule="nonzero"/></g></g></g></g><g clip-path="url(#id57)"><g clip-path="url(#id58)"><g clip-path="url(#id59)"><g clip-path="url(#id60)"><path fill="rgb(22.749329%, 26.669312%, 39.99939%)" d="M 157.273438 148.800781 L 157.789062 144.441406 L 156.929688 144.339844 L 157.242188 141.726562 L 156.382812 141.625 L 156.277344 142.496094 L 155.417969 142.394531 L 155.105469 145.007812 L 154.246094 144.90625 L 154.144531 145.777344 L 151.5625 145.46875 L 151.667969 144.597656 L 149.945312 144.394531 L 150.050781 143.523438 L 149.1875 143.421875 L 149.292969 142.546875 L 148.433594 142.445312 L 148.535156 141.574219 L 147.675781 141.472656 L 148.195312 137.113281 L 147.335938 137.011719 L 147.4375 136.140625 L 145.71875 135.9375 L 145.613281 136.808594 L 144.753906 136.707031 L 144.234375 141.0625 L 143.375 140.960938 L 143.273438 141.832031 L 142.410156 141.730469 L 142.308594 142.601562 L 141.449219 142.5 L 141.34375 143.371094 L 139.625 143.167969 L 139.519531 144.039062 L 136.941406 143.730469 L 137.042969 142.859375 L 136.183594 142.757812 L 136.496094 140.144531 L 135.636719 140.042969 L 135.738281 139.171875 L 136.050781 136.554688 L 135.1875 136.453125 L 134.878906 139.066406 L 134.566406 141.683594 L 133.707031 141.582031 L 132.847656 141.476562 L 132.328125 145.835938 L 131.46875 145.734375 L 131.261719 147.476562 L 132.121094 147.578125 L 131.8125 150.191406 L 131.707031 151.066406 L 132.566406 151.167969 L 132.359375 152.910156 L 133.222656 153.011719 L 133.015625 154.753906 L 132.808594 156.5 L 134.527344 156.703125 L 134.421875 157.574219 L 134.320312 158.445312 L 136.039062 158.648438 L 135.9375 159.523438 L 135.832031 160.394531 L 137.554688 160.597656 L 137.449219 161.46875 L 139.167969 161.671875 L 140.890625 161.878906 L 140.785156 162.75 L 145.945312 163.363281 L 146.050781 162.492188 L 147.769531 162.695312 L 147.875 161.824219 L 149.59375 162.027344 L 149.699219 161.15625 L 151.417969 161.363281 L 151.523438 160.488281 L 152.382812 160.59375 L 152.484375 159.722656 L 153.34375 159.824219 L 153.449219 158.953125 L 154.308594 159.054688 L 154.515625 157.3125 L 155.375 157.414062 L 155.582031 155.671875 L 156.445312 155.773438 L 156.753906 153.15625 L 157.613281 153.261719 L 158.132812 148.902344 Z M 144.539062 160.542969 L 143.675781 160.441406 L 143.78125 159.570312 L 142.0625 159.367188 L 141.957031 160.238281 L 141.097656 160.136719 L 141.199219 159.261719 L 139.480469 159.058594 L 139.585938 158.1875 L 141.304688 158.390625 L 141.199219 159.261719 L 142.0625 159.367188 L 142.164062 158.496094 L 144.746094 158.800781 Z M 147.976562 160.953125 L 147.117188 160.851562 L 147.222656 159.980469 L 146.359375 159.875 L 146.257812 160.75 L 145.398438 160.644531 L 145.605469 158.902344 L 147.324219 159.109375 L 147.222656 159.980469 L 148.082031 160.082031 Z M 139.011719 126.300781 L 139.871094 126.402344 L 139.976562 125.53125 L 139.117188 125.429688 Z M 136.773438 130.453125 L 135.914062 130.351562 L 135.5 133.839844 L 136.359375 133.941406 Z M 136.496094 140.144531 L 137.355469 140.246094 L 137.042969 142.859375 L 139.625 143.167969 L 139.726562 142.296875 L 141.449219 142.5 L 141.550781 141.628906 L 142.410156 141.730469 L 142.515625 140.859375 L 143.375 140.960938 L 143.894531 136.605469 L 144.753906 136.707031 L 144.855469 135.835938 L 145.71875 135.9375 L 145.820312 135.066406 L 144.960938 134.964844 L 145.066406 134.089844 L 144.203125 133.988281 L 144.308594 133.117188 L 143.449219 133.015625 L 144.171875 126.914062 L 145.03125 127.015625 L 145.136719 126.144531 L 145.996094 126.246094 L 146.101562 125.375 L 146.960938 125.476562 L 147.0625 124.605469 L 144.484375 124.300781 L 144.378906 125.171875 L 141.800781 124.863281 L 140.078125 124.660156 L 139.976562 125.53125 L 141.695312 125.738281 L 141.59375 126.609375 L 140.734375 126.507812 L 140.421875 129.121094 L 139.5625 129.019531 L 139.148438 132.503906 L 138.289062 132.402344 L 138.078125 134.144531 L 137.21875 134.042969 L 137.011719 135.785156 L 136.152344 135.683594 L 136.050781 136.554688 L 136.910156 136.65625 Z M 149.539062 125.785156 L 149.4375 126.65625 L 150.296875 126.757812 L 150.195312 127.628906 L 151.054688 127.734375 L 150.328125 133.832031 L 149.46875 133.730469 L 149.363281 134.601562 L 148.503906 134.5 L 148.402344 135.371094 L 147.542969 135.269531 L 147.4375 136.140625 L 148.296875 136.242188 L 148.195312 137.113281 L 149.054688 137.21875 L 148.535156 141.574219 L 149.394531 141.675781 L 149.292969 142.546875 L 150.152344 142.652344 L 150.050781 143.523438 L 151.769531 143.726562 L 151.667969 144.597656 L 154.246094 144.90625 L 154.558594 142.289062 L 155.417969 142.394531 L 156.140625 136.292969 L 155.28125 136.191406 L 155.488281 134.445312 L 154.628906 134.34375 L 155.042969 130.859375 L 154.183594 130.757812 L 154.492188 128.140625 L 153.632812 128.039062 L 153.839844 126.296875 L 151.261719 125.988281 L 151.363281 125.117188 L 148.785156 124.8125 L 148.679688 125.683594 Z M 148.886719 123.941406 L 147.167969 123.734375 L 147.0625 124.605469 L 148.785156 124.8125 Z M 137.738281 129.683594 L 136.878906 129.582031 L 136.773438 130.453125 L 137.632812 130.558594 Z M 137.738281 129.683594 " fill-opacity="1" fill-rule="nonzero"/></g></g></g></g><g clip-path="url(#id61)"><g clip-path="url(#id62)"><g clip-path="url(#id63)"><g clip-path="url(#id64)"><path fill="rgb(9.408569%, 7.839966%, 14.509583%)" d="M 158.992188 149.003906 L 158.476562 153.363281 L 157.613281 153.261719 L 157.304688 155.875 L 156.445312 155.773438 L 156.238281 157.515625 L 155.375 157.414062 L 155.167969 159.15625 L 154.308594 159.054688 L 154.207031 159.925781 L 153.34375 159.824219 L 153.242188 160.695312 L 152.382812 160.59375 L 152.277344 161.464844 L 151.417969 161.363281 L 151.316406 162.234375 L 149.59375 162.027344 L 149.699219 161.15625 L 149.800781 160.285156 L 150.660156 160.386719 L 150.765625 159.515625 L 151.625 159.617188 L 151.730469 158.746094 L 150.867188 158.644531 L 150.972656 157.773438 L 151.832031 157.875 L 151.9375 157.003906 L 152.796875 157.105469 L 152.898438 156.234375 L 152.039062 156.132812 L 152.144531 155.261719 L 153.003906 155.363281 L 153.105469 154.492188 L 153.96875 154.59375 L 154.070312 153.722656 L 153.210938 153.621094 L 153.3125 152.75 L 154.175781 152.851562 L 154.277344 151.980469 L 153.417969 151.878906 L 153.519531 151.003906 L 154.382812 151.109375 L 154.484375 150.238281 L 155.34375 150.339844 L 155.449219 149.46875 L 154.589844 149.363281 L 154.691406 148.492188 L 155.550781 148.59375 L 155.65625 147.722656 L 154.796875 147.621094 L 154.898438 146.75 L 155.757812 146.851562 L 155.863281 145.980469 L 155.003906 145.878906 L 155.105469 145.007812 L 154.246094 144.90625 L 154.558594 142.289062 L 155.417969 142.394531 L 155.832031 138.90625 L 156.140625 136.292969 L 155.28125 136.191406 L 155.488281 134.445312 L 154.628906 134.34375 L 155.042969 130.859375 L 154.183594 130.757812 L 154.492188 128.140625 L 153.632812 128.039062 L 153.738281 127.167969 L 153.839844 126.296875 L 155.5625 126.5 L 155.457031 127.371094 L 156.316406 127.472656 L 156.214844 128.347656 L 157.074219 128.449219 L 156.867188 130.191406 L 157.726562 130.292969 L 157.417969 132.90625 L 158.277344 133.011719 L 157.863281 136.496094 L 157.003906 136.394531 L 156.691406 139.007812 L 157.550781 139.109375 L 157.242188 141.726562 L 158.101562 141.828125 L 157.789062 144.441406 L 158.652344 144.542969 L 158.132812 148.902344 Z M 148.027344 123.835938 L 148.886719 123.941406 L 148.785156 124.8125 L 151.363281 125.117188 L 151.46875 124.246094 L 149.746094 124.042969 L 149.851562 123.171875 L 148.132812 122.964844 L 146.410156 122.761719 L 146.308594 123.632812 L 144.585938 123.429688 L 144.484375 124.300781 L 147.0625 124.605469 L 147.167969 123.734375 Z M 141.800781 124.863281 L 144.378906 125.171875 L 144.484375 124.300781 L 141.902344 123.992188 Z M 139.011719 126.300781 L 138.152344 126.199219 L 137.945312 127.941406 L 138.804688 128.042969 Z M 137.945312 127.941406 L 137.085938 127.839844 L 136.878906 129.582031 L 137.738281 129.683594 Z M 137.21875 134.042969 L 136.359375 133.941406 L 136.152344 135.683594 L 137.011719 135.785156 Z M 133.707031 141.582031 L 134.566406 141.683594 L 134.878906 139.066406 L 134.019531 138.964844 Z M 132.121094 147.578125 L 131.261719 147.476562 L 130.953125 150.089844 L 131.8125 150.191406 Z M 131.707031 151.066406 L 131.5 152.808594 L 132.359375 152.910156 L 132.566406 151.167969 Z M 132.152344 154.652344 L 133.015625 154.753906 L 133.222656 153.011719 L 132.359375 152.910156 Z M 133.5625 157.472656 L 134.421875 157.574219 L 134.527344 156.703125 L 133.667969 156.601562 Z M 135.078125 159.417969 L 135.9375 159.523438 L 136.039062 158.648438 L 135.179688 158.546875 Z M 139.167969 161.671875 L 139.066406 162.546875 L 140.785156 162.75 L 140.890625 161.878906 Z M 140.785156 162.75 L 140.683594 163.621094 L 143.261719 163.929688 L 145.84375 164.234375 L 145.945312 163.363281 L 143.367188 163.054688 Z M 145.273438 132.347656 L 146.132812 132.449219 L 146.648438 128.09375 L 145.789062 127.992188 Z M 144.753906 136.707031 L 145.613281 136.808594 L 145.71875 135.9375 L 144.855469 135.835938 Z M 143.375 140.960938 L 144.234375 141.0625 L 144.753906 136.707031 L 143.894531 136.605469 Z M 142.410156 141.730469 L 143.273438 141.832031 L 143.375 140.960938 L 142.515625 140.859375 Z M 141.449219 142.5 L 142.308594 142.601562 L 142.410156 141.730469 L 141.550781 141.628906 Z M 139.625 143.167969 L 141.34375 143.371094 L 141.449219 142.5 L 139.726562 142.296875 Z M 136.941406 143.730469 L 139.519531 144.039062 L 139.625 143.167969 L 137.042969 142.859375 Z M 136.496094 140.144531 L 136.183594 142.757812 L 137.042969 142.859375 L 137.355469 140.246094 Z M 136.050781 136.554688 L 135.636719 140.042969 L 136.496094 140.144531 L 136.910156 136.65625 Z M 138.289062 132.402344 L 137.425781 132.300781 L 137.21875 134.042969 L 138.078125 134.144531 Z M 139.5625 129.019531 L 138.703125 128.917969 L 138.289062 132.402344 L 139.148438 132.503906 Z M 140.734375 126.507812 L 139.871094 126.402344 L 139.5625 129.019531 L 140.421875 129.121094 Z M 141.695312 125.738281 L 140.835938 125.632812 L 140.734375 126.507812 L 141.59375 126.609375 Z M 145.996094 126.246094 L 145.136719 126.144531 L 145.03125 127.015625 L 145.894531 127.121094 Z M 144.171875 126.914062 L 143.449219 133.015625 L 144.308594 133.117188 L 145.03125 127.015625 Z M 144.308594 133.117188 L 144.203125 133.988281 L 145.066406 134.089844 L 145.167969 133.21875 Z M 153.839844 126.296875 L 153.945312 125.425781 L 151.363281 125.117188 L 151.261719 125.988281 Z M 147.769531 162.695312 L 149.492188 162.898438 L 149.59375 162.027344 L 147.875 161.824219 Z M 145.945312 163.363281 L 147.667969 163.566406 L 147.769531 162.695312 L 146.050781 162.492188 Z M 151.5625 145.46875 L 152.421875 145.570312 L 152.320312 146.445312 L 153.179688 146.546875 L 153.28125 145.675781 L 154.144531 145.777344 L 154.246094 144.90625 L 151.667969 144.597656 Z M 154.039062 146.648438 L 154.898438 146.75 L 155.003906 145.878906 L 154.144531 145.777344 Z M 153.9375 147.519531 L 154.039062 146.648438 L 153.179688 146.546875 L 153.074219 147.417969 Z M 151.355469 147.214844 L 152.214844 147.316406 L 152.320312 146.445312 L 151.457031 146.339844 Z M 153.832031 148.390625 L 154.691406 148.492188 L 154.796875 147.621094 L 153.9375 147.519531 Z M 152.972656 148.289062 L 153.074219 147.417969 L 152.214844 147.316406 L 152.113281 148.1875 Z M 152.867188 149.160156 L 153.726562 149.261719 L 153.832031 148.390625 L 152.972656 148.289062 Z M 151.25 148.085938 L 151.148438 148.957031 L 152.007812 149.058594 L 152.113281 148.1875 Z M 153.625 150.132812 L 154.484375 150.238281 L 154.589844 149.363281 L 153.726562 149.261719 Z M 152.007812 149.058594 L 151.90625 149.929688 L 152.765625 150.03125 L 152.867188 149.160156 Z M 152.765625 150.03125 L 152.660156 150.902344 L 153.519531 151.003906 L 153.625 150.132812 Z M 151.90625 149.929688 L 151.042969 149.828125 L 150.941406 150.699219 L 151.800781 150.800781 Z M 151.699219 151.671875 L 152.558594 151.773438 L 152.660156 150.902344 L 151.800781 150.800781 Z M 152.453125 152.648438 L 153.3125 152.75 L 153.417969 151.878906 L 152.558594 151.773438 Z M 151.699219 151.671875 L 150.835938 151.570312 L 150.734375 152.441406 L 151.59375 152.542969 Z M 151.492188 153.414062 L 152.351562 153.519531 L 152.453125 152.648438 L 151.59375 152.542969 Z M 152.246094 154.390625 L 153.105469 154.492188 L 153.210938 153.621094 L 152.351562 153.519531 Z M 150.628906 153.3125 L 150.527344 154.183594 L 151.386719 154.289062 L 151.492188 153.414062 Z M 151.386719 154.289062 L 151.285156 155.160156 L 152.144531 155.261719 L 152.246094 154.390625 Z M 150.421875 155.054688 L 150.320312 155.929688 L 151.179688 156.03125 L 151.285156 155.160156 Z M 152.039062 156.132812 L 151.179688 156.03125 L 151.074219 156.902344 L 151.9375 157.003906 Z M 150.214844 156.800781 L 150.113281 157.671875 L 150.972656 157.773438 L 151.074219 156.902344 Z M 150.007812 158.542969 L 149.90625 159.414062 L 150.765625 159.515625 L 150.867188 158.644531 Z M 151.457031 146.339844 L 151.5625 145.46875 L 150.703125 145.367188 L 150.597656 146.238281 Z M 150.597656 146.238281 L 149.738281 146.136719 L 149.636719 147.007812 L 150.496094 147.109375 Z M 150.496094 147.109375 L 150.390625 147.980469 L 151.25 148.085938 L 151.355469 147.214844 Z M 149.84375 145.265625 L 148.980469 145.164062 L 148.878906 146.035156 L 149.738281 146.136719 Z M 148.226562 144.1875 L 148.121094 145.0625 L 148.980469 145.164062 L 149.085938 144.292969 Z M 147.46875 143.214844 L 147.367188 144.085938 L 148.226562 144.1875 L 148.328125 143.316406 Z M 146.710938 142.242188 L 146.609375 143.113281 L 147.46875 143.214844 L 147.574219 142.34375 Z M 146.371094 137.78125 L 146.265625 138.652344 L 147.125 138.753906 L 147.230469 137.882812 Z M 146.164062 139.523438 L 146.058594 140.398438 L 146.917969 140.5 L 147.023438 139.628906 Z M 145.957031 141.269531 L 145.851562 142.140625 L 146.710938 142.242188 L 146.816406 141.371094 Z M 150.289062 148.855469 L 150.183594 149.726562 L 151.042969 149.828125 L 151.148438 148.957031 Z M 149.53125 147.878906 L 149.429688 148.75 L 150.289062 148.855469 L 150.390625 147.980469 Z M 149.636719 147.007812 L 148.773438 146.90625 L 148.671875 147.777344 L 149.53125 147.878906 Z M 148.019531 145.933594 L 147.914062 146.804688 L 148.773438 146.90625 L 148.878906 146.035156 Z M 150.941406 150.699219 L 150.082031 150.597656 L 149.976562 151.46875 L 150.835938 151.570312 Z M 149.324219 149.621094 L 149.222656 150.496094 L 150.082031 150.597656 L 150.183594 149.726562 Z M 148.566406 148.648438 L 148.464844 149.519531 L 149.324219 149.621094 L 149.429688 148.75 Z M 147.8125 147.675781 L 147.707031 148.546875 L 148.566406 148.648438 L 148.671875 147.777344 Z M 150.734375 152.441406 L 149.875 152.339844 L 149.769531 153.210938 L 150.628906 153.3125 Z M 149.117188 151.367188 L 149.011719 152.238281 L 149.875 152.339844 L 149.976562 151.46875 Z M 149.667969 154.082031 L 149.5625 154.953125 L 150.421875 155.054688 L 150.527344 154.183594 Z M 148.910156 153.109375 L 148.804688 153.980469 L 149.667969 154.082031 L 149.769531 153.210938 Z M 148.910156 153.109375 " fill-opacity="1" fill-rule="nonzero"/></g></g></g></g><g clip-path="url(#id65)"><g clip-path="url(#id66)"><g clip-path="url(#id67)"><g clip-path="url(#id68)"><path fill="rgb(75.289917%, 79.60968%, 86.268616%)" d="M 133.84375 147.78125 L 133.222656 153.011719 L 132.359375 152.910156 L 132.671875 150.296875 L 131.8125 150.191406 L 132.328125 145.835938 L 133.191406 145.9375 L 133.707031 141.582031 L 134.566406 141.683594 L 134.878906 139.066406 L 135.738281 139.171875 L 135.636719 140.042969 L 136.496094 140.144531 L 136.183594 142.757812 L 137.042969 142.859375 L 136.835938 144.605469 L 135.976562 144.5 L 135.769531 146.246094 L 134.910156 146.140625 L 134.703125 147.886719 Z M 138.289062 132.402344 L 138.703125 128.917969 L 139.5625 129.019531 L 139.871094 126.402344 L 139.011719 126.300781 L 138.804688 128.042969 L 137.945312 127.941406 L 137.632812 130.558594 L 136.773438 130.453125 L 136.359375 133.941406 L 137.21875 134.042969 L 137.425781 132.300781 Z M 140.835938 125.632812 L 139.976562 125.53125 L 139.871094 126.402344 L 140.734375 126.507812 Z M 144.308594 133.117188 L 145.167969 133.21875 L 145.066406 134.089844 L 148.503906 134.5 L 148.609375 133.628906 L 149.46875 133.730469 L 150.195312 127.628906 L 149.332031 127.527344 L 149.4375 126.65625 L 145.996094 126.246094 L 145.894531 127.121094 L 145.03125 127.015625 Z M 145.789062 127.992188 L 146.648438 128.09375 L 146.753906 127.222656 L 148.472656 127.425781 L 148.371094 128.296875 L 149.230469 128.398438 L 148.710938 132.757812 L 147.851562 132.65625 L 147.75 133.527344 L 146.027344 133.320312 L 146.132812 132.449219 L 145.273438 132.347656 Z M 147.851562 132.65625 L 148.371094 128.296875 L 146.648438 128.09375 L 146.132812 132.449219 Z M 133.222656 153.011719 L 133.015625 154.753906 L 133.875 154.859375 L 134.082031 153.113281 Z M 133.875 154.859375 L 133.667969 156.601562 L 134.527344 156.703125 L 134.734375 154.960938 Z M 134.527344 156.703125 L 134.421875 157.574219 L 135.285156 157.675781 L 135.386719 156.804688 Z M 135.285156 157.675781 L 135.179688 158.546875 L 136.039062 158.648438 L 136.144531 157.777344 Z M 136.039062 158.648438 L 135.9375 159.523438 L 137.65625 159.726562 L 137.761719 158.855469 Z M 137.65625 159.726562 L 137.554688 160.597656 L 139.273438 160.800781 L 139.375 159.929688 Z M 139.273438 160.800781 L 139.167969 161.671875 L 140.890625 161.878906 L 140.992188 161.007812 Z M 140.785156 162.75 L 145.945312 163.363281 L 146.050781 162.492188 L 140.890625 161.878906 Z M 138.078125 134.144531 L 137.21875 134.042969 L 136.496094 140.144531 L 137.355469 140.246094 Z M 137.90625 142.960938 L 138.765625 143.066406 L 138.867188 142.195312 L 138.007812 142.089844 L 138.214844 140.347656 L 137.355469 140.246094 L 137.042969 142.859375 Z M 138.078125 134.144531 L 138.941406 134.246094 L 139.148438 132.503906 L 138.289062 132.402344 Z M 139.148438 132.503906 L 140.007812 132.605469 L 140.421875 129.121094 L 139.5625 129.019531 Z M 141.28125 129.222656 L 141.59375 126.609375 L 140.734375 126.507812 L 140.421875 129.121094 Z M 142.554688 125.839844 L 144.277344 126.042969 L 144.378906 125.171875 L 142.660156 124.96875 L 141.800781 124.863281 L 141.59375 126.609375 L 142.453125 126.710938 Z M 145.34375 124.402344 L 144.484375 124.300781 L 144.378906 125.171875 L 145.238281 125.273438 Z M 144.234375 141.0625 L 145.097656 141.164062 L 145.613281 136.808594 L 144.753906 136.707031 Z M 146.472656 136.910156 L 146.578125 136.039062 L 145.71875 135.9375 L 145.613281 136.808594 Z M 143.273438 141.832031 L 144.132812 141.933594 L 144.234375 141.0625 L 143.375 140.960938 Z M 142.308594 142.601562 L 143.167969 142.703125 L 143.273438 141.832031 L 142.410156 141.730469 Z M 141.34375 143.371094 L 142.203125 143.472656 L 142.308594 142.601562 L 141.449219 142.5 Z M 139.519531 144.039062 L 141.242188 144.242188 L 141.34375 143.371094 L 139.625 143.167969 Z M 147.542969 135.269531 L 147.4375 136.140625 L 148.296875 136.242188 L 148.402344 135.371094 Z M 148.296875 136.242188 L 148.195312 137.113281 L 149.054688 137.21875 L 149.15625 136.34375 Z M 149.054688 137.21875 L 148.535156 141.574219 L 149.394531 141.675781 L 149.914062 137.320312 Z M 149.394531 141.675781 L 149.292969 142.546875 L 150.152344 142.652344 L 150.257812 141.777344 Z M 150.152344 142.652344 L 150.050781 143.523438 L 151.769531 143.726562 L 151.875 142.855469 Z M 151.769531 143.726562 L 151.667969 144.597656 L 154.246094 144.90625 L 154.351562 144.035156 Z M 151.769531 143.726562 " fill-opacity="1" fill-rule="nonzero"/></g></g></g></g><g clip-path="url(#id69)"><g clip-path="url(#id70)"><g clip-path="url(#id71)"><g clip-path="url(#id72)"><path fill="rgb(9.408569%, 7.839966%, 14.509583%)" d="M 147.675781 141.472656 L 146.816406 141.371094 L 146.917969 140.5 L 147.78125 140.601562 L 147.882812 139.730469 L 147.023438 139.628906 L 147.125 138.753906 L 147.988281 138.859375 L 148.089844 137.988281 L 147.230469 137.882812 L 147.335938 137.011719 L 146.472656 136.910156 L 146.578125 136.039062 L 145.71875 135.9375 L 145.820312 135.066406 L 144.960938 134.964844 L 145.066406 134.089844 L 146.785156 134.296875 L 146.886719 133.425781 L 146.027344 133.320312 L 146.132812 132.449219 L 146.992188 132.554688 L 147.851562 132.65625 L 148.371094 128.296875 L 147.507812 128.195312 L 146.648438 128.09375 L 146.753906 127.222656 L 147.613281 127.324219 L 147.71875 126.453125 L 145.996094 126.246094 L 146.101562 125.375 L 146.960938 125.476562 L 147.0625 124.605469 L 147.925781 124.710938 L 148.785156 124.8125 L 148.679688 125.683594 L 149.539062 125.785156 L 149.4375 126.65625 L 150.296875 126.757812 L 150.195312 127.628906 L 151.054688 127.734375 L 150.328125 133.832031 L 149.46875 133.730469 L 149.363281 134.601562 L 148.503906 134.5 L 148.402344 135.371094 L 147.542969 135.269531 L 147.4375 136.140625 L 148.296875 136.242188 L 148.195312 137.113281 L 149.054688 137.21875 L 148.535156 141.574219 L 149.394531 141.675781 L 149.292969 142.546875 L 150.152344 142.652344 L 150.050781 143.523438 L 151.769531 143.726562 L 151.667969 144.597656 L 150.804688 144.496094 L 150.703125 145.367188 L 149.84375 145.265625 L 149.945312 144.394531 L 149.085938 144.292969 L 149.1875 143.421875 L 148.328125 143.316406 L 148.433594 142.445312 L 147.574219 142.34375 Z M 147.675781 141.472656 " fill-opacity="1" fill-rule="nonzero"/></g></g></g></g><g clip-path="url(#id73)"><g clip-path="url(#id74)"><g clip-path="url(#id75)"><g clip-path="url(#id76)"><path fill="rgb(17.248535%, 90.979004%, 96.078491%)" d="M 146.464844 159.003906 L 145.605469 158.902344 L 145.398438 160.644531 L 146.257812 160.75 L 146.359375 159.875 L 147.222656 159.980469 L 147.324219 159.109375 Z M 139.585938 158.1875 L 139.480469 159.058594 L 141.199219 159.261719 L 141.304688 158.390625 Z M 141.957031 160.238281 L 142.0625 159.367188 L 141.199219 159.261719 L 141.097656 160.136719 Z M 143.675781 160.441406 L 144.539062 160.542969 L 144.746094 158.800781 L 143.882812 158.699219 L 142.164062 158.496094 L 142.0625 159.367188 L 143.78125 159.570312 Z M 147.976562 160.953125 L 148.082031 160.082031 L 147.222656 159.980469 L 147.117188 160.851562 Z M 147.976562 160.953125 " fill-opacity="1" fill-rule="nonzero"/></g></g></g></g><g clip-path="url(#id77)"><path fill="rgb(9.408569%, 7.839966%, 14.509583%)" d="M 161.90625 8.550781 L 161.90625 76.949219 L 159.066406 76.949219 L 159.066406 79.800781 L 156.222656 79.800781 L 156.222656 82.648438 L 153.382812 82.648438 L 153.382812 85.5 L 102.230469 85.5 L 102.230469 96.898438 L 105.070312 96.898438 L 105.070312 99.75 L 122.121094 99.75 L 122.121094 102.601562 L 124.964844 102.601562 L 124.964844 105.449219 L 127.804688 105.449219 L 127.804688 111.148438 L 124.964844 111.148438 L 124.964844 114 L 62.445312 114 L 62.445312 111.148438 L 59.601562 111.148438 L 59.601562 105.449219 L 62.445312 105.449219 L 62.445312 102.601562 L 65.285156 102.601562 L 65.285156 99.75 L 82.335938 99.75 L 82.335938 96.898438 L 85.179688 96.898438 L 85.179688 85.5 L 34.023438 85.5 L 34.023438 82.648438 L 31.183594 82.648438 L 31.183594 79.800781 L 28.339844 79.800781 L 28.339844 76.949219 L 25.5 76.949219 L 25.5 8.550781 L 28.339844 8.550781 L 28.339844 5.699219 L 31.183594 5.699219 L 31.183594 2.851562 L 34.023438 2.851562 L 34.023438 0 L 153.382812 0 L 153.382812 2.851562 L 156.222656 2.851562 L 156.222656 5.699219 L 159.066406 5.699219 L 159.066406 8.550781 Z M 161.90625 8.550781 " fill-opacity="1" fill-rule="nonzero"/></g><path fill="rgb(0%, 59.999084%, 85.879517%)" d="M 150.539062 11.398438 L 150.539062 74.101562 L 147.699219 74.101562 L 147.699219 76.949219 L 39.707031 76.949219 L 39.707031 74.101562 L 36.867188 74.101562 L 36.867188 11.398438 L 39.707031 11.398438 L 39.707031 8.550781 L 147.699219 8.550781 L 147.699219 11.398438 Z M 150.539062 11.398438 " fill-opacity="1" fill-rule="nonzero"/><g clip-path="url(#id78)"><path fill="rgb(22.749329%, 26.669312%, 39.99939%)" d="M 156.222656 8.550781 L 156.222656 5.699219 L 153.382812 5.699219 L 153.382812 2.851562 L 31.183594 2.851562 L 31.183594 5.699219 L 28.339844 5.699219 L 28.339844 8.550781 L 25.5 8.550781 L 25.5 14.25 L 28.339844 14.25 L 28.339844 17.101562 L 25.5 17.101562 L 25.5 19.949219 L 28.339844 19.949219 L 28.339844 28.5 L 25.5 28.5 L 25.5 34.199219 L 28.339844 34.199219 L 28.339844 51.300781 L 25.5 51.300781 L 25.5 57 L 28.339844 57 L 28.339844 76.949219 L 31.183594 76.949219 L 31.183594 79.800781 L 34.023438 79.800781 L 34.023438 82.648438 L 153.382812 82.648438 L 153.382812 79.800781 L 156.222656 79.800781 L 156.222656 76.949219 L 159.066406 76.949219 L 159.066406 8.550781 Z M 153.382812 74.101562 L 150.539062 74.101562 L 150.539062 76.949219 L 147.699219 76.949219 L 147.699219 79.800781 L 39.707031 79.800781 L 39.707031 76.949219 L 36.867188 76.949219 L 36.867188 74.101562 L 34.023438 74.101562 L 34.023438 11.398438 L 36.867188 11.398438 L 36.867188 8.550781 L 39.707031 8.550781 L 39.707031 5.699219 L 147.699219 5.699219 L 147.699219 8.550781 L 150.539062 8.550781 L 150.539062 11.398438 L 153.382812 11.398438 Z M 122.121094 102.601562 L 105.070312 102.601562 L 105.070312 99.75 L 102.230469 99.75 L 102.230469 96.898438 L 99.386719 96.898438 L 99.386719 85.5 L 88.019531 85.5 L 88.019531 96.898438 L 85.179688 96.898438 L 85.179688 99.75 L 82.335938 99.75 L 82.335938 102.601562 L 65.285156 102.601562 L 65.285156 105.449219 L 62.445312 105.449219 L 62.445312 111.148438 L 124.964844 111.148438 L 124.964844 105.449219 L 122.121094 105.449219 Z M 122.121094 102.601562 " fill-opacity="1" fill-rule="nonzero"/></g><g clip-path="url(#id79)"><path fill="rgb(9.408569%, 7.839966%, 14.509583%)" d="M 161.90625 8.550781 L 161.90625 76.949219 L 159.066406 76.949219 L 159.066406 8.550781 Z M 28.339844 76.949219 L 28.339844 79.800781 L 31.183594 79.800781 L 31.183594 76.949219 Z M 31.183594 79.800781 L 31.183594 82.648438 L 34.023438 82.648438 L 34.023438 79.800781 Z M 34.023438 0 L 34.023438 2.851562 L 153.382812 2.851562 L 153.382812 0 Z M 153.382812 2.851562 L 153.382812 5.699219 L 156.222656 5.699219 L 156.222656 2.851562 Z M 156.222656 5.699219 L 156.222656 8.550781 L 159.066406 8.550781 L 159.066406 5.699219 Z M 156.222656 79.800781 L 159.066406 79.800781 L 159.066406 76.949219 L 156.222656 76.949219 Z M 153.382812 82.648438 L 156.222656 82.648438 L 156.222656 79.800781 L 153.382812 79.800781 Z M 34.023438 85.5 L 85.179688 85.5 L 85.179688 96.898438 L 88.019531 96.898438 L 88.019531 85.5 L 99.386719 85.5 L 99.386719 96.898438 L 102.230469 96.898438 L 102.230469 85.5 L 153.382812 85.5 L 153.382812 82.648438 L 34.023438 82.648438 Z M 36.867188 11.398438 L 34.023438 11.398438 L 34.023438 74.101562 L 36.867188 74.101562 Z M 36.867188 74.101562 L 36.867188 76.949219 L 39.707031 76.949219 L 39.707031 74.101562 Z M 39.707031 79.800781 L 147.699219 79.800781 L 147.699219 76.949219 L 39.707031 76.949219 Z M 147.699219 76.949219 L 150.539062 76.949219 L 150.539062 74.101562 L 147.699219 74.101562 Z M 153.382812 74.101562 L 153.382812 11.398438 L 150.539062 11.398438 L 150.539062 74.101562 Z M 150.539062 11.398438 L 150.539062 8.550781 L 147.699219 8.550781 L 147.699219 11.398438 Z M 147.699219 5.699219 L 39.707031 5.699219 L 39.707031 8.550781 L 147.699219 8.550781 Z M 39.707031 8.550781 L 36.867188 8.550781 L 36.867188 11.398438 L 39.707031 11.398438 Z M 85.179688 96.898438 L 82.335938 96.898438 L 82.335938 99.75 L 85.179688 99.75 Z M 105.070312 99.75 L 105.070312 96.898438 L 102.230469 96.898438 L 102.230469 99.75 Z M 82.335938 99.75 L 65.285156 99.75 L 65.285156 102.601562 L 82.335938 102.601562 Z M 65.285156 102.601562 L 62.445312 102.601562 L 62.445312 105.449219 L 65.285156 105.449219 Z M 59.601562 105.449219 L 59.601562 111.148438 L 62.445312 111.148438 L 62.445312 105.449219 Z M 122.121094 102.601562 L 122.121094 99.75 L 105.070312 99.75 L 105.070312 102.601562 Z M 124.964844 105.449219 L 124.964844 102.601562 L 122.121094 102.601562 L 122.121094 105.449219 Z M 127.804688 111.148438 L 127.804688 105.449219 L 124.964844 105.449219 L 124.964844 111.148438 Z M 62.445312 114 L 124.964844 114 L 124.964844 111.148438 L 62.445312 111.148438 Z M 28.339844 34.199219 L 25.5 34.199219 L 25.5 51.300781 L 28.339844 51.300781 Z M 25.5 57 L 25.5 76.949219 L 28.339844 76.949219 L 28.339844 57 Z M 28.339844 19.949219 L 25.5 19.949219 L 25.5 28.5 L 28.339844 28.5 Z M 28.339844 14.25 L 25.5 14.25 L 25.5 17.101562 L 28.339844 17.101562 Z M 28.339844 14.25 " fill-opacity="1" fill-rule="nonzero"/></g><path fill="rgb(14.898682%, 16.859436%, 26.669312%)" d="M 96.546875 94.050781 L 93.703125 94.050781 L 93.703125 91.199219 L 90.863281 91.199219 L 90.863281 85.5 L 99.386719 85.5 L 99.386719 91.199219 L 96.546875 91.199219 Z M 105.070312 102.601562 L 105.070312 99.75 L 102.230469 99.75 L 102.230469 102.601562 L 93.703125 102.601562 L 93.703125 105.449219 L 122.121094 105.449219 L 122.121094 102.601562 Z M 99.386719 96.898438 L 99.386719 99.75 L 102.230469 99.75 L 102.230469 96.898438 Z M 122.121094 108.300781 L 119.28125 108.300781 L 119.28125 111.148438 L 124.964844 111.148438 L 124.964844 105.449219 L 122.121094 105.449219 Z M 88.019531 105.449219 L 90.863281 105.449219 L 90.863281 102.601562 L 88.019531 102.601562 Z M 93.703125 82.648438 L 153.382812 82.648438 L 153.382812 79.800781 L 93.703125 79.800781 Z M 153.382812 79.800781 L 156.222656 79.800781 L 156.222656 76.949219 L 153.382812 76.949219 Z M 156.222656 8.550781 L 156.222656 76.949219 L 159.066406 76.949219 L 159.066406 8.550781 Z M 153.382812 5.699219 L 153.382812 8.550781 L 156.222656 8.550781 L 156.222656 5.699219 Z M 93.703125 2.851562 L 93.703125 5.699219 L 153.382812 5.699219 L 153.382812 2.851562 Z M 96.546875 94.050781 L 96.546875 96.898438 L 99.386719 96.898438 L 99.386719 94.050781 Z M 93.703125 99.75 L 96.546875 99.75 L 96.546875 96.898438 L 93.703125 96.898438 Z M 90.863281 94.050781 L 90.863281 96.898438 L 93.703125 96.898438 L 93.703125 94.050781 Z M 105.070312 111.148438 L 116.4375 111.148438 L 116.4375 108.300781 L 105.070312 108.300781 Z M 105.070312 111.148438 " fill-opacity="1" fill-rule="nonzero"/><path fill="rgb(100%, 100%, 100%)" d="M 96.546875 34.199219 L 124.964844 34.199219 L 124.964844 62.699219 L 85.179688 62.699219 L 85.179688 54.148438 L 62.445312 54.148438 L 62.445312 25.648438 L 96.546875 25.648438 Z M 42.550781 17.101562 L 45.390625 17.101562 L 45.390625 14.25 L 42.550781 14.25 Z M 42.550781 22.800781 L 45.390625 22.800781 L 45.390625 19.949219 L 42.550781 19.949219 Z M 42.550781 28.5 L 45.390625 28.5 L 45.390625 25.648438 L 42.550781 25.648438 Z M 48.234375 17.101562 L 51.078125 17.101562 L 51.078125 14.25 L 48.234375 14.25 Z M 48.234375 22.800781 L 51.078125 22.800781 L 51.078125 19.949219 L 48.234375 19.949219 Z M 107.914062 17.101562 L 107.914062 31.351562 L 139.171875 31.351562 L 139.171875 17.101562 Z M 107.914062 17.101562 " fill-opacity="1" fill-rule="nonzero"/><path fill="rgb(99.609375%, 68.238831%, 20.388794%)" d="M 119.28125 42.75 L 116.4375 42.75 L 116.4375 39.898438 L 119.28125 39.898438 Z M 68.128906 31.351562 L 65.285156 31.351562 L 65.285156 28.5 L 68.128906 28.5 Z M 70.96875 28.5 L 73.8125 28.5 L 73.8125 31.351562 L 70.96875 31.351562 Z M 76.652344 28.5 L 79.496094 28.5 L 79.496094 31.351562 L 76.652344 31.351562 Z M 82.335938 28.5 L 85.179688 28.5 L 85.179688 31.351562 L 82.335938 31.351562 Z M 88.019531 28.5 L 90.863281 28.5 L 90.863281 31.351562 L 88.019531 31.351562 Z M 68.128906 34.199219 L 65.285156 34.199219 L 65.285156 37.050781 L 68.128906 37.050781 Z M 70.96875 34.199219 L 73.8125 34.199219 L 73.8125 37.050781 L 70.96875 37.050781 Z M 76.652344 34.199219 L 79.496094 34.199219 L 79.496094 37.050781 L 76.652344 37.050781 Z M 102.230469 42.75 L 99.386719 42.75 L 99.386719 39.898438 L 102.230469 39.898438 Z M 107.914062 42.75 L 105.070312 42.75 L 105.070312 39.898438 L 107.914062 39.898438 Z M 113.597656 42.75 L 110.753906 42.75 L 110.753906 39.898438 L 113.597656 39.898438 Z M 99.386719 48.449219 L 102.230469 48.449219 L 102.230469 45.601562 L 99.386719 45.601562 Z M 105.070312 48.449219 L 107.914062 48.449219 L 107.914062 45.601562 L 105.070312 45.601562 Z M 105.070312 48.449219 " fill-opacity="1" fill-rule="nonzero"/><path fill="rgb(7.058716%, 30.589294%, 53.729248%)" d="M 147.699219 76.949219 L 39.707031 76.949219 L 39.707031 74.101562 L 147.699219 74.101562 Z M 93.703125 22.800781 L 62.445312 22.800781 L 62.445312 25.648438 L 93.703125 25.648438 Z M 122.121094 37.050781 L 96.546875 37.050781 L 96.546875 34.199219 L 122.121094 34.199219 Z M 136.332031 14.25 L 107.914062 14.25 L 107.914062 17.101562 L 136.332031 17.101562 Z M 136.332031 14.25 " fill-opacity="1" fill-rule="nonzero"/><path fill="rgb(89.408875%, 23.139954%, 26.669312%)" d="M 122.121094 34.199219 L 124.964844 34.199219 L 124.964844 37.050781 L 122.121094 37.050781 Z M 93.703125 25.648438 L 96.546875 25.648438 L 96.546875 22.800781 L 93.703125 22.800781 Z M 136.332031 17.101562 L 139.171875 17.101562 L 139.171875 14.25 L 136.332031 14.25 Z M 136.332031 17.101562 " fill-opacity="1" fill-rule="nonzero"/><path fill="rgb(22.749329%, 26.669312%, 39.99939%)" d="M 124.964844 37.050781 L 127.804688 37.050781 L 127.804688 65.550781 L 88.019531 65.550781 L 88.019531 62.699219 L 124.964844 62.699219 Z M 99.386719 25.648438 L 96.546875 25.648438 L 96.546875 34.199219 L 99.386719 34.199219 Z M 65.285156 57 L 85.179688 57 L 85.179688 54.148438 L 65.285156 54.148438 Z M 139.171875 17.101562 L 139.171875 31.351562 L 110.753906 31.351562 L 110.753906 34.199219 L 142.015625 34.199219 L 142.015625 17.101562 Z M 139.171875 17.101562 " fill-opacity="1" fill-rule="nonzero"/><path fill="rgb(17.248535%, 90.979004%, 96.078491%)" d="M 39.707031 74.101562 L 36.867188 74.101562 L 36.867188 11.398438 L 39.707031 11.398438 Z M 73.8125 11.398438 L 39.707031 11.398438 L 39.707031 8.550781 L 73.8125 8.550781 Z M 42.550781 76.949219 L 39.707031 76.949219 L 39.707031 74.101562 L 42.550781 74.101562 Z M 79.496094 11.398438 L 76.652344 11.398438 L 76.652344 8.550781 L 79.496094 8.550781 Z M 88.019531 11.398438 L 82.335938 11.398438 L 82.335938 8.550781 L 88.019531 8.550781 Z M 90.863281 11.398438 L 93.703125 11.398438 L 93.703125 8.550781 L 90.863281 8.550781 Z M 90.863281 11.398438 " fill-opacity="1" fill-rule="nonzero"/><path fill="rgb(75.289917%, 79.60968%, 86.268616%)" d="M 96.546875 37.050781 L 99.386719 37.050781 L 99.386719 57 L 85.179688 57 L 85.179688 54.148438 L 96.546875 54.148438 Z M 65.285156 105.449219 L 82.335938 105.449219 L 82.335938 102.601562 L 65.285156 102.601562 Z M 62.445312 111.148438 L 65.285156 111.148438 L 65.285156 105.449219 L 62.445312 105.449219 Z M 28.339844 76.949219 L 31.183594 76.949219 L 31.183594 8.550781 L 28.339844 8.550781 Z M 31.183594 8.550781 L 34.023438 8.550781 L 34.023438 5.699219 L 31.183594 5.699219 Z M 34.023438 5.699219 L 36.867188 5.699219 L 36.867188 2.851562 L 34.023438 2.851562 Z M 34.023438 79.800781 L 34.023438 76.949219 L 31.183594 76.949219 L 31.183594 79.800781 Z M 36.867188 82.648438 L 36.867188 79.800781 L 34.023438 79.800781 L 34.023438 82.648438 Z M 147.699219 5.699219 L 147.699219 8.550781 L 150.539062 8.550781 L 150.539062 5.699219 Z M 147.699219 79.800781 L 150.539062 79.800781 L 150.539062 76.949219 L 147.699219 76.949219 Z M 150.539062 8.550781 L 150.539062 11.398438 L 153.382812 11.398438 L 153.382812 8.550781 Z M 150.539062 76.949219 L 153.382812 76.949219 L 153.382812 74.101562 L 150.539062 74.101562 Z M 153.382812 11.398438 L 153.382812 74.101562 L 156.222656 74.101562 L 156.222656 11.398438 Z M 82.335938 102.601562 L 85.179688 102.601562 L 85.179688 99.75 L 82.335938 99.75 Z M 85.179688 99.75 L 88.019531 99.75 L 88.019531 96.898438 L 85.179688 96.898438 Z M 88.019531 96.898438 L 90.863281 96.898438 L 90.863281 85.5 L 88.019531 85.5 Z M 113.597656 22.800781 L 136.332031 22.800781 L 136.332031 19.949219 L 113.597656 19.949219 Z M 119.28125 28.5 L 136.332031 28.5 L 136.332031 25.648438 L 119.28125 25.648438 Z M 119.28125 28.5 " fill-opacity="1" fill-rule="nonzero"/><path fill="rgb(9.408569%, 7.839966%, 14.509583%)" d="M 96.546875 34.199219 L 99.386719 34.199219 L 99.386719 37.050781 L 96.546875 37.050781 Z M 96.546875 34.199219 " fill-opacity="1" fill-rule="nonzero"/></svg>