<svg xmlns="http://www.w3.org/2000/svg" xmlns:xlink="http://www.w3.org/1999/xlink" width="250" zoomAndPan="magnify" viewBox="0 0 187.5 187.499992" height="250" preserveAspectRatio="xMidYMid meet" version="1.0"><defs><clipPath id="id1"><path d="M 29.414062 0 L 158.414062 0 L 158.414062 187 L 29.414062 187 Z M 29.414062 0 " clip-rule="nonzero"/></clipPath></defs><path fill="rgb(33.329773%, 16.079712%, 11.369324%)" d="M 74.050781 58.003906 L 74.050781 55.285156 C 74.050781 54.550781 74.648438 53.957031 75.382812 53.957031 L 89.496094 53.957031 L 89.496094 51.238281 C 89.496094 50.503906 90.089844 49.910156 90.824219 49.910156 L 98.757812 49.910156 L 98.757812 47.195312 C 98.757812 46.464844 99.355469 45.871094 100.085938 45.867188 L 103.183594 45.859375 C 103.234375 45.859375 103.285156 45.859375 103.339844 45.867188 L 109.199219 45.867188 C 109.25 45.859375 109.304688 45.859375 109.359375 45.859375 L 117.292969 45.859375 L 117.292969 43.140625 C 117.292969 42.40625 117.886719 41.8125 118.625 41.8125 L 132.738281 41.8125 L 132.738281 39.089844 C 132.738281 38.355469 133.332031 37.761719 134.066406 37.761719 L 142 37.761719 L 142 28.273438 L 138.484375 28.273438 L 138.484375 30.992188 C 138.484375 31.726562 137.890625 32.320312 137.15625 32.320312 L 134.222656 32.320312 C 134.171875 32.328125 134.121094 32.332031 134.066406 32.332031 L 130.976562 32.332031 C 130.925781 32.332031 130.871094 32.328125 130.820312 32.320312 L 123.042969 32.320312 L 123.042969 35.039062 C 123.042969 35.773438 122.449219 36.367188 121.710938 36.367188 L 107.601562 36.367188 L 107.601562 39.089844 C 107.601562 39.820312 107.007812 40.414062 106.273438 40.417969 L 103.183594 40.425781 C 103.128906 40.425781 103.074219 40.421875 103.023438 40.417969 L 95.246094 40.417969 L 95.246094 43.148438 C 95.246094 43.882812 94.648438 44.476562 93.914062 44.476562 L 90.824219 44.476562 C 90.777344 44.476562 90.722656 44.472656 90.675781 44.46875 L 79.804688 44.46875 L 79.804688 47.1875 C 79.804688 47.917969 79.207031 48.515625 78.472656 48.515625 L 73.625 48.515625 L 73.625 58.003906 Z M 44.496094 186.175781 C 43.761719 186.175781 43.164062 185.578125 43.164062 184.847656 L 43.164062 182.117188 L 41.554688 182.117188 C 41.507812 182.121094 41.457031 182.125 41.40625 182.125 L 38.320312 182.125 C 37.582031 182.125 36.988281 181.53125 36.988281 180.796875 L 36.988281 178.070312 L 35.230469 178.070312 C 34.496094 178.070312 33.902344 177.476562 33.902344 176.742188 L 33.902344 174.027344 L 32.140625 174.027344 C 31.40625 174.027344 30.808594 173.433594 30.808594 172.699219 L 30.808594 152.457031 C 30.808594 151.722656 31.40625 151.128906 32.140625 151.128906 L 33.902344 151.128906 L 33.902344 148.398438 C 33.902344 147.667969 34.496094 147.074219 35.230469 147.074219 L 36.988281 147.074219 L 36.988281 144.363281 C 36.988281 143.628906 37.582031 143.035156 38.320312 143.035156 L 41.25 143.035156 C 41.300781 143.027344 41.355469 143.023438 41.40625 143.023438 L 43.164062 143.023438 L 43.164062 140.3125 C 43.164062 139.582031 43.761719 138.984375 44.496094 138.984375 L 47.4375 138.984375 C 47.484375 138.976562 47.535156 138.976562 47.585938 138.976562 L 59.941406 138.976562 C 59.988281 138.976562 60.039062 138.976562 60.089844 138.984375 L 61.699219 138.984375 L 61.699219 26.945312 C 61.699219 26.210938 62.292969 25.617188 63.027344 25.617188 L 74.050781 25.617188 L 74.050781 22.894531 C 74.050781 22.164062 74.648438 21.566406 75.382812 21.566406 L 89.496094 21.566406 L 89.496094 18.847656 C 89.496094 18.113281 90.089844 17.519531 90.824219 17.519531 L 101.851562 17.519531 L 101.851562 14.796875 C 101.851562 14.0625 102.445312 13.472656 103.183594 13.472656 L 106.269531 13.472656 C 106.324219 13.472656 106.375 13.476562 106.425781 13.480469 L 109.199219 13.480469 C 109.25 13.476562 109.304688 13.472656 109.359375 13.472656 L 117.292969 13.472656 L 117.292969 10.75 C 117.292969 10.019531 117.886719 9.421875 118.625 9.421875 L 132.738281 9.421875 L 132.738281 6.703125 C 132.738281 5.96875 133.332031 5.375 134.066406 5.375 L 148.179688 5.375 L 148.179688 2.65625 C 148.179688 1.921875 148.773438 1.328125 149.511719 1.328125 L 155.6875 1.328125 C 156.421875 1.328125 157.019531 1.921875 157.019531 2.65625 L 157.019531 152.449219 C 157.019531 153.183594 156.421875 153.777344 155.6875 153.777344 L 153.929688 153.777344 L 153.929688 156.5 C 153.929688 157.230469 153.335938 157.828125 152.601562 157.828125 L 150.84375 157.828125 L 150.84375 160.546875 C 150.84375 161.277344 150.246094 161.875 149.511719 161.875 L 147.75 161.875 L 147.75 164.597656 C 147.75 165.328125 147.15625 165.925781 146.417969 165.925781 L 121.710938 165.925781 C 120.976562 165.925781 120.378906 165.328125 120.378906 164.597656 L 120.378906 161.875 L 115.535156 161.875 C 114.800781 161.875 114.203125 161.277344 114.203125 160.546875 L 114.203125 157.828125 L 112.445312 157.828125 C 111.710938 157.828125 111.113281 157.230469 111.113281 156.5 L 111.113281 149.726562 L 109.359375 149.726562 C 108.625 149.726562 108.027344 149.136719 108.027344 148.398438 L 108.027344 140.304688 C 108.027344 139.570312 108.625 138.976562 109.359375 138.976562 L 111.113281 138.976562 L 111.113281 132.207031 C 111.113281 131.472656 111.710938 130.878906 112.445312 130.878906 L 114.203125 130.878906 L 114.203125 128.15625 C 114.203125 127.421875 114.800781 126.832031 115.535156 126.832031 L 117.292969 126.832031 L 117.292969 124.109375 C 117.292969 123.378906 117.886719 122.78125 118.625 122.78125 L 123.46875 122.78125 L 123.46875 120.0625 C 123.46875 119.328125 124.066406 118.734375 124.800781 118.734375 L 138.914062 118.734375 L 138.914062 64.710938 L 129.222656 64.710938 L 129.222656 67.429688 C 129.222656 68.164062 128.625 68.757812 127.890625 68.757812 L 124.949219 68.757812 C 124.902344 68.761719 124.851562 68.765625 124.800781 68.765625 L 121.710938 68.765625 C 121.660156 68.765625 121.613281 68.761719 121.5625 68.757812 L 113.777344 68.757812 L 113.777344 71.480469 C 113.777344 72.210938 113.179688 72.808594 112.445312 72.808594 L 98.332031 72.808594 L 98.332031 75.527344 C 98.332031 76.261719 97.738281 76.855469 97 76.855469 L 85.980469 76.855469 L 85.980469 79.574219 C 85.980469 80.308594 85.382812 80.902344 84.648438 80.902344 L 79.804688 80.902344 L 79.804688 164.601562 C 79.804688 165.335938 79.207031 165.929688 78.472656 165.929688 L 76.714844 165.929688 L 76.714844 172.691406 C 76.714844 173.425781 76.121094 174.019531 75.382812 174.019531 L 73.625 174.019531 L 73.625 176.742188 C 73.625 177.476562 73.03125 178.070312 72.292969 178.070312 L 70.535156 178.070312 L 70.535156 180.789062 C 70.535156 181.523438 69.941406 182.117188 69.203125 182.117188 L 64.359375 182.117188 L 64.359375 184.839844 C 64.359375 185.570312 63.761719 186.167969 63.027344 186.167969 L 47.742188 186.167969 C 47.691406 186.171875 47.636719 186.175781 47.585938 186.175781 L 44.496094 186.175781 " fill-opacity="1" fill-rule="nonzero"/><g clip-path="url(#id1)"><path fill="rgb(1.568604%, 2.349854%, 2.349854%)" d="M 139.816406 29.601562 L 140.671875 29.601562 L 140.671875 36.433594 L 134.066406 36.433594 C 132.597656 36.433594 131.40625 37.625 131.40625 39.089844 L 131.40625 40.484375 L 118.625 40.484375 C 117.152344 40.484375 115.960938 41.671875 115.960938 43.140625 L 115.960938 44.53125 L 109.359375 44.53125 C 109.28125 44.53125 109.207031 44.535156 109.132812 44.539062 L 103.402344 44.539062 C 103.328125 44.535156 103.253906 44.53125 103.179688 44.53125 L 103.171875 44.53125 L 100.085938 44.539062 C 98.617188 44.546875 97.429688 45.734375 97.429688 47.195312 L 97.429688 48.582031 L 90.824219 48.582031 C 89.355469 48.582031 88.164062 49.769531 88.164062 51.238281 L 88.164062 52.628906 L 75.382812 52.628906 C 75.238281 52.628906 75.097656 52.640625 74.957031 52.664062 L 74.957031 49.84375 L 78.472656 49.84375 C 79.941406 49.84375 81.132812 48.652344 81.132812 47.1875 L 81.132812 45.792969 L 90.613281 45.792969 C 90.683594 45.800781 90.753906 45.804688 90.824219 45.804688 L 93.914062 45.804688 C 95.386719 45.804688 96.578125 44.613281 96.578125 43.148438 L 96.578125 41.746094 L 102.960938 41.746094 C 103.03125 41.75 103.105469 41.753906 103.183594 41.753906 L 103.1875 41.753906 L 106.277344 41.746094 C 107.742188 41.742188 108.929688 40.554688 108.929688 39.089844 L 108.929688 37.695312 L 121.710938 37.695312 C 123.183594 37.695312 124.375 36.507812 124.375 35.039062 L 124.375 33.648438 L 130.753906 33.648438 C 130.828125 33.65625 130.902344 33.660156 130.976562 33.660156 L 134.066406 33.660156 C 134.144531 33.660156 134.21875 33.65625 134.292969 33.648438 L 137.15625 33.648438 C 138.625 33.648438 139.816406 32.460938 139.816406 30.992188 Z M 155.6875 0 L 149.511719 0 C 148.039062 0 146.847656 1.1875 146.847656 2.65625 L 146.847656 4.046875 L 134.066406 4.046875 C 132.597656 4.046875 131.40625 5.234375 131.40625 6.703125 L 131.40625 8.09375 L 118.625 8.09375 C 117.152344 8.09375 115.960938 9.285156 115.960938 10.75 L 115.960938 12.144531 L 109.359375 12.144531 C 109.28125 12.144531 109.207031 12.148438 109.132812 12.152344 L 106.492188 12.152344 C 106.417969 12.148438 106.34375 12.144531 106.269531 12.144531 L 103.183594 12.144531 C 101.710938 12.144531 100.519531 13.332031 100.519531 14.796875 L 100.519531 16.191406 L 90.824219 16.191406 C 89.355469 16.191406 88.164062 17.382812 88.164062 18.847656 L 88.164062 20.238281 L 75.382812 20.238281 C 73.914062 20.238281 72.71875 21.429688 72.71875 22.894531 L 72.71875 24.289062 L 63.027344 24.289062 C 61.558594 24.289062 60.367188 25.476562 60.367188 26.945312 L 60.367188 137.65625 L 60.148438 137.65625 C 60.082031 137.652344 60.011719 137.648438 59.941406 137.648438 L 47.585938 137.648438 C 47.511719 137.648438 47.441406 137.652344 47.375 137.65625 L 44.496094 137.65625 C 43.027344 137.65625 41.835938 138.84375 41.835938 140.3125 L 41.835938 141.695312 L 41.40625 141.695312 C 41.332031 141.695312 41.257812 141.699219 41.183594 141.707031 L 38.320312 141.707031 C 36.847656 141.707031 35.65625 142.894531 35.65625 144.363281 L 35.65625 145.746094 L 35.230469 145.746094 C 33.761719 145.746094 32.570312 146.933594 32.570312 148.398438 L 32.570312 149.804688 L 32.140625 149.804688 C 30.671875 149.804688 29.476562 150.992188 29.476562 152.457031 L 29.476562 172.699219 C 29.476562 174.167969 30.671875 175.355469 32.140625 175.355469 L 32.570312 175.355469 L 32.570312 176.742188 C 32.570312 178.207031 33.761719 179.394531 35.230469 179.394531 L 35.65625 179.394531 L 35.65625 180.796875 C 35.65625 182.265625 36.847656 183.453125 38.320312 183.453125 L 41.40625 183.453125 C 41.480469 183.453125 41.550781 183.449219 41.621094 183.445312 L 41.835938 183.445312 L 41.835938 184.847656 C 41.835938 186.3125 43.027344 187.503906 44.496094 187.503906 L 47.585938 187.503906 C 47.660156 187.503906 47.734375 187.5 47.8125 187.496094 L 63.027344 187.496094 C 64.496094 187.496094 65.691406 186.304688 65.691406 184.839844 L 65.691406 183.445312 L 69.203125 183.445312 C 70.675781 183.445312 71.867188 182.253906 71.867188 180.789062 L 71.867188 179.394531 L 72.292969 179.394531 C 73.765625 179.394531 74.957031 178.207031 74.957031 176.742188 L 74.957031 175.347656 L 75.382812 175.347656 C 76.855469 175.347656 78.046875 174.160156 78.046875 172.691406 L 78.046875 167.257812 L 78.472656 167.257812 C 79.941406 167.257812 81.132812 166.070312 81.132812 164.601562 L 81.132812 82.230469 L 84.648438 82.230469 C 86.117188 82.230469 87.308594 81.042969 87.308594 79.574219 L 87.308594 78.183594 L 97 78.183594 C 98.472656 78.183594 99.664062 76.996094 99.664062 75.527344 L 99.664062 74.136719 L 112.445312 74.136719 C 113.914062 74.136719 115.105469 72.945312 115.105469 71.480469 L 115.105469 70.085938 L 121.5 70.085938 C 121.570312 70.089844 121.640625 70.09375 121.710938 70.09375 L 124.800781 70.09375 C 124.871094 70.09375 124.941406 70.089844 125.011719 70.085938 L 127.890625 70.085938 C 129.359375 70.085938 130.550781 68.894531 130.550781 67.429688 L 130.550781 66.035156 L 137.582031 66.035156 L 137.582031 117.40625 L 124.800781 117.40625 C 123.332031 117.40625 122.136719 118.59375 122.136719 120.0625 L 122.136719 121.453125 L 118.625 121.453125 C 117.152344 121.453125 115.960938 122.644531 115.960938 124.109375 L 115.960938 125.503906 L 115.535156 125.503906 C 114.066406 125.503906 112.871094 126.691406 112.871094 128.15625 L 112.871094 129.550781 L 112.445312 129.550781 C 110.976562 129.550781 109.78125 130.742188 109.78125 132.207031 L 109.78125 137.648438 L 109.359375 137.648438 C 107.886719 137.648438 106.695312 138.835938 106.695312 140.304688 L 106.695312 148.398438 C 106.695312 149.867188 107.886719 151.054688 109.359375 151.054688 L 109.78125 151.054688 L 109.78125 156.5 C 109.78125 157.964844 110.976562 159.152344 112.445312 159.152344 L 112.871094 159.152344 L 112.871094 160.546875 C 112.871094 162.011719 114.066406 163.203125 115.535156 163.203125 L 119.050781 163.203125 L 119.050781 164.597656 C 119.050781 166.0625 120.242188 167.253906 121.710938 167.253906 L 146.417969 167.253906 C 147.890625 167.253906 149.082031 166.0625 149.082031 164.597656 L 149.082031 163.203125 L 149.511719 163.203125 C 150.980469 163.203125 152.171875 162.011719 152.171875 160.546875 L 152.171875 159.152344 L 152.601562 159.152344 C 154.070312 159.152344 155.261719 157.964844 155.261719 156.5 L 155.261719 155.105469 L 155.6875 155.105469 C 157.15625 155.105469 158.347656 153.914062 158.347656 152.449219 L 158.347656 2.65625 C 158.347656 1.1875 157.15625 0 155.6875 0 Z M 130.976562 31.003906 L 130.976562 30.992188 L 121.710938 30.992188 L 121.710938 35.039062 L 106.269531 35.039062 L 106.269531 39.089844 L 103.183594 39.097656 L 103.183594 39.089844 L 93.914062 39.089844 L 93.914062 43.148438 L 90.824219 43.148438 L 90.824219 43.140625 L 78.472656 43.140625 L 78.472656 47.1875 L 72.292969 47.1875 L 72.292969 59.332031 L 75.382812 59.332031 L 75.382812 55.285156 L 90.824219 55.285156 L 90.824219 51.238281 L 100.089844 51.238281 L 100.089844 47.195312 L 103.183594 47.1875 L 103.183594 47.195312 L 109.359375 47.195312 L 109.359375 47.1875 L 118.625 47.1875 L 118.625 43.140625 L 134.066406 43.140625 L 134.066406 39.089844 L 143.332031 39.089844 L 143.332031 26.945312 L 137.15625 26.945312 L 137.15625 30.992188 L 134.066406 30.992188 L 134.066406 31.003906 L 130.976562 31.003906 M 155.6875 2.65625 L 155.6875 152.449219 L 152.601562 152.449219 L 152.601562 156.5 L 149.511719 156.5 L 149.511719 160.546875 L 146.417969 160.546875 L 146.417969 164.597656 L 121.710938 164.597656 L 121.710938 160.546875 L 115.535156 160.546875 L 115.535156 156.5 L 112.445312 156.5 L 112.445312 148.398438 L 109.359375 148.398438 L 109.359375 140.304688 L 112.445312 140.304688 L 112.445312 132.207031 L 115.535156 132.207031 L 115.535156 128.15625 L 118.625 128.15625 L 118.625 124.109375 L 124.800781 124.109375 L 124.800781 120.0625 L 140.242188 120.0625 L 140.242188 63.382812 L 127.890625 63.382812 L 127.890625 67.429688 L 124.800781 67.429688 L 124.800781 67.4375 L 121.710938 67.4375 L 121.710938 67.429688 L 112.445312 67.429688 L 112.445312 71.480469 L 97 71.480469 L 97 75.527344 L 84.648438 75.527344 L 84.648438 79.574219 L 78.472656 79.574219 L 78.472656 164.601562 L 75.382812 164.601562 L 75.382812 172.691406 L 72.292969 172.691406 L 72.292969 176.742188 L 69.203125 176.742188 L 69.203125 180.789062 L 63.027344 180.789062 L 63.027344 184.839844 L 47.585938 184.839844 L 47.585938 184.847656 L 44.496094 184.847656 L 44.496094 180.789062 L 41.40625 180.789062 L 41.40625 180.796875 L 38.320312 180.796875 L 38.320312 176.742188 L 35.230469 176.742188 L 35.230469 172.699219 L 32.140625 172.699219 L 32.140625 152.457031 L 35.230469 152.457031 L 35.230469 148.398438 L 38.320312 148.398438 L 38.320312 144.363281 L 41.40625 144.363281 L 41.40625 144.351562 L 44.496094 144.351562 L 44.496094 140.3125 L 47.585938 140.3125 L 47.585938 140.304688 L 59.941406 140.304688 L 59.941406 140.3125 L 63.027344 140.3125 L 63.027344 26.945312 L 75.382812 26.945312 L 75.382812 22.894531 L 90.824219 22.894531 L 90.824219 18.847656 L 103.183594 18.847656 L 103.183594 14.796875 L 106.269531 14.796875 L 106.269531 14.808594 L 109.359375 14.808594 L 109.359375 14.796875 L 118.625 14.796875 L 118.625 10.75 L 134.066406 10.75 L 134.066406 6.703125 L 149.511719 6.703125 L 149.511719 2.65625 L 155.6875 2.65625 " fill-opacity="1" fill-rule="nonzero"/></g><path fill="rgb(32.939148%, 32.939148%, 32.939148%)" d="M 143.332031 31.003906 L 143.332031 39.089844 L 134.066406 39.089844 L 134.066406 43.140625 L 118.625 43.140625 L 118.625 47.1875 L 109.359375 47.1875 L 109.359375 47.195312 L 103.183594 47.195312 L 103.183594 47.1875 L 100.089844 47.195312 L 100.089844 51.238281 L 90.824219 51.238281 L 90.824219 55.285156 L 75.382812 55.285156 L 75.382812 59.332031 L 72.292969 59.332031 L 72.292969 47.1875 L 78.472656 47.1875 L 78.472656 43.140625 L 90.824219 43.140625 L 90.824219 43.148438 L 93.914062 43.148438 L 93.914062 39.089844 L 103.183594 39.089844 L 103.183594 39.097656 L 106.269531 39.089844 L 106.269531 35.039062 L 121.710938 35.039062 L 121.710938 30.992188 L 130.976562 30.992188 L 130.976562 31.003906 L 134.066406 31.003906 L 134.066406 30.992188 L 137.15625 30.992188 L 137.15625 26.945312 L 143.332031 26.945312 Z M 152.601562 2.65625 L 149.511719 2.65625 L 149.511719 6.703125 L 134.066406 6.703125 L 134.066406 10.75 L 118.625 10.75 L 118.625 14.796875 L 109.359375 14.796875 L 109.359375 14.808594 L 106.269531 14.808594 L 106.269531 14.796875 L 103.183594 14.796875 L 103.183594 18.847656 L 90.824219 18.847656 L 90.824219 22.894531 L 75.382812 22.894531 L 75.382812 26.945312 L 63.027344 26.945312 L 63.027344 140.3125 L 59.941406 140.3125 L 59.941406 140.304688 L 47.585938 140.304688 L 47.585938 140.3125 L 44.496094 140.3125 L 44.496094 144.351562 L 41.40625 144.351562 L 41.40625 144.363281 L 38.320312 144.363281 L 38.320312 148.398438 L 35.230469 148.398438 L 35.230469 152.457031 L 32.140625 152.457031 L 32.140625 172.699219 L 35.230469 172.699219 L 35.230469 176.742188 L 38.320312 176.742188 L 38.320312 180.796875 L 41.40625 180.796875 L 41.40625 180.789062 L 44.496094 180.789062 L 44.496094 184.847656 L 47.585938 184.847656 L 47.585938 184.839844 L 63.027344 184.839844 L 63.027344 180.789062 L 69.203125 180.789062 L 69.203125 176.742188 L 72.292969 176.742188 L 72.292969 172.691406 L 75.382812 172.691406 L 75.382812 164.601562 L 78.472656 164.601562 L 78.472656 79.574219 L 84.648438 79.574219 L 84.648438 75.527344 L 97 75.527344 L 97 71.480469 L 112.445312 71.480469 L 112.445312 67.429688 L 121.710938 67.429688 L 121.710938 67.4375 L 124.800781 67.4375 L 124.800781 67.429688 L 127.890625 67.429688 L 127.890625 63.382812 L 140.242188 63.382812 L 140.242188 120.0625 L 124.800781 120.0625 L 124.800781 124.109375 L 118.625 124.109375 L 118.625 128.15625 L 115.535156 128.15625 L 115.535156 132.207031 L 112.445312 132.207031 L 112.445312 140.304688 L 109.359375 140.304688 L 109.359375 148.398438 L 112.445312 148.398438 L 112.445312 156.5 L 115.535156 156.5 L 115.535156 160.546875 L 121.710938 160.546875 L 121.710938 164.597656 L 146.417969 164.597656 L 146.417969 160.546875 L 149.511719 160.546875 L 149.511719 156.5 L 152.601562 156.5 L 152.601562 152.449219 L 155.6875 152.449219 L 155.6875 2.65625 L 152.601562 2.65625 " fill-opacity="1" fill-rule="nonzero"/><path fill="rgb(1.568604%, 2.349854%, 2.349854%)" d="M 143.332031 31.003906 L 143.066406 31.003906 L 143.066406 38.824219 L 133.800781 38.824219 L 133.800781 42.875 L 118.359375 42.875 L 118.359375 46.921875 L 109.089844 46.921875 L 109.089844 46.929688 L 103.183594 46.929688 L 103.183594 47.195312 L 103.445312 47.195312 L 103.445312 46.921875 L 99.824219 46.933594 L 99.824219 50.96875 L 97 50.972656 L 90.558594 50.972656 L 90.558594 55.015625 L 87.738281 55.019531 L 75.117188 55.019531 L 75.117188 59.066406 L 72.558594 59.066406 L 72.558594 47.453125 L 78.738281 47.453125 L 78.738281 43.40625 L 90.824219 43.40625 L 90.824219 43.140625 L 90.558594 43.140625 L 90.558594 43.414062 L 94.179688 43.414062 L 94.179688 39.089844 L 93.914062 39.089844 L 93.914062 39.355469 L 103.183594 39.355469 L 103.183594 39.089844 L 102.914062 39.089844 L 102.914062 39.363281 L 106.535156 39.355469 L 106.535156 35.304688 L 121.976562 35.304688 L 121.976562 31.257812 L 130.976562 31.257812 L 130.976562 30.992188 L 130.710938 30.992188 L 130.710938 31.265625 L 134.332031 31.265625 L 134.332031 31.257812 L 137.421875 31.257812 L 137.421875 27.210938 L 143.066406 27.210938 L 143.066406 31.003906 L 143.597656 31.003906 L 143.597656 26.679688 L 136.886719 26.679688 L 136.886719 30.726562 L 133.800781 30.726562 L 133.800781 30.734375 L 130.976562 30.738281 L 130.976562 31.003906 L 131.242188 31.003906 L 131.242188 30.726562 L 121.445312 30.726562 L 121.445312 34.773438 L 106.003906 34.773438 L 106.003906 38.824219 L 103.179688 38.832031 L 103.183594 39.097656 L 103.445312 39.097656 L 103.445312 38.824219 L 93.648438 38.824219 L 93.648438 42.882812 L 90.824219 42.882812 L 90.824219 43.148438 L 91.09375 43.148438 L 91.09375 42.875 L 78.207031 42.875 L 78.207031 46.921875 L 72.027344 46.921875 L 72.027344 59.597656 L 75.648438 59.597656 L 75.648438 55.546875 L 91.09375 55.546875 L 91.09375 51.5 L 100.355469 51.5 L 100.355469 47.460938 L 103.183594 47.453125 L 103.183594 47.1875 L 102.914062 47.1875 L 102.914062 47.460938 L 109.625 47.460938 L 109.625 47.453125 L 118.890625 47.453125 L 118.890625 43.40625 L 134.332031 43.40625 L 134.332031 39.355469 L 143.597656 39.355469 L 143.597656 31.003906 Z M 152.601562 2.65625 L 152.601562 2.390625 L 149.246094 2.390625 L 149.246094 6.433594 L 146.417969 6.4375 L 133.800781 6.4375 L 133.800781 10.484375 L 118.359375 10.484375 L 118.359375 14.53125 L 109.089844 14.53125 L 109.089844 14.542969 L 106.269531 14.542969 L 106.269531 14.808594 L 106.535156 14.808594 L 106.535156 14.53125 L 102.914062 14.53125 L 102.914062 18.582031 L 90.558594 18.582031 L 90.558594 22.628906 L 75.117188 22.628906 L 75.117188 26.679688 L 62.761719 26.679688 L 62.761719 140.3125 L 63.027344 140.3125 L 63.027344 140.046875 L 59.941406 140.046875 L 59.941406 140.3125 L 60.207031 140.3125 L 60.207031 140.039062 L 47.320312 140.039062 L 47.320312 140.046875 L 44.230469 140.046875 L 44.230469 144.085938 L 41.140625 144.085938 L 41.140625 144.097656 L 38.050781 144.097656 L 38.050781 148.132812 L 34.964844 148.132812 L 34.964844 152.457031 L 35.230469 152.457031 L 35.230469 152.191406 L 31.875 152.191406 L 31.875 172.964844 L 34.964844 172.964844 L 34.964844 177.007812 L 38.320312 177.007812 L 38.320312 176.742188 L 38.050781 176.742188 L 38.050781 181.0625 L 41.675781 181.0625 L 41.675781 181.054688 L 44.496094 181.054688 L 44.496094 180.789062 L 44.230469 180.789062 L 44.230469 185.113281 L 47.851562 185.113281 L 47.851562 185.101562 L 63.292969 185.101562 L 63.292969 181.054688 L 69.472656 181.054688 L 69.472656 177.007812 L 72.558594 177.007812 L 72.558594 172.957031 L 75.648438 172.957031 L 75.648438 164.867188 L 78.738281 164.867188 L 78.738281 79.574219 L 78.472656 79.574219 L 78.472656 79.839844 L 84.914062 79.839844 L 84.914062 75.792969 L 97.269531 75.792969 L 97.269531 71.742188 L 112.710938 71.742188 L 112.710938 67.695312 L 121.710938 67.695312 L 121.710938 67.429688 L 121.445312 67.429688 L 121.445312 67.703125 L 125.066406 67.703125 L 125.066406 67.695312 L 128.15625 67.695312 L 128.15625 63.648438 L 139.976562 63.648438 L 139.976562 119.796875 L 124.535156 119.796875 L 124.535156 123.84375 L 118.359375 123.84375 L 118.359375 127.890625 L 115.265625 127.890625 L 115.265625 131.941406 L 112.179688 131.941406 L 112.179688 140.039062 L 109.089844 140.039062 L 109.089844 148.664062 L 112.179688 148.664062 L 112.179688 156.765625 L 115.535156 156.765625 L 115.535156 156.5 L 115.265625 156.5 L 115.265625 160.8125 L 121.445312 160.8125 L 121.445312 164.859375 L 146.6875 164.859375 L 146.6875 160.8125 L 149.773438 160.8125 L 149.773438 156.765625 L 152.863281 156.765625 L 152.863281 152.714844 L 155.953125 152.714844 L 155.953125 2.390625 L 152.601562 2.390625 L 152.601562 2.917969 L 155.421875 2.917969 L 155.421875 152.183594 L 152.332031 152.183594 L 152.332031 156.234375 L 149.246094 156.234375 L 149.246094 160.28125 L 146.152344 160.28125 L 146.152344 164.328125 L 143.332031 164.332031 L 121.976562 164.332031 L 121.976562 160.28125 L 115.800781 160.28125 L 115.800781 156.234375 L 112.710938 156.234375 L 112.710938 148.132812 L 109.625 148.132812 L 109.625 140.570312 L 112.710938 140.570312 L 112.710938 132.472656 L 115.800781 132.472656 L 115.800781 128.421875 L 118.890625 128.421875 L 118.890625 124.375 L 125.066406 124.375 L 125.066406 120.324219 L 140.511719 120.324219 L 140.511719 63.117188 L 127.625 63.117188 L 127.625 67.164062 L 124.535156 67.164062 L 124.535156 67.171875 L 121.710938 67.171875 L 121.710938 67.4375 L 121.976562 67.4375 L 121.976562 67.164062 L 112.179688 67.164062 L 112.179688 71.214844 L 96.734375 71.214844 L 96.734375 75.261719 L 84.382812 75.261719 L 84.382812 79.308594 L 78.207031 79.308594 L 78.207031 164.335938 L 75.117188 164.335938 L 75.117188 172.425781 L 72.027344 172.425781 L 72.027344 176.476562 L 68.9375 176.476562 L 68.9375 180.523438 L 62.761719 180.523438 L 62.761719 184.574219 L 47.320312 184.574219 L 47.320312 184.582031 L 44.761719 184.582031 L 44.761719 180.523438 L 41.140625 180.523438 L 41.140625 180.53125 L 38.585938 180.53125 L 38.585938 176.476562 L 35.496094 176.476562 L 35.496094 172.433594 L 32.40625 172.433594 L 32.40625 152.722656 L 35.496094 152.722656 L 35.496094 148.664062 L 38.585938 148.664062 L 38.585938 144.625 L 41.675781 144.625 L 41.675781 144.617188 L 44.761719 144.617188 L 44.761719 140.578125 L 47.851562 140.578125 L 47.851562 140.570312 L 59.941406 140.570312 L 59.941406 140.304688 L 59.671875 140.304688 L 59.671875 140.578125 L 63.296875 140.578125 L 63.296875 140.304688 L 63.292969 136.253906 L 63.292969 27.210938 L 75.648438 27.210938 L 75.648438 23.160156 L 91.09375 23.160156 L 91.09375 19.113281 L 103.445312 19.113281 L 103.445312 15.0625 L 106.269531 15.0625 L 106.269531 14.796875 L 106.003906 14.796875 L 106.003906 15.074219 L 109.625 15.074219 L 109.625 15.0625 L 118.890625 15.0625 L 118.890625 11.015625 L 134.332031 11.015625 L 134.332031 6.964844 L 149.773438 6.964844 L 149.773438 2.917969 L 152.601562 2.917969 L 152.601562 2.65625 " fill-opacity="1" fill-rule="nonzero"/></svg>