<svg xmlns="http://www.w3.org/2000/svg" xmlns:xlink="http://www.w3.org/1999/xlink" width="250" zoomAndPan="magnify" viewBox="0 0 187.5 187.499992" height="250" preserveAspectRatio="xMidYMid meet" version="1.0"><defs><clipPath id="id1"><path d="M 62.460938 12 L 75 12 L 75 26 L 62.460938 26 Z M 62.460938 12 " clip-rule="nonzero"/></clipPath><clipPath id="id2"><path d="M 112 12 L 124.710938 12 L 124.710938 26 L 112 26 Z M 112 12 " clip-rule="nonzero"/></clipPath><clipPath id="id3"><path d="M 112 62 L 124.710938 62 L 124.710938 76 L 112 76 Z M 112 62 " clip-rule="nonzero"/></clipPath><clipPath id="id4"><path d="M 112 75 L 124.710938 75 L 124.710938 88 L 112 88 Z M 112 75 " clip-rule="nonzero"/></clipPath><clipPath id="id5"><path d="M 112 87 L 124.710938 87 L 124.710938 101 L 112 101 Z M 112 87 " clip-rule="nonzero"/></clipPath><clipPath id="id6"><path d="M 112 100 L 124.710938 100 L 124.710938 113 L 112 113 Z M 112 100 " clip-rule="nonzero"/></clipPath><clipPath id="id7"><path d="M 62.460938 87 L 75 87 L 75 101 L 62.460938 101 Z M 62.460938 87 " clip-rule="nonzero"/></clipPath><clipPath id="id8"><path d="M 62.460938 100 L 75 100 L 75 113 L 62.460938 113 Z M 62.460938 100 " clip-rule="nonzero"/></clipPath><clipPath id="id9"><path d="M 112 112 L 124.710938 112 L 124.710938 126 L 112 126 Z M 112 112 " clip-rule="nonzero"/></clipPath><clipPath id="id10"><path d="M 62.460938 112 L 75 112 L 75 126 L 62.460938 126 Z M 62.460938 112 " clip-rule="nonzero"/></clipPath><clipPath id="id11"><path d="M 99 175 L 113 175 L 113 187 L 99 187 Z M 99 175 " clip-rule="nonzero"/></clipPath><clipPath id="id12"><path d="M 112 175 L 124.710938 175 L 124.710938 187 L 112 187 Z M 112 175 " clip-rule="nonzero"/></clipPath><clipPath id="id13"><path d="M 74 175 L 88 175 L 88 187 L 74 187 Z M 74 175 " clip-rule="nonzero"/></clipPath><clipPath id="id14"><path d="M 62.460938 175 L 75 175 L 75 187 L 62.460938 187 Z M 62.460938 175 " clip-rule="nonzero"/></clipPath><clipPath id="id15"><path d="M 62.460938 62 L 75 62 L 75 76 L 62.460938 76 Z M 62.460938 62 " clip-rule="nonzero"/></clipPath><clipPath id="id16"><path d="M 62.460938 75 L 75 75 L 75 88 L 62.460938 88 Z M 62.460938 75 " clip-rule="nonzero"/></clipPath><clipPath id="id17"><path d="M 112 25 L 124.710938 25 L 124.710938 38 L 112 38 Z M 112 25 " clip-rule="nonzero"/></clipPath><clipPath id="id18"><path d="M 62.460938 25 L 75 25 L 75 38 L 62.460938 38 Z M 62.460938 25 " clip-rule="nonzero"/></clipPath><clipPath id="id19"><path d="M 112 37 L 124.710938 37 L 124.710938 51 L 112 51 Z M 112 37 " clip-rule="nonzero"/></clipPath><clipPath id="id20"><path d="M 62.460938 37 L 75 37 L 75 51 L 62.460938 51 Z M 62.460938 37 " clip-rule="nonzero"/></clipPath><clipPath id="id21"><path d="M 112 50 L 124.710938 50 L 124.710938 63 L 112 63 Z M 112 50 " clip-rule="nonzero"/></clipPath><clipPath id="id22"><path d="M 62.460938 50 L 75 50 L 75 63 L 62.460938 63 Z M 62.460938 50 " clip-rule="nonzero"/></clipPath></defs><g clip-path="url(#id1)"><path fill="rgb(25.099182%, 17.248535%, 5.488586%)" d="M 74.9375 25.027344 L 62.5 25.027344 L 62.5 12.527344 L 74.9375 12.527344 L 74.9375 25.027344 " fill-opacity="1" fill-rule="nonzero"/></g><path fill="rgb(25.099182%, 17.248535%, 5.488586%)" d="M 99.800781 25.027344 L 87.371094 25.027344 L 87.371094 12.527344 L 99.800781 12.527344 L 99.800781 25.027344 " fill-opacity="1" fill-rule="nonzero"/><path fill="rgb(25.099182%, 17.248535%, 5.488586%)" d="M 112.238281 25.027344 L 99.800781 25.027344 L 99.800781 12.527344 L 112.238281 12.527344 L 112.238281 25.027344 " fill-opacity="1" fill-rule="nonzero"/><g clip-path="url(#id2)"><path fill="rgb(25.099182%, 17.248535%, 5.488586%)" d="M 124.671875 25.027344 L 112.238281 25.027344 L 112.238281 12.527344 L 124.671875 12.527344 L 124.671875 25.027344 " fill-opacity="1" fill-rule="nonzero"/></g><path fill="rgb(25.099182%, 17.248535%, 5.488586%)" d="M 87.371094 12.527344 L 74.9375 12.527344 L 74.9375 0.0234375 L 87.371094 0.0234375 L 87.371094 12.527344 " fill-opacity="1" fill-rule="nonzero"/><path fill="rgb(25.099182%, 17.248535%, 5.488586%)" d="M 99.800781 12.527344 L 87.371094 12.527344 L 87.371094 0.0234375 L 99.800781 0.0234375 L 99.800781 12.527344 " fill-opacity="1" fill-rule="nonzero"/><path fill="rgb(25.099182%, 17.248535%, 5.488586%)" d="M 112.238281 12.527344 L 99.800781 12.527344 L 99.800781 0.0234375 L 112.238281 0.0234375 L 112.238281 12.527344 " fill-opacity="1" fill-rule="nonzero"/><path fill="rgb(25.099182%, 17.248535%, 5.488586%)" d="M 87.371094 25.027344 L 74.9375 25.027344 L 74.9375 12.527344 L 87.371094 12.527344 L 87.371094 25.027344 " fill-opacity="1" fill-rule="nonzero"/><path fill="rgb(97.648621%, 69.018555%, 54.119873%)" d="M 99.800781 37.527344 L 87.371094 37.527344 L 87.371094 25.027344 L 99.800781 25.027344 L 99.800781 37.527344 " fill-opacity="1" fill-rule="nonzero"/><path fill="rgb(97.648621%, 69.018555%, 54.119873%)" d="M 87.371094 37.527344 L 74.9375 37.527344 L 74.9375 25.027344 L 87.371094 25.027344 L 87.371094 37.527344 " fill-opacity="1" fill-rule="nonzero"/><path fill="rgb(97.648621%, 69.018555%, 54.119873%)" d="M 112.238281 37.527344 L 99.800781 37.527344 L 99.800781 25.027344 L 112.238281 25.027344 L 112.238281 37.527344 " fill-opacity="1" fill-rule="nonzero"/><path fill="rgb(97.648621%, 69.018555%, 54.119873%)" d="M 87.371094 50.027344 L 74.9375 50.027344 L 74.9375 37.527344 L 87.371094 37.527344 L 87.371094 50.027344 " fill-opacity="1" fill-rule="nonzero"/><path fill="rgb(97.648621%, 69.018555%, 54.119873%)" d="M 99.800781 50.027344 L 87.371094 50.027344 L 87.371094 37.527344 L 99.800781 37.527344 L 99.800781 50.027344 " fill-opacity="1" fill-rule="nonzero"/><path fill="rgb(97.648621%, 69.018555%, 54.119873%)" d="M 99.800781 62.527344 L 87.371094 62.527344 L 87.371094 50.027344 L 99.800781 50.027344 L 99.800781 62.527344 " fill-opacity="1" fill-rule="nonzero"/><path fill="rgb(0%, 0%, 0%)" d="M 99.800781 75.027344 L 87.371094 75.027344 L 87.371094 62.527344 L 99.800781 62.527344 L 99.800781 75.027344 " fill-opacity="1" fill-rule="nonzero"/><path fill="rgb(0%, 0%, 0%)" d="M 112.238281 75.027344 L 99.800781 75.027344 L 99.800781 62.527344 L 112.238281 62.527344 L 112.238281 75.027344 " fill-opacity="1" fill-rule="nonzero"/><g clip-path="url(#id3)"><path fill="rgb(0%, 0%, 0%)" d="M 124.671875 75.027344 L 112.238281 75.027344 L 112.238281 62.527344 L 124.671875 62.527344 L 124.671875 75.027344 " fill-opacity="1" fill-rule="nonzero"/></g><g clip-path="url(#id4)"><path fill="rgb(97.648621%, 69.018555%, 54.119873%)" d="M 124.671875 87.53125 L 112.238281 87.53125 L 112.238281 75.027344 L 124.671875 75.027344 L 124.671875 87.53125 " fill-opacity="1" fill-rule="nonzero"/></g><g clip-path="url(#id5)"><path fill="rgb(97.648621%, 69.018555%, 54.119873%)" d="M 124.671875 100.027344 L 112.238281 100.027344 L 112.238281 87.53125 L 124.671875 87.53125 L 124.671875 100.027344 " fill-opacity="1" fill-rule="nonzero"/></g><g clip-path="url(#id6)"><path fill="rgb(97.648621%, 69.018555%, 54.119873%)" d="M 124.671875 112.527344 L 112.238281 112.527344 L 112.238281 100.027344 L 124.671875 100.027344 L 124.671875 112.527344 " fill-opacity="1" fill-rule="nonzero"/></g><g clip-path="url(#id7)"><path fill="rgb(97.648621%, 69.018555%, 54.119873%)" d="M 74.9375 100.027344 L 62.5 100.027344 L 62.5 87.53125 L 74.9375 87.53125 L 74.9375 100.027344 " fill-opacity="1" fill-rule="nonzero"/></g><g clip-path="url(#id8)"><path fill="rgb(97.648621%, 69.018555%, 54.119873%)" d="M 74.9375 112.527344 L 62.5 112.527344 L 62.5 100.027344 L 74.9375 100.027344 L 74.9375 112.527344 " fill-opacity="1" fill-rule="nonzero"/></g><g clip-path="url(#id9)"><path fill="rgb(97.648621%, 69.018555%, 54.119873%)" d="M 124.671875 125.027344 L 112.238281 125.027344 L 112.238281 112.527344 L 124.671875 112.527344 L 124.671875 125.027344 " fill-opacity="1" fill-rule="nonzero"/></g><g clip-path="url(#id10)"><path fill="rgb(97.648621%, 69.018555%, 54.119873%)" d="M 74.9375 125.027344 L 62.5 125.027344 L 62.5 112.527344 L 74.9375 112.527344 L 74.9375 125.027344 " fill-opacity="1" fill-rule="nonzero"/></g><path fill="rgb(0%, 0%, 0%)" d="M 87.371094 75.027344 L 74.9375 75.027344 L 74.9375 62.527344 L 87.371094 62.527344 L 87.371094 75.027344 " fill-opacity="1" fill-rule="nonzero"/><path fill="rgb(0%, 0%, 0%)" d="M 99.800781 87.53125 L 87.371094 87.53125 L 87.371094 75.027344 L 99.800781 75.027344 L 99.800781 87.53125 " fill-opacity="1" fill-rule="nonzero"/><path fill="rgb(0%, 0%, 0%)" d="M 112.238281 87.53125 L 99.800781 87.53125 L 99.800781 75.027344 L 112.238281 75.027344 L 112.238281 87.53125 " fill-opacity="1" fill-rule="nonzero"/><path fill="rgb(0%, 0%, 0%)" d="M 87.371094 87.53125 L 74.9375 87.53125 L 74.9375 75.027344 L 87.371094 75.027344 L 87.371094 87.53125 " fill-opacity="1" fill-rule="nonzero"/><path fill="rgb(0%, 0%, 0%)" d="M 99.800781 100.027344 L 87.371094 100.027344 L 87.371094 87.53125 L 99.800781 87.53125 L 99.800781 100.027344 " fill-opacity="1" fill-rule="nonzero"/><path fill="rgb(0%, 0%, 0%)" d="M 112.238281 100.027344 L 99.800781 100.027344 L 99.800781 87.53125 L 112.238281 87.53125 L 112.238281 100.027344 " fill-opacity="1" fill-rule="nonzero"/><path fill="rgb(0%, 0%, 0%)" d="M 87.371094 100.027344 L 74.9375 100.027344 L 74.9375 87.53125 L 87.371094 87.53125 L 87.371094 100.027344 " fill-opacity="1" fill-rule="nonzero"/><path fill="rgb(0%, 0%, 0%)" d="M 99.800781 112.527344 L 87.371094 112.527344 L 87.371094 100.027344 L 99.800781 100.027344 L 99.800781 112.527344 " fill-opacity="1" fill-rule="nonzero"/><path fill="rgb(0%, 0%, 0%)" d="M 112.238281 112.527344 L 99.800781 112.527344 L 99.800781 100.027344 L 112.238281 100.027344 L 112.238281 112.527344 " fill-opacity="1" fill-rule="nonzero"/><path fill="rgb(0%, 0%, 0%)" d="M 87.371094 112.527344 L 74.9375 112.527344 L 74.9375 100.027344 L 87.371094 100.027344 L 87.371094 112.527344 " fill-opacity="1" fill-rule="nonzero"/><path fill="rgb(0%, 0%, 0%)" d="M 99.800781 125.027344 L 87.371094 125.027344 L 87.371094 112.527344 L 99.800781 112.527344 L 99.800781 125.027344 " fill-opacity="1" fill-rule="nonzero"/><path fill="rgb(0%, 0%, 0%)" d="M 112.238281 125.027344 L 99.800781 125.027344 L 99.800781 112.527344 L 112.238281 112.527344 L 112.238281 125.027344 " fill-opacity="1" fill-rule="nonzero"/><path fill="rgb(0%, 0%, 0%)" d="M 87.371094 125.027344 L 74.9375 125.027344 L 74.9375 112.527344 L 87.371094 112.527344 L 87.371094 125.027344 " fill-opacity="1" fill-rule="nonzero"/><path fill="rgb(6.269836%, 50.979614%, 80.778503%)" d="M 99.800781 137.527344 L 87.371094 137.527344 L 87.371094 125.027344 L 99.800781 125.027344 L 99.800781 137.527344 " fill-opacity="1" fill-rule="nonzero"/><path fill="rgb(6.269836%, 50.979614%, 80.778503%)" d="M 112.238281 137.527344 L 99.800781 137.527344 L 99.800781 125.027344 L 112.238281 125.027344 L 112.238281 137.527344 " fill-opacity="1" fill-rule="nonzero"/><path fill="rgb(6.269836%, 50.979614%, 80.778503%)" d="M 87.371094 137.527344 L 74.9375 137.527344 L 74.9375 125.027344 L 87.371094 125.027344 L 87.371094 137.527344 " fill-opacity="1" fill-rule="nonzero"/><path fill="rgb(6.269836%, 50.979614%, 80.778503%)" d="M 112.238281 150.027344 L 99.800781 150.027344 L 99.800781 137.527344 L 112.238281 137.527344 L 112.238281 150.027344 " fill-opacity="1" fill-rule="nonzero"/><path fill="rgb(6.269836%, 50.979614%, 80.778503%)" d="M 87.371094 150.027344 L 74.9375 150.027344 L 74.9375 137.527344 L 87.371094 137.527344 L 87.371094 150.027344 " fill-opacity="1" fill-rule="nonzero"/><path fill="rgb(6.269836%, 50.979614%, 80.778503%)" d="M 112.238281 162.53125 L 99.800781 162.53125 L 99.800781 150.027344 L 112.238281 150.027344 L 112.238281 162.53125 " fill-opacity="1" fill-rule="nonzero"/><path fill="rgb(6.269836%, 50.979614%, 80.778503%)" d="M 87.371094 162.53125 L 74.9375 162.53125 L 74.9375 150.027344 L 87.371094 150.027344 L 87.371094 162.53125 " fill-opacity="1" fill-rule="nonzero"/><path fill="rgb(6.269836%, 50.979614%, 80.778503%)" d="M 112.238281 175.03125 L 99.800781 175.03125 L 99.800781 162.53125 L 112.238281 162.53125 L 112.238281 175.03125 " fill-opacity="1" fill-rule="nonzero"/><path fill="rgb(6.269836%, 50.979614%, 80.778503%)" d="M 87.371094 175.03125 L 74.9375 175.03125 L 74.9375 162.53125 L 87.371094 162.53125 L 87.371094 175.03125 " fill-opacity="1" fill-rule="nonzero"/><g clip-path="url(#id11)"><path fill="rgb(25.099182%, 17.248535%, 5.488586%)" d="M 112.238281 187.527344 L 99.800781 187.527344 L 99.800781 175.03125 L 112.238281 175.03125 L 112.238281 187.527344 " fill-opacity="1" fill-rule="nonzero"/></g><g clip-path="url(#id12)"><path fill="rgb(25.099182%, 17.248535%, 5.488586%)" d="M 124.671875 187.527344 L 112.238281 187.527344 L 112.238281 175.03125 L 124.671875 175.03125 L 124.671875 187.527344 " fill-opacity="1" fill-rule="nonzero"/></g><g clip-path="url(#id13)"><path fill="rgb(25.099182%, 17.248535%, 5.488586%)" d="M 87.371094 187.527344 L 74.9375 187.527344 L 74.9375 175.03125 L 87.371094 175.03125 L 87.371094 187.527344 " fill-opacity="1" fill-rule="nonzero"/></g><g clip-path="url(#id14)"><path fill="rgb(25.099182%, 17.248535%, 5.488586%)" d="M 74.9375 187.527344 L 62.5 187.527344 L 62.5 175.03125 L 74.9375 175.03125 L 74.9375 187.527344 " fill-opacity="1" fill-rule="nonzero"/></g><g clip-path="url(#id15)"><path fill="rgb(0%, 0%, 0%)" d="M 74.9375 75.027344 L 62.5 75.027344 L 62.5 62.527344 L 74.9375 62.527344 L 74.9375 75.027344 " fill-opacity="1" fill-rule="nonzero"/></g><g clip-path="url(#id16)"><path fill="rgb(97.648621%, 69.018555%, 54.119873%)" d="M 74.9375 87.53125 L 62.5 87.53125 L 62.5 75.027344 L 74.9375 75.027344 L 74.9375 87.53125 " fill-opacity="1" fill-rule="nonzero"/></g><path fill="rgb(97.648621%, 69.018555%, 54.119873%)" d="M 112.238281 50.027344 L 99.800781 50.027344 L 99.800781 37.527344 L 112.238281 37.527344 L 112.238281 50.027344 " fill-opacity="1" fill-rule="nonzero"/><g clip-path="url(#id17)"><path fill="rgb(25.099182%, 17.248535%, 5.488586%)" d="M 124.671875 37.527344 L 112.238281 37.527344 L 112.238281 25.027344 L 124.671875 25.027344 L 124.671875 37.527344 " fill-opacity="1" fill-rule="nonzero"/></g><g clip-path="url(#id18)"><path fill="rgb(25.099182%, 17.248535%, 5.488586%)" d="M 74.9375 37.527344 L 62.5 37.527344 L 62.5 25.027344 L 74.9375 25.027344 L 74.9375 37.527344 " fill-opacity="1" fill-rule="nonzero"/></g><g clip-path="url(#id19)"><path fill="rgb(25.099182%, 17.248535%, 5.488586%)" d="M 124.671875 50.027344 L 112.238281 50.027344 L 112.238281 37.527344 L 124.671875 37.527344 L 124.671875 50.027344 " fill-opacity="1" fill-rule="nonzero"/></g><g clip-path="url(#id20)"><path fill="rgb(25.099182%, 17.248535%, 5.488586%)" d="M 74.9375 50.027344 L 62.5 50.027344 L 62.5 37.527344 L 74.9375 37.527344 L 74.9375 50.027344 " fill-opacity="1" fill-rule="nonzero"/></g><g clip-path="url(#id21)"><path fill="rgb(25.099182%, 17.248535%, 5.488586%)" d="M 124.671875 62.527344 L 112.238281 62.527344 L 112.238281 50.027344 L 124.671875 50.027344 L 124.671875 62.527344 " fill-opacity="1" fill-rule="nonzero"/></g><path fill="rgb(25.099182%, 17.248535%, 5.488586%)" d="M 112.238281 62.527344 L 99.800781 62.527344 L 99.800781 50.027344 L 112.238281 50.027344 L 112.238281 62.527344 " fill-opacity="1" fill-rule="nonzero"/><path fill="rgb(25.099182%, 17.248535%, 5.488586%)" d="M 87.371094 62.527344 L 74.9375 62.527344 L 74.9375 50.027344 L 87.371094 50.027344 L 87.371094 62.527344 " fill-opacity="1" fill-rule="nonzero"/><g clip-path="url(#id22)"><path fill="rgb(25.099182%, 17.248535%, 5.488586%)" d="M 74.9375 62.527344 L 62.5 62.527344 L 62.5 50.027344 L 74.9375 50.027344 L 74.9375 62.527344 " fill-opacity="1" fill-rule="nonzero"/></g></svg>