<svg xmlns="http://www.w3.org/2000/svg" xmlns:xlink="http://www.w3.org/1999/xlink" width="50" zoomAndPan="magnify" viewBox="0 0 37.5 37.499999" height="50" preserveAspectRatio="xMidYMid meet" version="1.0"><defs><clipPath id="id1"><path d="M 0 10.738281 L 37.007812 10.738281 L 37.007812 26.488281 L 0 26.488281 Z M 0 10.738281 " clip-rule="nonzero"/></clipPath><clipPath id="id2"><path d="M 0 10.738281 L 37.007812 10.738281 L 37.007812 26.488281 L 0 26.488281 Z M 0 10.738281 " clip-rule="nonzero"/></clipPath></defs><g clip-path="url(#id1)"><path fill="rgb(30.979919%, 44.709778%, 16.468811%)" d="M 37.359375 13.914062 L 36.394531 13.914062 L 36.394531 12.953125 L 36.378906 12.953125 L 36.378906 12.949219 L 35.308594 12.949219 L 35.308594 11.886719 L 34.226562 11.886719 L 34.226562 10.820312 L 34.210938 10.820312 L 34.210938 10.816406 L 3.269531 10.816406 L 3.269531 11.882812 L 2.292969 11.882812 L 2.292969 12.917969 L 2.265625 12.917969 L 2.265625 12.949219 L 1.207031 12.949219 L 1.207031 13.910156 L 0.121094 13.910156 L 0.121094 23.394531 L 1.207031 23.394531 L 1.207031 24.460938 L 1.21875 24.460938 L 1.21875 24.464844 L 2.289062 24.464844 L 2.289062 25.417969 L 3.269531 25.417969 L 3.269531 26.480469 L 34.226562 26.480469 L 34.226562 25.425781 L 34.214844 25.425781 L 35.3125 25.425781 L 35.3125 24.46875 L 36.398438 24.46875 L 36.398438 23.398438 L 37.375 23.398438 L 37.375 13.914062 Z M 35.277344 13.960938 L 35.277344 12.953125 L 35.320312 12.953125 L 35.320312 13.960938 Z M 1.21875 23.371094 L 2.265625 23.371094 L 2.265625 23.394531 L 1.21875 23.394531 Z M 34.703125 23.007812 L 36.273438 23.007812 L 36.273438 23.042969 L 34.734375 23.042969 L 34.734375 24.355469 L 34.703125 24.355469 Z M 34.703125 23.007812 " fill-opacity="1" fill-rule="nonzero"/><path fill="rgb(45.489502%, 62.748718%, 31.369019%)" d="M 36.449219 13.863281 L 36.449219 12.945312 L 36.433594 12.945312 L 36.433594 12.902344 L 35.347656 12.902344 L 35.347656 12.945312 L 35.316406 12.945312 L 35.316406 12.902344 L 35.347656 12.902344 L 35.347656 11.835938 L 34.261719 11.835938 L 34.261719 11.855469 L 34.25 11.855469 L 34.25 11.835938 L 34.261719 11.835938 L 34.261719 10.765625 L 3.277344 10.765625 L 3.277344 11.835938 L 2.296875 11.835938 L 2.296875 12.871094 L 2.28125 12.871094 L 2.28125 12.867188 L 2.257812 12.867188 L 2.257812 12.898438 L 2.273438 12.898438 L 2.273438 12.902344 L 1.210938 12.902344 L 1.210938 13.863281 L 0.121094 13.863281 L 0.121094 23.378906 L 1.210938 23.378906 L 1.210938 23.351562 L 1.21875 23.351562 L 1.21875 23.378906 L 1.210938 23.378906 L 1.210938 24.449219 L 2.296875 24.449219 L 2.296875 25.410156 L 3.277344 25.410156 L 3.277344 26.480469 L 34.261719 26.480469 L 34.261719 25.425781 L 34.859375 25.425781 L 34.859375 25.410156 L 35.347656 25.410156 L 35.347656 24.449219 L 36.433594 24.449219 L 36.433594 23.378906 L 37.414062 23.378906 L 37.414062 13.863281 Z M 36.449219 13.863281 " fill-opacity="1" fill-rule="nonzero"/></g><path fill="rgb(100%, 100%, 100%)" d="M 7.585938 21.25 L 7.585938 22.296875 L 8.652344 22.296875 L 8.652344 19.15625 L 7.585938 19.15625 Z M 7.585938 21.25 " fill-opacity="1" fill-rule="nonzero"/><path fill="rgb(100%, 100%, 100%)" d="M 12.917969 13.914062 L 9.71875 13.914062 L 9.71875 14.960938 L 11.851562 14.960938 L 11.851562 23.347656 L 12.917969 23.347656 L 12.917969 14.960938 L 15.050781 14.960938 L 15.050781 13.914062 Z M 12.917969 13.914062 " fill-opacity="1" fill-rule="nonzero"/><path fill="rgb(100%, 100%, 100%)" d="M 6.523438 13.914062 L 4.390625 13.914062 L 4.390625 14.960938 L 8.652344 14.960938 L 8.652344 13.914062 Z M 6.523438 13.914062 " fill-opacity="1" fill-rule="nonzero"/><path fill="rgb(100%, 100%, 100%)" d="M 5.457031 22.296875 L 3.324219 22.296875 L 3.324219 23.347656 L 7.585938 23.347656 L 7.585938 22.296875 Z M 5.457031 22.296875 " fill-opacity="1" fill-rule="nonzero"/><path fill="rgb(100%, 100%, 100%)" d="M 5.457031 19.15625 L 7.585938 19.15625 L 7.585938 18.105469 L 4.390625 18.105469 L 4.390625 19.15625 Z M 5.457031 19.15625 " fill-opacity="1" fill-rule="nonzero"/><path fill="rgb(100%, 100%, 100%)" d="M 3.324219 16.011719 L 3.324219 18.105469 L 4.390625 18.105469 L 4.390625 14.960938 L 3.324219 14.960938 Z M 3.324219 16.011719 " fill-opacity="1" fill-rule="nonzero"/><path fill="rgb(100%, 100%, 100%)" d="M 26.773438 16.011719 L 26.773438 18.105469 L 27.839844 18.105469 L 27.839844 14.960938 L 26.773438 14.960938 Z M 26.773438 16.011719 " fill-opacity="1" fill-rule="nonzero"/><path fill="rgb(100%, 100%, 100%)" d="M 24.640625 18.105469 L 23.574219 18.105469 L 23.574219 14.960938 L 26.773438 14.960938 L 26.773438 13.914062 L 22.507812 13.914062 L 22.507812 23.347656 L 23.574219 23.347656 L 23.574219 19.15625 L 26.773438 19.15625 L 26.773438 18.105469 Z M 24.640625 18.105469 " fill-opacity="1" fill-rule="nonzero"/><path fill="rgb(100%, 100%, 100%)" d="M 33.167969 13.914062 L 28.90625 13.914062 L 28.90625 14.960938 L 31.039062 14.960938 L 31.039062 23.347656 L 32.101562 23.347656 L 32.101562 14.960938 L 34.234375 14.960938 L 34.234375 13.914062 Z M 33.167969 13.914062 " fill-opacity="1" fill-rule="nonzero"/><path fill="rgb(100%, 100%, 100%)" d="M 20.378906 16.011719 L 20.378906 18.105469 L 17.179688 18.105469 L 17.179688 14.960938 L 16.113281 14.960938 L 16.113281 23.347656 L 17.179688 23.347656 L 17.179688 19.15625 L 20.378906 19.15625 L 20.378906 23.347656 L 21.445312 23.347656 L 21.445312 14.960938 L 20.378906 14.960938 Z M 20.378906 16.011719 " fill-opacity="1" fill-rule="nonzero"/><path fill="rgb(100%, 100%, 100%)" d="M 26.773438 21.25 L 26.773438 23.347656 L 27.839844 23.347656 L 27.839844 19.15625 L 26.773438 19.15625 Z M 26.773438 21.25 " fill-opacity="1" fill-rule="nonzero"/><path fill="rgb(100%, 100%, 100%)" d="M 19.3125 14.960938 L 20.378906 14.960938 L 20.378906 13.914062 L 17.179688 13.914062 L 17.179688 14.960938 Z M 19.3125 14.960938 " fill-opacity="1" fill-rule="nonzero"/><path fill="rgb(30.979919%, 44.709778%, 16.468811%)" d="M 20.378906 22.296875 L 20.378906 19.15625 L 19.3125 19.15625 L 19.3125 23.347656 L 20.378906 23.347656 Z M 20.378906 22.296875 " fill-opacity="1" fill-rule="nonzero"/><path fill="rgb(30.979919%, 44.709778%, 16.468811%)" d="M 16.113281 13.914062 L 17.179688 13.914062 L 17.179688 14.960938 L 16.113281 14.960938 Z M 16.113281 13.914062 " fill-opacity="1" fill-rule="nonzero"/><path fill="rgb(30.979919%, 44.709778%, 16.468811%)" d="M 20.378906 17.058594 L 20.378906 14.960938 L 19.3125 14.960938 L 19.3125 18.105469 L 20.378906 18.105469 Z M 20.378906 17.058594 " fill-opacity="1" fill-rule="nonzero"/><path fill="rgb(30.979919%, 44.709778%, 16.468811%)" d="M 16.113281 22.296875 L 16.113281 14.960938 L 15.050781 14.960938 L 15.050781 23.347656 L 16.113281 23.347656 Z M 16.113281 22.296875 " fill-opacity="1" fill-rule="nonzero"/><path fill="rgb(30.979919%, 44.709778%, 16.468811%)" d="M 27.839844 13.914062 L 28.90625 13.914062 L 28.90625 14.960938 L 27.839844 14.960938 Z M 27.839844 13.914062 " fill-opacity="1" fill-rule="nonzero"/><path fill="rgb(30.979919%, 44.709778%, 16.468811%)" d="M 26.773438 17.058594 L 26.773438 14.960938 L 25.707031 14.960938 L 25.707031 18.105469 L 26.773438 18.105469 Z M 26.773438 17.058594 " fill-opacity="1" fill-rule="nonzero"/><path fill="rgb(30.979919%, 44.709778%, 16.468811%)" d="M 22.507812 22.296875 L 22.507812 13.914062 L 21.445312 13.914062 L 21.445312 23.347656 L 22.507812 23.347656 Z M 22.507812 22.296875 " fill-opacity="1" fill-rule="nonzero"/><path fill="rgb(30.979919%, 44.709778%, 16.468811%)" d="M 31.039062 22.296875 L 31.039062 14.960938 L 29.972656 14.960938 L 29.972656 23.347656 L 31.039062 23.347656 Z M 31.039062 22.296875 " fill-opacity="1" fill-rule="nonzero"/><path fill="rgb(30.979919%, 44.709778%, 16.468811%)" d="M 11.851562 22.296875 L 11.851562 14.960938 L 10.785156 14.960938 L 10.785156 23.347656 L 11.851562 23.347656 Z M 11.851562 22.296875 " fill-opacity="1" fill-rule="nonzero"/><path fill="rgb(30.979919%, 44.709778%, 16.468811%)" d="M 26.773438 22.296875 L 26.773438 19.15625 L 25.707031 19.15625 L 25.707031 23.347656 L 26.773438 23.347656 Z M 26.773438 22.296875 " fill-opacity="1" fill-rule="nonzero"/><path fill="rgb(30.979919%, 44.709778%, 16.468811%)" d="M 3.324219 18.105469 L 4.390625 18.105469 L 4.390625 19.15625 L 3.324219 19.15625 Z M 3.324219 18.105469 " fill-opacity="1" fill-rule="nonzero"/><path fill="rgb(30.979919%, 44.709778%, 16.468811%)" d="M 32.101562 24.394531 L 3.371094 24.394531 L 3.371094 25.40625 L 34.234375 25.40625 L 34.234375 24.394531 Z M 32.101562 24.394531 " fill-opacity="1" fill-rule="nonzero"/><path fill="rgb(30.979919%, 44.709778%, 16.468811%)" d="M 34.234375 24.394531 L 34.246094 24.394531 L 34.246094 24.335938 L 35.300781 24.335938 L 35.300781 23.347656 L 34.234375 23.347656 Z M 34.234375 24.394531 " fill-opacity="1" fill-rule="nonzero"/><path fill="rgb(30.979919%, 44.709778%, 16.468811%)" d="M 35.335938 13.96875 L 35.335938 13.914062 L 35.300781 13.914062 L 35.300781 23.347656 L 36.3125 23.347656 L 36.3125 13.96875 Z M 35.335938 13.96875 " fill-opacity="1" fill-rule="nonzero"/><path fill="rgb(30.979919%, 44.709778%, 16.468811%)" d="M 2.257812 22.296875 L 3.324219 22.296875 L 3.324219 23.347656 L 2.257812 23.347656 Z M 2.257812 22.296875 " fill-opacity="1" fill-rule="nonzero"/><path fill="rgb(30.979919%, 44.709778%, 16.468811%)" d="M 7.585938 21.25 L 7.585938 19.15625 L 6.523438 19.15625 L 6.523438 22.296875 L 7.585938 22.296875 Z M 7.585938 21.25 " fill-opacity="1" fill-rule="nonzero"/><path fill="rgb(30.979919%, 44.709778%, 16.468811%)" d="M 8.652344 13.914062 L 9.71875 13.914062 L 9.71875 14.960938 L 8.652344 14.960938 Z M 8.652344 13.914062 " fill-opacity="1" fill-rule="nonzero"/><path fill="rgb(30.979919%, 44.709778%, 16.468811%)" d="M 3.324219 13.914062 L 4.390625 13.914062 L 4.390625 14.960938 L 3.324219 14.960938 Z M 3.324219 13.914062 " fill-opacity="1" fill-rule="nonzero"/><path fill="rgb(30.979919%, 44.709778%, 16.468811%)" d="M 3.324219 16.011719 L 3.324219 14.960938 L 2.257812 14.960938 L 2.257812 18.105469 L 3.324219 18.105469 Z M 3.324219 16.011719 " fill-opacity="1" fill-rule="nonzero"/><path fill="rgb(65.879822%, 83.918762%, 48.629761%)" d="M 1.195312 14.929688 L 1.195312 14.960938 L 2.257812 14.960938 L 2.257812 13.96875 L 1.195312 13.96875 Z M 1.195312 14.929688 " fill-opacity="1" fill-rule="nonzero"/><path fill="rgb(65.879822%, 83.918762%, 48.629761%)" d="M 34.246094 12.898438 L 34.246094 12.867188 L 34.234375 12.867188 L 34.234375 13.914062 L 35.300781 13.914062 L 35.300781 12.898438 Z M 34.246094 12.898438 " fill-opacity="1" fill-rule="nonzero"/><path fill="rgb(65.879822%, 83.918762%, 48.629761%)" d="M 33.167969 11.832031 L 3.371094 11.832031 L 3.371094 12.898438 L 2.28125 12.898438 L 2.28125 13.914062 L 4.390625 13.914062 L 4.390625 12.867188 L 34.234375 12.867188 L 34.234375 11.832031 Z M 33.167969 11.832031 " fill-opacity="1" fill-rule="nonzero"/><g clip-path="url(#id2)"><path fill="rgb(23.919678%, 23.139954%, 32.159424%)" d="M 36.441406 13.84375 L 36.441406 12.878906 L 35.355469 12.878906 L 35.355469 11.8125 L 34.265625 11.8125 L 34.265625 10.742188 L 3.242188 10.742188 L 3.242188 11.8125 L 2.261719 11.8125 L 2.261719 12.878906 L 1.175781 12.878906 L 1.175781 13.84375 L 0.0898438 13.84375 L 0.0898438 23.394531 L 1.175781 23.394531 L 1.175781 24.464844 L 2.261719 24.464844 L 2.261719 25.425781 L 3.242188 25.425781 L 3.242188 26.496094 L 34.265625 26.496094 L 34.265625 25.425781 L 35.351562 25.425781 L 35.351562 24.464844 L 36.4375 24.464844 L 36.4375 23.394531 L 37.417969 23.394531 L 37.417969 13.84375 Z M 36.289062 14.929688 L 36.289062 23.355469 L 35.316406 23.355469 L 35.316406 24.316406 L 34.226562 24.316406 L 34.226562 25.386719 L 3.390625 25.386719 L 3.390625 24.316406 L 2.304688 24.316406 L 2.304688 23.355469 L 1.21875 23.355469 L 1.21875 13.988281 L 2.304688 13.988281 L 2.304688 12.917969 L 3.390625 12.917969 L 3.390625 11.855469 L 34.226562 11.855469 L 34.226562 12.917969 L 35.3125 12.917969 L 35.3125 13.988281 L 36.289062 13.988281 Z M 36.289062 14.929688 " fill-opacity="1" fill-rule="nonzero"/></g></svg>