<svg xmlns="http://www.w3.org/2000/svg" xmlns:xlink="http://www.w3.org/1999/xlink" width="250" zoomAndPan="magnify" viewBox="0 0 187.5 37.5" height="50" preserveAspectRatio="xMidYMid meet" version="1.0"><defs><clipPath id="id1"><path d="M 1 2.730469 L 186.019531 2.730469 L 186.019531 33 L 1 33 Z M 1 2.730469 " clip-rule="nonzero"/></clipPath><clipPath id="id2"><path d="M 0.988281 2.730469 L 186.019531 2.730469 L 186.019531 33.160156 L 0.988281 33.160156 Z M 0.988281 2.730469 " clip-rule="nonzero"/></clipPath></defs><g clip-path="url(#id1)"><path fill="rgb(94.509888%, 36.468506%, 25.878906%)" d="M 34.199219 7.414062 L 35.703125 7.414062 L 35.703125 16.34375 L 34.199219 16.34375 L 34.199219 17.832031 L 32.695312 17.832031 L 32.695312 19.324219 L 31.191406 19.324219 L 31.191406 20.820312 L 29.6875 20.820312 L 29.6875 22.308594 L 28.179688 22.308594 L 28.179688 23.796875 L 26.679688 23.796875 L 26.679688 25.289062 L 25.175781 25.289062 L 25.175781 26.8125 L 23.671875 26.8125 L 23.671875 28.304688 L 22.167969 28.304688 L 22.167969 29.800781 L 20.660156 29.800781 L 20.660156 31.289062 L 19.160156 31.289062 L 19.160156 32.78125 L 17.65625 32.78125 L 17.65625 31.289062 L 16.148438 31.289062 L 16.148438 29.800781 L 14.648438 29.800781 L 14.648438 28.304688 L 13.140625 28.304688 L 13.140625 26.8125 L 11.636719 26.8125 L 11.636719 25.324219 L 10.136719 25.324219 L 10.136719 23.828125 L 8.628906 23.828125 L 8.628906 22.339844 L 7.128906 22.339844 L 7.128906 20.851562 L 5.613281 20.851562 L 5.613281 19.359375 L 4.117188 19.359375 L 4.117188 17.863281 L 2.617188 17.863281 L 2.617188 16.375 L 1.109375 16.375 L 1.109375 7.414062 L 2.617188 7.414062 L 2.617188 5.933594 L 4.117188 5.933594 L 4.117188 4.441406 L 5.613281 4.441406 L 5.613281 2.949219 L 14.648438 2.949219 L 14.648438 4.441406 L 16.148438 4.441406 L 16.148438 5.933594 L 17.65625 5.933594 L 17.65625 7.414062 L 19.160156 7.414062 L 19.160156 5.933594 L 20.660156 5.933594 L 20.660156 4.441406 L 22.167969 4.441406 L 22.167969 2.949219 L 31.171875 2.949219 L 31.171875 4.441406 L 32.679688 4.441406 L 32.679688 5.933594 L 34.183594 5.933594 Z M 71.832031 6.074219 L 70.328125 6.074219 L 70.328125 4.59375 L 68.824219 4.59375 L 68.824219 3.105469 L 59.816406 3.105469 L 59.816406 4.59375 L 58.3125 4.59375 L 58.3125 6.085938 L 56.785156 6.085938 L 56.785156 7.578125 L 55.28125 7.578125 L 55.28125 6.085938 L 53.773438 6.085938 L 53.773438 4.59375 L 52.28125 4.59375 L 52.28125 3.105469 L 43.273438 3.105469 L 43.273438 4.59375 L 41.75 4.59375 L 41.75 6.085938 L 40.25 6.085938 L 40.25 7.578125 L 38.742188 7.578125 L 38.742188 16.527344 L 40.25 16.527344 L 40.25 18.019531 L 41.75 18.019531 L 41.75 19.511719 L 43.273438 19.511719 L 43.273438 21 L 44.777344 21 L 44.777344 22.496094 L 46.28125 22.496094 L 46.28125 23.984375 L 47.777344 23.984375 L 47.777344 25.476562 L 49.28125 25.476562 L 49.28125 26.964844 L 50.78125 26.964844 L 50.78125 28.460938 L 52.28125 28.460938 L 52.28125 29.953125 L 53.785156 29.953125 L 53.785156 31.441406 L 55.289062 31.441406 L 55.289062 32.9375 L 56.785156 32.9375 L 56.785156 31.441406 L 58.285156 31.441406 L 58.285156 29.953125 L 59.792969 29.953125 L 59.792969 28.460938 L 61.285156 28.460938 L 61.285156 26.964844 L 62.792969 26.964844 L 62.792969 25.476562 L 64.296875 25.476562 L 64.296875 23.984375 L 65.796875 23.984375 L 65.796875 22.496094 L 67.304688 22.496094 L 67.304688 21 L 68.808594 21 L 68.808594 19.511719 L 70.3125 19.511719 L 70.3125 18.019531 L 71.816406 18.019531 L 71.816406 16.527344 L 73.316406 16.527344 L 73.316406 7.578125 L 71.816406 7.578125 Z M 109.496094 6.074219 L 107.992188 6.074219 L 107.992188 4.59375 L 106.484375 4.59375 L 106.484375 3.105469 L 97.480469 3.105469 L 97.480469 4.59375 L 95.972656 4.59375 L 95.972656 6.085938 L 94.445312 6.085938 L 94.445312 7.578125 L 92.945312 7.578125 L 92.945312 6.085938 L 91.4375 6.085938 L 91.4375 4.59375 L 89.941406 4.59375 L 89.941406 3.105469 L 80.9375 3.105469 L 80.9375 4.59375 L 79.429688 4.59375 L 79.429688 6.085938 L 77.929688 6.085938 L 77.929688 7.578125 L 76.421875 7.578125 L 76.421875 16.527344 L 77.929688 16.527344 L 77.929688 18.019531 L 79.429688 18.019531 L 79.429688 19.511719 L 80.9375 19.511719 L 80.9375 21 L 82.4375 21 L 82.4375 22.496094 L 83.941406 22.496094 L 83.941406 23.984375 L 85.441406 23.984375 L 85.441406 25.476562 L 86.941406 25.476562 L 86.941406 26.964844 L 88.445312 26.964844 L 88.445312 28.460938 L 89.941406 28.460938 L 89.941406 29.953125 L 91.445312 29.953125 L 91.445312 31.441406 L 92.953125 31.441406 L 92.953125 32.9375 L 94.445312 32.9375 L 94.445312 31.441406 L 95.949219 31.441406 L 95.949219 29.953125 L 97.453125 29.953125 L 97.453125 28.460938 L 98.949219 28.460938 L 98.949219 26.964844 L 100.457031 26.964844 L 100.457031 25.476562 L 101.957031 25.476562 L 101.957031 23.984375 L 103.460938 23.984375 L 103.460938 22.496094 L 104.964844 22.496094 L 104.964844 21 L 106.46875 21 L 106.46875 19.511719 L 107.976562 19.511719 L 107.976562 18.019531 L 109.476562 18.019531 L 109.476562 16.527344 L 110.980469 16.527344 L 110.980469 7.578125 L 109.476562 7.578125 Z M 147.15625 6.074219 L 145.652344 6.074219 L 145.652344 4.59375 L 144.148438 4.59375 L 144.148438 3.105469 L 135.140625 3.105469 L 135.140625 4.59375 L 133.636719 4.59375 L 133.636719 6.085938 L 132.109375 6.085938 L 132.109375 7.578125 L 130.605469 7.578125 L 130.605469 6.085938 L 129.097656 6.085938 L 129.097656 4.59375 L 127.605469 4.59375 L 127.605469 3.105469 L 118.597656 3.105469 L 118.597656 4.59375 L 117.09375 4.59375 L 117.09375 6.085938 L 115.589844 6.085938 L 115.589844 7.578125 L 114.082031 7.578125 L 114.082031 16.527344 L 115.589844 16.527344 L 115.589844 18.019531 L 117.09375 18.019531 L 117.09375 19.511719 L 118.597656 19.511719 L 118.597656 21 L 120.101562 21 L 120.101562 22.496094 L 121.601562 22.496094 L 121.601562 23.984375 L 123.101562 23.984375 L 123.101562 25.476562 L 124.605469 25.476562 L 124.605469 26.964844 L 126.105469 26.964844 L 126.105469 28.460938 L 127.605469 28.460938 L 127.605469 29.953125 L 129.105469 29.953125 L 129.105469 31.441406 L 130.613281 31.441406 L 130.613281 32.9375 L 132.109375 32.9375 L 132.109375 31.441406 L 133.609375 31.441406 L 133.609375 29.953125 L 135.117188 29.953125 L 135.117188 28.460938 L 136.609375 28.460938 L 136.609375 26.964844 L 138.117188 26.964844 L 138.117188 25.476562 L 139.621094 25.476562 L 139.621094 23.984375 L 141.121094 23.984375 L 141.121094 22.496094 L 142.628906 22.496094 L 142.628906 21 L 144.132812 21 L 144.132812 19.511719 L 145.636719 19.511719 L 145.636719 18.019531 L 147.140625 18.019531 L 147.140625 16.527344 L 148.640625 16.527344 L 148.640625 7.578125 L 147.140625 7.578125 Z M 184.820312 6.074219 L 183.316406 6.074219 L 183.316406 4.59375 L 181.808594 4.59375 L 181.808594 3.105469 L 172.804688 3.105469 L 172.804688 4.59375 L 171.296875 4.59375 L 171.296875 6.085938 L 169.769531 6.085938 L 169.769531 7.578125 L 168.265625 7.578125 L 168.265625 6.085938 L 166.761719 6.085938 L 166.761719 4.59375 L 165.265625 4.59375 L 165.265625 3.105469 L 156.261719 3.105469 L 156.261719 4.59375 L 154.753906 4.59375 L 154.753906 6.085938 L 153.25 6.085938 L 153.25 7.578125 L 151.746094 7.578125 L 151.746094 16.527344 L 153.25 16.527344 L 153.25 18.019531 L 154.753906 18.019531 L 154.753906 19.511719 L 156.261719 19.511719 L 156.261719 21 L 157.761719 21 L 157.761719 22.496094 L 159.265625 22.496094 L 159.265625 23.984375 L 160.765625 23.984375 L 160.765625 25.476562 L 162.265625 25.476562 L 162.265625 26.964844 L 163.769531 26.964844 L 163.769531 28.460938 L 165.265625 28.460938 L 165.265625 29.953125 L 166.769531 29.953125 L 166.769531 31.441406 L 168.277344 31.441406 L 168.277344 32.9375 L 169.769531 32.9375 L 169.769531 31.441406 L 171.273438 31.441406 L 171.273438 29.953125 L 172.777344 29.953125 L 172.777344 28.460938 L 174.273438 28.460938 L 174.273438 26.964844 L 175.78125 26.964844 L 175.78125 25.476562 L 177.28125 25.476562 L 177.28125 23.984375 L 178.785156 23.984375 L 178.785156 22.496094 L 180.289062 22.496094 L 180.289062 21 L 181.792969 21 L 181.792969 19.511719 L 183.300781 19.511719 L 183.300781 18.019531 L 184.800781 18.019531 L 184.800781 16.527344 L 186.304688 16.527344 L 186.304688 7.578125 L 184.800781 7.578125 Z M 184.820312 6.074219 " fill-opacity="1" fill-rule="nonzero"/></g><path fill="rgb(100%, 47.059631%, 43.139648%)" d="M 91.453125 25.546875 L 89.941406 25.546875 L 89.941406 24.042969 L 88.429688 24.042969 L 88.429688 22.546875 L 86.917969 22.546875 L 86.917969 21.050781 L 85.402344 21.050781 L 85.402344 19.546875 L 83.890625 19.546875 L 83.890625 18.050781 L 82.382812 18.050781 L 82.382812 15.050781 L 80.867188 15.050781 L 80.867188 13.554688 L 79.355469 13.554688 L 79.355469 9.058594 L 80.867188 9.058594 L 80.867188 7.5625 L 82.382812 7.5625 L 82.382812 6.058594 L 83.890625 6.058594 L 83.890625 7.5625 L 89.941406 7.5625 L 89.941406 9.058594 L 91.453125 9.058594 L 91.453125 6.058594 L 89.941406 6.058594 L 89.941406 4.5625 L 80.867188 4.5625 L 80.867188 6.058594 L 79.355469 6.058594 L 79.355469 7.5625 L 77.847656 7.5625 L 77.847656 16.554688 L 79.355469 16.554688 L 79.355469 18.050781 L 80.867188 18.050781 L 80.867188 19.546875 L 82.382812 19.546875 L 82.382812 21.050781 L 83.890625 21.050781 L 83.890625 22.546875 L 85.402344 22.546875 L 85.402344 24.042969 L 86.917969 24.042969 L 86.917969 25.546875 L 88.429688 25.546875 L 88.429688 27.042969 L 89.941406 27.042969 L 89.941406 28.546875 L 91.453125 28.546875 L 91.453125 30.042969 L 92.964844 30.042969 L 92.964844 27.042969 L 91.453125 27.042969 Z M 91.453125 25.546875 " fill-opacity="1" fill-rule="nonzero"/><path fill="rgb(100%, 47.059631%, 43.139648%)" d="M 103.546875 4.5625 L 97.5 4.5625 L 97.5 6.058594 L 95.988281 6.058594 L 95.988281 7.5625 L 94.472656 7.5625 L 94.472656 9.058594 L 97.5 9.058594 L 97.5 7.5625 L 103.546875 7.5625 L 103.546875 6.058594 L 105.0625 6.058594 L 105.0625 7.5625 L 106.570312 7.5625 L 106.570312 4.5625 Z M 103.546875 4.5625 " fill-opacity="1" fill-rule="nonzero"/><path fill="rgb(82.749939%, 23.529053%, 17.649841%)" d="M 92.964844 10.554688 L 92.964844 9.058594 L 94.472656 9.058594 L 94.472656 10.554688 Z M 92.964844 7.554688 L 91.453125 7.554688 L 91.453125 9.058594 L 92.964844 9.058594 Z M 19.179688 10.398438 L 19.179688 8.902344 L 17.667969 8.902344 L 17.667969 10.402344 Z M 17.667969 8.898438 L 16.15625 8.898438 L 16.15625 7.414062 L 17.667969 7.414062 Z M 55.300781 10.550781 L 55.300781 9.058594 L 56.8125 9.058594 L 56.8125 10.554688 Z M 55.300781 9.054688 L 53.792969 9.054688 L 53.792969 7.550781 L 55.300781 7.550781 Z M 130.625 10.550781 L 130.625 9.058594 L 132.136719 9.058594 L 132.136719 10.554688 Z M 130.625 9.054688 L 129.117188 9.054688 L 129.117188 7.550781 L 130.625 7.550781 Z M 168.289062 10.550781 L 168.289062 9.058594 L 169.796875 9.058594 L 169.796875 10.554688 Z M 168.289062 9.054688 L 166.777344 9.054688 L 166.777344 7.550781 L 168.289062 7.550781 Z M 32.789062 7.414062 L 34.300781 7.414062 L 34.300781 16.398438 L 32.789062 16.398438 L 32.789062 17.898438 L 31.277344 17.898438 L 31.277344 19.394531 L 29.765625 19.394531 L 29.765625 20.894531 L 28.25 20.894531 L 28.25 22.394531 L 26.742188 22.394531 L 26.742188 23.890625 L 25.230469 23.890625 L 25.230469 25.390625 L 23.714844 25.390625 L 23.714844 26.894531 L 22.203125 26.894531 L 22.203125 28.394531 L 20.695312 28.394531 L 20.695312 29.890625 L 19.179688 29.890625 L 19.179688 31.390625 L 17.667969 31.390625 L 17.667969 28.390625 L 19.179688 28.390625 L 19.179688 26.894531 L 20.695312 26.894531 L 20.695312 25.390625 L 22.203125 25.390625 L 22.203125 23.890625 L 23.714844 23.890625 L 23.714844 22.394531 L 25.230469 22.394531 L 25.230469 20.894531 L 26.742188 20.894531 L 26.742188 17.898438 L 28.25 17.898438 L 28.25 16.398438 L 29.765625 16.398438 L 29.765625 7.414062 Z M 68.910156 7.566406 L 67.398438 7.566406 L 67.398438 16.554688 L 65.882812 16.554688 L 65.882812 18.050781 L 64.375 18.050781 L 64.375 21.050781 L 62.863281 21.050781 L 62.863281 22.546875 L 61.347656 22.546875 L 61.347656 24.054688 L 59.835938 24.054688 L 59.835938 25.554688 L 58.328125 25.554688 L 58.328125 27.050781 L 56.8125 27.050781 L 56.8125 28.554688 L 55.300781 28.554688 L 55.300781 31.546875 L 56.8125 31.546875 L 56.8125 30.042969 L 58.328125 30.042969 L 58.328125 28.546875 L 59.835938 28.546875 L 59.835938 27.042969 L 61.347656 27.042969 L 61.347656 25.546875 L 62.863281 25.546875 L 62.863281 24.054688 L 64.375 24.054688 L 64.375 22.546875 L 65.882812 22.546875 L 65.882812 21.050781 L 67.398438 21.050781 L 67.398438 19.546875 L 68.910156 19.546875 L 68.910156 18.050781 L 70.425781 18.050781 L 70.425781 16.554688 L 71.929688 16.554688 L 71.929688 7.554688 L 68.90625 7.554688 Z M 106.570312 7.566406 L 105.0625 7.566406 L 105.0625 16.554688 L 103.546875 16.554688 L 103.546875 18.050781 L 102.035156 18.050781 L 102.035156 21.050781 L 100.523438 21.050781 L 100.523438 22.546875 L 99.011719 22.546875 L 99.011719 24.054688 L 97.5 24.054688 L 97.5 25.554688 L 95.988281 25.554688 L 95.988281 27.050781 L 94.472656 27.050781 L 94.472656 28.554688 L 92.964844 28.554688 L 92.964844 31.546875 L 94.472656 31.546875 L 94.472656 30.042969 L 95.988281 30.042969 L 95.988281 28.546875 L 97.5 28.546875 L 97.5 27.042969 L 99.011719 27.042969 L 99.011719 25.546875 L 100.523438 25.546875 L 100.523438 24.054688 L 102.035156 24.054688 L 102.035156 22.546875 L 103.546875 22.546875 L 103.546875 21.050781 L 105.0625 21.050781 L 105.0625 19.546875 L 106.570312 19.546875 L 106.570312 18.050781 L 108.085938 18.050781 L 108.085938 16.554688 L 109.59375 16.554688 L 109.59375 7.554688 L 106.566406 7.554688 Z M 144.234375 7.566406 L 142.722656 7.566406 L 142.722656 16.554688 L 141.207031 16.554688 L 141.207031 18.050781 L 139.699219 18.050781 L 139.699219 21.050781 L 138.1875 21.050781 L 138.1875 22.546875 L 136.671875 22.546875 L 136.671875 24.054688 L 135.160156 24.054688 L 135.160156 25.554688 L 133.652344 25.554688 L 133.652344 27.050781 L 132.136719 27.050781 L 132.136719 28.554688 L 130.625 28.554688 L 130.625 31.546875 L 132.136719 31.546875 L 132.136719 30.042969 L 133.652344 30.042969 L 133.652344 28.546875 L 135.160156 28.546875 L 135.160156 27.042969 L 136.671875 27.042969 L 136.671875 25.546875 L 138.1875 25.546875 L 138.1875 24.054688 L 139.699219 24.054688 L 139.699219 22.546875 L 141.207031 22.546875 L 141.207031 21.050781 L 142.722656 21.050781 L 142.722656 19.546875 L 144.234375 19.546875 L 144.234375 18.050781 L 145.75 18.050781 L 145.75 16.554688 L 147.253906 16.554688 L 147.253906 7.554688 L 144.230469 7.554688 Z M 181.894531 7.566406 L 180.386719 7.566406 L 180.386719 16.554688 L 178.871094 16.554688 L 178.871094 18.050781 L 177.359375 18.050781 L 177.359375 21.050781 L 175.847656 21.050781 L 175.847656 22.546875 L 174.335938 22.546875 L 174.335938 24.054688 L 172.824219 24.054688 L 172.824219 25.554688 L 171.3125 25.554688 L 171.3125 27.050781 L 169.796875 27.050781 L 169.796875 28.554688 L 168.289062 28.554688 L 168.289062 31.546875 L 169.796875 31.546875 L 169.796875 30.042969 L 171.3125 30.042969 L 171.3125 28.546875 L 172.824219 28.546875 L 172.824219 27.042969 L 174.335938 27.042969 L 174.335938 25.546875 L 175.847656 25.546875 L 175.847656 24.054688 L 177.359375 24.054688 L 177.359375 22.546875 L 178.871094 22.546875 L 178.871094 21.050781 L 180.386719 21.050781 L 180.386719 19.546875 L 181.894531 19.546875 L 181.894531 18.050781 L 183.410156 18.050781 L 183.410156 16.554688 L 184.917969 16.554688 L 184.917969 7.554688 L 181.890625 7.554688 Z M 181.894531 7.566406 " fill-opacity="1" fill-rule="nonzero"/><path fill="rgb(100%, 100%, 100%)" d="M 8.597656 17.898438 L 10.117188 17.898438 L 10.117188 19.394531 L 8.597656 19.394531 Z M 8.597656 5.90625 L 7.085938 5.90625 L 7.085938 7.414062 L 8.597656 7.414062 Z M 28.246094 7.40625 L 29.765625 7.40625 L 29.765625 5.90625 L 28.25 5.90625 Z M 7.085938 14.898438 L 7.085938 7.414062 L 5.570312 7.414062 L 5.570312 8.910156 L 4.0625 8.910156 L 4.0625 13.398438 L 5.570312 13.398438 L 5.570312 14.898438 Z M 7.085938 16.398438 L 7.085938 17.898438 L 8.597656 17.898438 L 8.597656 16.398438 Z M 46.230469 19.546875 L 47.742188 19.546875 L 47.742188 18.050781 L 46.230469 18.050781 Z M 46.230469 6.058594 L 44.71875 6.058594 L 44.71875 7.554688 L 46.230469 7.554688 Z M 65.878906 7.554688 L 67.394531 7.554688 L 67.394531 6.058594 L 65.878906 6.058594 Z M 44.714844 15.050781 L 44.714844 7.554688 L 43.199219 7.554688 L 43.199219 9.058594 L 41.695312 9.058594 L 41.695312 13.554688 L 43.207031 13.554688 L 43.207031 15.050781 Z M 44.714844 16.554688 L 44.714844 18.050781 L 46.226562 18.050781 L 46.226562 16.554688 Z M 83.886719 19.546875 L 85.398438 19.546875 L 85.398438 18.050781 L 83.886719 18.050781 Z M 83.886719 6.058594 L 82.378906 6.058594 L 82.378906 7.554688 L 83.886719 7.554688 Z M 103.539062 7.554688 L 105.050781 7.554688 L 105.050781 6.058594 L 103.539062 6.058594 Z M 82.375 15.050781 L 82.375 7.554688 L 80.859375 7.554688 L 80.859375 9.058594 L 79.347656 9.058594 L 79.347656 13.554688 L 80.859375 13.554688 L 80.859375 15.050781 Z M 82.375 16.554688 L 82.375 18.050781 L 83.882812 18.050781 L 83.882812 16.554688 Z M 121.546875 19.546875 L 123.058594 19.546875 L 123.058594 18.050781 L 121.546875 18.050781 Z M 121.546875 6.058594 L 120.035156 6.058594 L 120.035156 7.554688 L 121.546875 7.554688 Z M 141.195312 7.554688 L 142.710938 7.554688 L 142.710938 6.058594 L 141.195312 6.058594 Z M 120.03125 15.050781 L 120.03125 7.554688 L 118.515625 7.554688 L 118.515625 9.058594 L 117.007812 9.058594 L 117.007812 13.554688 L 118.515625 13.554688 L 118.515625 15.050781 Z M 120.03125 16.554688 L 120.03125 18.050781 L 121.542969 18.050781 L 121.542969 16.554688 Z M 159.203125 19.546875 L 160.714844 19.546875 L 160.714844 18.050781 L 159.203125 18.050781 Z M 159.203125 6.058594 L 157.695312 6.058594 L 157.695312 7.554688 L 159.203125 7.554688 Z M 178.855469 7.554688 L 180.367188 7.554688 L 180.367188 6.058594 L 178.855469 6.058594 Z M 157.6875 15.050781 L 157.6875 7.554688 L 156.175781 7.554688 L 156.175781 9.058594 L 154.664062 9.058594 L 154.664062 13.554688 L 156.175781 13.554688 L 156.175781 15.050781 Z M 157.6875 16.554688 L 157.6875 18.050781 L 159.199219 18.050781 L 159.199219 16.554688 Z M 157.6875 16.554688 " fill-opacity="1" fill-rule="nonzero"/><path fill="rgb(100%, 47.059631%, 43.139648%)" d="M 16.15625 26.894531 L 17.667969 26.894531 L 17.667969 29.890625 L 16.15625 29.890625 L 16.15625 28.390625 L 14.644531 28.390625 L 14.644531 26.894531 L 13.132812 26.894531 L 13.132812 25.390625 L 11.621094 25.390625 L 11.621094 23.890625 L 10.117188 23.890625 L 10.117188 22.394531 L 8.597656 22.394531 L 8.597656 20.894531 L 7.085938 20.894531 L 7.085938 19.394531 L 5.570312 19.394531 L 5.570312 17.898438 L 4.0625 17.898438 L 4.0625 16.398438 L 2.550781 16.398438 L 2.550781 7.414062 L 4.0625 7.414062 L 4.0625 5.90625 L 5.570312 5.90625 L 5.570312 4.40625 L 14.644531 4.40625 L 14.644531 5.90625 L 16.15625 5.90625 L 16.15625 8.902344 L 14.644531 8.902344 L 14.644531 7.414062 L 8.597656 7.414062 L 8.597656 5.90625 L 7.085938 5.90625 L 7.085938 7.414062 L 5.570312 7.414062 L 5.570312 8.910156 L 4.0625 8.910156 L 4.0625 13.398438 L 5.570312 13.398438 L 5.570312 14.898438 L 7.085938 14.898438 L 7.085938 17.898438 L 8.597656 17.898438 L 8.597656 19.394531 L 10.117188 19.394531 L 10.117188 20.894531 L 11.628906 20.894531 L 11.628906 22.394531 L 13.140625 22.394531 L 13.140625 23.890625 L 14.652344 23.890625 L 14.652344 25.390625 L 16.167969 25.390625 Z M 28.25 4.40625 L 22.203125 4.40625 L 22.203125 5.90625 L 20.695312 5.90625 L 20.695312 7.414062 L 19.179688 7.414062 L 19.179688 8.910156 L 22.203125 8.910156 L 22.203125 7.414062 L 28.25 7.414062 L 28.25 5.90625 L 29.765625 5.90625 L 29.765625 7.414062 L 31.277344 7.414062 L 31.277344 4.40625 Z M 53.792969 25.546875 L 52.28125 25.546875 L 52.28125 24.054688 L 50.765625 24.054688 L 50.765625 22.546875 L 49.253906 22.546875 L 49.253906 21.050781 L 47.742188 21.050781 L 47.742188 19.546875 L 46.230469 19.546875 L 46.230469 18.050781 L 44.71875 18.050781 L 44.71875 15.050781 L 43.207031 15.050781 L 43.207031 13.554688 L 41.695312 13.554688 L 41.695312 9.058594 L 43.207031 9.058594 L 43.207031 7.554688 L 44.71875 7.554688 L 44.71875 6.058594 L 46.230469 6.058594 L 46.230469 7.554688 L 52.28125 7.554688 L 52.28125 9.058594 L 53.796875 9.058594 L 53.796875 6.058594 L 52.28125 6.058594 L 52.28125 4.574219 L 43.207031 4.574219 L 43.207031 6.058594 L 41.695312 6.058594 L 41.695312 7.554688 L 40.183594 7.554688 L 40.183594 16.554688 L 41.695312 16.554688 L 41.695312 18.050781 L 43.207031 18.050781 L 43.207031 19.546875 L 44.71875 19.546875 L 44.71875 21.050781 L 46.230469 21.050781 L 46.230469 22.546875 L 47.742188 22.546875 L 47.742188 24.054688 L 49.253906 24.054688 L 49.253906 25.554688 L 50.765625 25.554688 L 50.765625 27.050781 L 52.28125 27.050781 L 52.28125 28.554688 L 53.796875 28.554688 L 53.796875 30.050781 L 55.304688 30.050781 L 55.304688 27.042969 L 53.796875 27.042969 Z M 65.882812 4.574219 L 59.835938 4.574219 L 59.835938 6.058594 L 58.328125 6.058594 L 58.328125 7.554688 L 56.8125 7.554688 L 56.8125 9.058594 L 59.835938 9.058594 L 59.835938 7.554688 L 65.882812 7.554688 L 65.882812 6.058594 L 67.398438 6.058594 L 67.398438 7.554688 L 68.910156 7.554688 L 68.910156 4.574219 Z M 129.117188 25.546875 L 127.605469 25.546875 L 127.605469 24.054688 L 126.089844 24.054688 L 126.089844 22.546875 L 124.578125 22.546875 L 124.578125 21.050781 L 123.066406 21.050781 L 123.066406 19.546875 L 121.554688 19.546875 L 121.554688 18.050781 L 120.042969 18.050781 L 120.042969 15.050781 L 118.527344 15.050781 L 118.527344 13.554688 L 117.019531 13.554688 L 117.019531 9.058594 L 118.527344 9.058594 L 118.527344 7.554688 L 120.042969 7.554688 L 120.042969 6.058594 L 121.554688 6.058594 L 121.554688 7.554688 L 127.605469 7.554688 L 127.605469 9.058594 L 129.121094 9.058594 L 129.121094 6.058594 L 127.605469 6.058594 L 127.605469 4.574219 L 118.527344 4.574219 L 118.527344 6.058594 L 117.019531 6.058594 L 117.019531 7.554688 L 115.507812 7.554688 L 115.507812 16.554688 L 117.019531 16.554688 L 117.019531 18.050781 L 118.527344 18.050781 L 118.527344 19.546875 L 120.042969 19.546875 L 120.042969 21.050781 L 121.554688 21.050781 L 121.554688 22.546875 L 123.066406 22.546875 L 123.066406 24.054688 L 124.578125 24.054688 L 124.578125 25.554688 L 126.089844 25.554688 L 126.089844 27.050781 L 127.605469 27.050781 L 127.605469 28.554688 L 129.121094 28.554688 L 129.121094 30.050781 L 130.628906 30.050781 L 130.628906 27.042969 L 129.121094 27.042969 Z M 141.207031 4.574219 L 135.160156 4.574219 L 135.160156 6.058594 L 133.652344 6.058594 L 133.652344 7.554688 L 132.136719 7.554688 L 132.136719 9.058594 L 135.160156 9.058594 L 135.160156 7.554688 L 141.207031 7.554688 L 141.207031 6.058594 L 142.722656 6.058594 L 142.722656 7.554688 L 144.234375 7.554688 L 144.234375 4.574219 Z M 166.777344 25.558594 L 165.265625 25.558594 L 165.265625 24.054688 L 163.753906 24.054688 L 163.753906 22.546875 L 162.242188 22.546875 L 162.242188 21.050781 L 160.726562 21.050781 L 160.726562 19.546875 L 159.214844 19.546875 L 159.214844 18.050781 L 157.707031 18.050781 L 157.707031 15.050781 L 156.191406 15.050781 L 156.191406 13.554688 L 154.679688 13.554688 L 154.679688 9.058594 L 156.191406 9.058594 L 156.191406 7.554688 L 157.707031 7.554688 L 157.707031 6.058594 L 159.214844 6.058594 L 159.214844 7.554688 L 165.265625 7.554688 L 165.265625 9.058594 L 166.78125 9.058594 L 166.78125 6.058594 L 165.265625 6.058594 L 165.265625 4.574219 L 156.191406 4.574219 L 156.191406 6.058594 L 154.679688 6.058594 L 154.679688 7.554688 L 153.171875 7.554688 L 153.171875 16.554688 L 154.679688 16.554688 L 154.679688 18.050781 L 156.191406 18.050781 L 156.191406 19.546875 L 157.707031 19.546875 L 157.707031 21.050781 L 159.214844 21.050781 L 159.214844 22.546875 L 160.726562 22.546875 L 160.726562 24.054688 L 162.242188 24.054688 L 162.242188 25.554688 L 163.753906 25.554688 L 163.753906 27.050781 L 165.265625 27.050781 L 165.265625 28.554688 L 166.78125 28.554688 L 166.78125 30.050781 L 168.292969 30.050781 L 168.292969 27.042969 L 166.78125 27.042969 Z M 178.871094 4.574219 L 172.824219 4.574219 L 172.824219 6.058594 L 171.3125 6.058594 L 171.3125 7.554688 L 169.796875 7.554688 L 169.796875 9.058594 L 172.824219 9.058594 L 172.824219 7.554688 L 178.871094 7.554688 L 178.871094 6.058594 L 180.386719 6.058594 L 180.386719 7.554688 L 181.894531 7.554688 L 181.894531 4.574219 Z M 178.871094 4.574219 " fill-opacity="1" fill-rule="nonzero"/><g clip-path="url(#id2)"><path fill="rgb(23.919678%, 23.139954%, 32.159424%)" d="M 34.363281 5.84375 L 32.851562 5.84375 L 32.851562 4.347656 L 31.335938 4.347656 L 31.335938 2.847656 L 22.144531 2.847656 L 22.144531 4.347656 L 20.632812 4.347656 L 20.632812 5.84375 L 19.121094 5.84375 L 19.121094 7.34375 L 17.730469 7.34375 L 17.730469 5.84375 L 16.21875 5.84375 L 16.21875 4.347656 L 14.703125 4.347656 L 14.703125 2.847656 L 5.511719 2.847656 L 5.511719 4.347656 L 4 4.347656 L 4 5.84375 L 2.488281 5.84375 L 2.488281 7.34375 L 0.972656 7.34375 L 0.972656 16.460938 L 2.488281 16.460938 L 2.488281 17.964844 L 4 17.964844 L 4 19.464844 L 5.511719 19.464844 L 5.511719 20.964844 L 7.023438 20.964844 L 7.023438 22.460938 L 8.535156 22.460938 L 8.535156 23.960938 L 10.046875 23.960938 L 10.046875 25.460938 L 11.5625 25.460938 L 11.5625 26.957031 L 13.070312 26.957031 L 13.070312 28.460938 L 14.582031 28.460938 L 14.582031 29.957031 L 16.097656 29.957031 L 16.097656 31.453125 L 17.605469 31.453125 L 17.605469 32.957031 L 19.246094 32.957031 L 19.246094 31.453125 L 20.757812 31.453125 L 20.757812 29.949219 L 22.269531 29.949219 L 22.269531 28.453125 L 23.78125 28.453125 L 23.78125 26.949219 L 25.296875 26.949219 L 25.296875 25.453125 L 26.804688 25.453125 L 26.804688 23.953125 L 28.316406 23.953125 L 28.316406 22.453125 L 29.832031 22.453125 L 29.832031 20.957031 L 31.339844 20.957031 L 31.339844 19.453125 L 32.855469 19.453125 L 32.855469 17.964844 L 34.367188 17.964844 L 34.367188 16.460938 L 35.878906 16.460938 L 35.878906 7.34375 L 34.363281 7.34375 Z M 34.238281 8.902344 L 34.238281 16.34375 L 32.730469 16.34375 L 32.730469 17.839844 L 31.214844 17.839844 L 31.214844 19.335938 L 29.703125 19.335938 L 29.703125 20.839844 L 28.1875 20.839844 L 28.1875 22.335938 L 26.679688 22.335938 L 26.679688 23.832031 L 25.167969 23.832031 L 25.167969 25.335938 L 23.652344 25.335938 L 23.652344 26.832031 L 22.144531 26.832031 L 22.144531 28.335938 L 20.632812 28.335938 L 20.632812 29.832031 L 19.121094 29.832031 L 19.121094 31.328125 L 17.730469 31.328125 L 17.730469 29.828125 L 16.21875 29.828125 L 16.21875 28.328125 L 14.703125 28.328125 L 14.703125 26.828125 L 13.195312 26.828125 L 13.195312 25.332031 L 11.683594 25.332031 L 11.683594 23.828125 L 10.167969 23.828125 L 10.167969 22.332031 L 8.660156 22.332031 L 8.660156 20.835938 L 7.148438 20.835938 L 7.148438 19.332031 L 5.632812 19.332031 L 5.632812 17.835938 L 4.121094 17.835938 L 4.121094 16.34375 L 2.613281 16.34375 L 2.613281 7.46875 L 4.121094 7.46875 L 4.121094 5.964844 L 5.632812 5.964844 L 5.632812 4.46875 L 14.582031 4.46875 L 14.582031 5.964844 L 16.097656 5.964844 L 16.097656 7.46875 L 17.605469 7.46875 L 17.605469 8.964844 L 19.246094 8.964844 L 19.246094 7.46875 L 20.757812 7.46875 L 20.757812 5.964844 L 22.269531 5.964844 L 22.269531 4.46875 L 31.214844 4.46875 L 31.214844 5.964844 L 32.730469 5.964844 L 32.730469 7.46875 L 34.238281 7.46875 Z M 71.996094 6 L 70.484375 6 L 70.484375 4.5 L 68.972656 4.5 L 68.972656 3 L 59.777344 3 L 59.777344 4.5 L 58.265625 4.5 L 58.265625 6 L 56.75 6 L 56.75 7.496094 L 55.363281 7.496094 L 55.363281 6 L 53.851562 6 L 53.851562 4.5 L 52.34375 4.5 L 52.34375 3 L 43.144531 3 L 43.144531 4.5 L 41.636719 4.5 L 41.636719 6 L 40.121094 6 L 40.121094 7.496094 L 38.609375 7.496094 L 38.609375 16.613281 L 40.121094 16.613281 L 40.121094 18.113281 L 41.636719 18.113281 L 41.636719 19.609375 L 43.148438 19.609375 L 43.148438 21.109375 L 44.664062 21.109375 L 44.664062 22.609375 L 46.171875 22.609375 L 46.171875 24.105469 L 47.683594 24.105469 L 47.683594 25.605469 L 49.199219 25.605469 L 49.199219 27.105469 L 50.707031 27.105469 L 50.707031 28.605469 L 52.21875 28.605469 L 52.21875 30.101562 L 53.734375 30.101562 L 53.734375 31.601562 L 55.246094 31.601562 L 55.246094 33.101562 L 56.882812 33.101562 L 56.882812 31.601562 L 58.394531 31.601562 L 58.394531 30.101562 L 59.902344 30.101562 L 59.902344 28.605469 L 61.417969 28.605469 L 61.417969 27.105469 L 62.925781 27.105469 L 62.925781 25.605469 L 64.433594 25.605469 L 64.433594 24.105469 L 65.945312 24.105469 L 65.945312 22.609375 L 67.460938 22.609375 L 67.460938 21.109375 L 68.972656 21.109375 L 68.972656 19.609375 L 70.484375 19.609375 L 70.484375 18.113281 L 71.996094 18.113281 L 71.996094 16.613281 L 73.507812 16.613281 L 73.507812 7.496094 L 71.996094 7.496094 Z M 71.875 9.058594 L 71.875 16.492188 L 70.363281 16.492188 L 70.363281 17.988281 L 68.847656 17.988281 L 68.847656 19.488281 L 67.335938 19.488281 L 67.335938 20.988281 L 65.824219 20.988281 L 65.824219 22.488281 L 64.3125 22.488281 L 64.3125 23.984375 L 62.800781 23.984375 L 62.800781 25.484375 L 61.285156 25.484375 L 61.285156 26.984375 L 59.777344 26.984375 L 59.777344 28.484375 L 58.265625 28.484375 L 58.265625 29.980469 L 56.75 29.980469 L 56.75 31.480469 L 55.363281 31.480469 L 55.363281 29.980469 L 53.851562 29.980469 L 53.851562 28.484375 L 52.34375 28.484375 L 52.34375 26.984375 L 50.828125 26.984375 L 50.828125 25.484375 L 49.316406 25.484375 L 49.316406 23.984375 L 47.800781 23.984375 L 47.800781 22.488281 L 46.292969 22.488281 L 46.292969 20.988281 L 44.78125 20.988281 L 44.78125 19.488281 L 43.273438 19.488281 L 43.273438 17.988281 L 41.757812 17.988281 L 41.757812 16.492188 L 40.246094 16.492188 L 40.246094 7.617188 L 41.757812 7.617188 L 41.757812 6.121094 L 43.273438 6.121094 L 43.273438 4.621094 L 52.222656 4.621094 L 52.222656 6.121094 L 53.738281 6.121094 L 53.738281 7.617188 L 55.25 7.617188 L 55.25 9.117188 L 56.886719 9.117188 L 56.886719 7.617188 L 58.398438 7.617188 L 58.398438 6.121094 L 59.90625 6.121094 L 59.90625 4.621094 L 68.855469 4.621094 L 68.855469 6.121094 L 70.371094 6.121094 L 70.371094 7.617188 L 71.882812 7.617188 Z M 109.65625 6 L 108.148438 6 L 108.148438 4.5 L 106.632812 4.5 L 106.632812 3 L 97.4375 3 L 97.4375 4.5 L 95.929688 4.5 L 95.929688 6 L 94.414062 6 L 94.414062 7.496094 L 93.027344 7.496094 L 93.027344 6 L 91.515625 6 L 91.515625 4.5 L 90.003906 4.5 L 90.003906 3 L 80.804688 3 L 80.804688 4.5 L 79.300781 4.5 L 79.300781 6 L 77.785156 6 L 77.785156 7.496094 L 76.269531 7.496094 L 76.269531 16.613281 L 77.785156 16.613281 L 77.785156 18.113281 L 79.300781 18.113281 L 79.300781 19.609375 L 80.808594 19.609375 L 80.808594 21.109375 L 82.324219 21.109375 L 82.324219 22.609375 L 83.835938 22.609375 L 83.835938 24.105469 L 85.34375 24.105469 L 85.34375 25.605469 L 86.859375 25.605469 L 86.859375 27.105469 L 88.371094 27.105469 L 88.371094 28.605469 L 89.882812 28.605469 L 89.882812 30.101562 L 91.394531 30.101562 L 91.394531 31.601562 L 92.90625 31.601562 L 92.90625 33.101562 L 94.542969 33.101562 L 94.542969 31.601562 L 96.054688 31.601562 L 96.054688 30.101562 L 97.566406 30.101562 L 97.566406 28.605469 L 99.078125 28.605469 L 99.078125 27.105469 L 100.585938 27.105469 L 100.585938 25.605469 L 102.097656 25.605469 L 102.097656 24.105469 L 103.609375 24.105469 L 103.609375 22.609375 L 105.121094 22.609375 L 105.121094 21.109375 L 106.632812 21.109375 L 106.632812 19.609375 L 108.148438 19.609375 L 108.148438 18.113281 L 109.65625 18.113281 L 109.65625 16.613281 L 111.167969 16.613281 L 111.167969 7.496094 L 109.65625 7.496094 Z M 109.535156 9.058594 L 109.535156 16.492188 L 108.023438 16.492188 L 108.023438 17.988281 L 106.511719 17.988281 L 106.511719 19.488281 L 105 19.488281 L 105 20.988281 L 103.484375 20.988281 L 103.484375 22.488281 L 101.972656 22.488281 L 101.972656 23.984375 L 100.464844 23.984375 L 100.464844 25.484375 L 98.949219 25.484375 L 98.949219 26.984375 L 97.4375 26.984375 L 97.4375 28.484375 L 95.929688 28.484375 L 95.929688 29.980469 L 94.414062 29.980469 L 94.414062 31.480469 L 93.027344 31.480469 L 93.027344 29.980469 L 91.515625 29.980469 L 91.515625 28.484375 L 90.003906 28.484375 L 90.003906 26.984375 L 88.488281 26.984375 L 88.488281 25.484375 L 86.980469 25.484375 L 86.980469 23.984375 L 85.464844 23.984375 L 85.464844 22.488281 L 83.953125 22.488281 L 83.953125 20.988281 L 82.441406 20.988281 L 82.441406 19.488281 L 80.9375 19.488281 L 80.9375 17.988281 L 79.425781 17.988281 L 79.425781 16.492188 L 77.90625 16.492188 L 77.90625 7.617188 L 79.417969 7.617188 L 79.417969 6.121094 L 80.9375 6.121094 L 80.9375 4.621094 L 89.886719 4.621094 L 89.886719 6.121094 L 91.398438 6.121094 L 91.398438 7.617188 L 92.910156 7.617188 L 92.910156 9.117188 L 94.546875 9.117188 L 94.546875 7.617188 L 96.058594 7.617188 L 96.058594 6.121094 L 97.570312 6.121094 L 97.570312 4.621094 L 106.519531 4.621094 L 106.519531 6.121094 L 108.03125 6.121094 L 108.03125 7.617188 L 109.542969 7.617188 Z M 147.320312 6 L 145.808594 6 L 145.808594 4.5 L 144.292969 4.5 L 144.292969 3 L 135.101562 3 L 135.101562 4.5 L 133.589844 4.5 L 133.589844 6 L 132.074219 6 L 132.074219 7.496094 L 130.6875 7.496094 L 130.6875 6 L 129.175781 6 L 129.175781 4.5 L 127.667969 4.5 L 127.667969 3 L 118.46875 3 L 118.46875 4.5 L 116.960938 4.5 L 116.960938 6 L 115.445312 6 L 115.445312 7.496094 L 113.933594 7.496094 L 113.933594 16.613281 L 115.445312 16.613281 L 115.445312 18.113281 L 116.960938 18.113281 L 116.960938 19.609375 L 118.472656 19.609375 L 118.472656 21.109375 L 119.988281 21.109375 L 119.988281 22.609375 L 121.496094 22.609375 L 121.496094 24.105469 L 123.007812 24.105469 L 123.007812 25.605469 L 124.523438 25.605469 L 124.523438 27.105469 L 126.03125 27.105469 L 126.03125 28.605469 L 127.542969 28.605469 L 127.542969 30.101562 L 129.058594 30.101562 L 129.058594 31.601562 L 130.570312 31.601562 L 130.570312 33.101562 L 132.207031 33.101562 L 132.207031 31.601562 L 133.714844 31.601562 L 133.714844 30.101562 L 135.226562 30.101562 L 135.226562 28.605469 L 136.742188 28.605469 L 136.742188 27.105469 L 138.25 27.105469 L 138.25 25.605469 L 139.757812 25.605469 L 139.757812 24.105469 L 141.269531 24.105469 L 141.269531 22.609375 L 142.785156 22.609375 L 142.785156 21.109375 L 144.292969 21.109375 L 144.292969 19.609375 L 145.808594 19.609375 L 145.808594 18.113281 L 147.320312 18.113281 L 147.320312 16.613281 L 148.832031 16.613281 L 148.832031 7.496094 L 147.320312 7.496094 Z M 147.199219 9.058594 L 147.199219 16.492188 L 145.6875 16.492188 L 145.6875 17.988281 L 144.171875 17.988281 L 144.171875 19.488281 L 142.660156 19.488281 L 142.660156 20.988281 L 141.148438 20.988281 L 141.148438 22.488281 L 139.636719 22.488281 L 139.636719 23.984375 L 138.125 23.984375 L 138.125 25.484375 L 136.609375 25.484375 L 136.609375 26.984375 L 135.101562 26.984375 L 135.101562 28.484375 L 133.589844 28.484375 L 133.589844 29.980469 L 132.074219 29.980469 L 132.074219 31.480469 L 130.6875 31.480469 L 130.6875 29.980469 L 129.175781 29.980469 L 129.175781 28.484375 L 127.667969 28.484375 L 127.667969 26.984375 L 126.152344 26.984375 L 126.152344 25.484375 L 124.640625 25.484375 L 124.640625 23.984375 L 123.125 23.984375 L 123.125 22.488281 L 121.617188 22.488281 L 121.617188 20.988281 L 120.105469 20.988281 L 120.105469 19.488281 L 118.597656 19.488281 L 118.597656 17.988281 L 117.089844 17.988281 L 117.089844 16.492188 L 115.570312 16.492188 L 115.570312 7.617188 L 117.078125 7.617188 L 117.078125 6.121094 L 118.597656 6.121094 L 118.597656 4.621094 L 127.546875 4.621094 L 127.546875 6.121094 L 129.0625 6.121094 L 129.0625 7.617188 L 130.574219 7.617188 L 130.574219 9.117188 L 132.210938 9.117188 L 132.210938 7.617188 L 133.722656 7.617188 L 133.722656 6.121094 L 135.230469 6.121094 L 135.230469 4.621094 L 144.179688 4.621094 L 144.179688 6.121094 L 145.695312 6.121094 L 145.695312 7.617188 L 147.207031 7.617188 Z M 184.980469 6 L 183.472656 6 L 183.472656 4.5 L 181.957031 4.5 L 181.957031 3 L 172.761719 3 L 172.761719 4.5 L 171.25 4.5 L 171.25 6 L 169.738281 6 L 169.738281 7.496094 L 168.347656 7.496094 L 168.347656 6 L 166.839844 6 L 166.839844 4.5 L 165.328125 4.5 L 165.328125 3 L 156.128906 3 L 156.128906 4.5 L 154.625 4.5 L 154.625 6 L 153.109375 6 L 153.109375 7.496094 L 151.59375 7.496094 L 151.59375 16.613281 L 153.109375 16.613281 L 153.109375 18.113281 L 154.625 18.113281 L 154.625 19.609375 L 156.132812 19.609375 L 156.132812 21.109375 L 157.648438 21.109375 L 157.648438 22.609375 L 159.160156 22.609375 L 159.160156 24.105469 L 160.667969 24.105469 L 160.667969 25.605469 L 162.183594 25.605469 L 162.183594 27.105469 L 163.695312 27.105469 L 163.695312 28.605469 L 165.207031 28.605469 L 165.207031 30.101562 L 166.71875 30.101562 L 166.71875 31.601562 L 168.230469 31.601562 L 168.230469 33.101562 L 169.867188 33.101562 L 169.867188 31.601562 L 171.378906 31.601562 L 171.378906 30.101562 L 172.890625 30.101562 L 172.890625 28.605469 L 174.402344 28.605469 L 174.402344 27.105469 L 175.910156 27.105469 L 175.910156 25.605469 L 177.421875 25.605469 L 177.421875 24.105469 L 178.929688 24.105469 L 178.929688 22.609375 L 180.445312 22.609375 L 180.445312 21.109375 L 181.957031 21.109375 L 181.957031 19.609375 L 183.472656 19.609375 L 183.472656 18.113281 L 184.980469 18.113281 L 184.980469 16.613281 L 186.492188 16.613281 L 186.492188 7.496094 L 184.980469 7.496094 Z M 184.859375 9.058594 L 184.859375 16.492188 L 183.347656 16.492188 L 183.347656 17.988281 L 181.835938 17.988281 L 181.835938 19.488281 L 180.324219 19.488281 L 180.324219 20.988281 L 178.808594 20.988281 L 178.808594 22.488281 L 177.296875 22.488281 L 177.296875 23.984375 L 175.789062 23.984375 L 175.789062 25.484375 L 174.273438 25.484375 L 174.273438 26.984375 L 172.761719 26.984375 L 172.761719 28.484375 L 171.25 28.484375 L 171.25 29.980469 L 169.738281 29.980469 L 169.738281 31.480469 L 168.347656 31.480469 L 168.347656 29.980469 L 166.839844 29.980469 L 166.839844 28.484375 L 165.328125 28.484375 L 165.328125 26.984375 L 163.8125 26.984375 L 163.8125 25.484375 L 162.304688 25.484375 L 162.304688 23.984375 L 160.789062 23.984375 L 160.789062 22.488281 L 159.277344 22.488281 L 159.277344 20.988281 L 157.765625 20.988281 L 157.765625 19.488281 L 156.261719 19.488281 L 156.261719 17.988281 L 154.75 17.988281 L 154.75 16.492188 L 153.230469 16.492188 L 153.230469 7.617188 L 154.742188 7.617188 L 154.742188 6.121094 L 156.261719 6.121094 L 156.261719 4.621094 L 165.210938 4.621094 L 165.210938 6.121094 L 166.722656 6.121094 L 166.722656 7.617188 L 168.234375 7.617188 L 168.234375 9.117188 L 169.871094 9.117188 L 169.871094 7.617188 L 171.382812 7.617188 L 171.382812 6.121094 L 172.894531 6.121094 L 172.894531 4.621094 L 181.84375 4.621094 L 181.84375 6.121094 L 183.355469 6.121094 L 183.355469 7.617188 L 184.867188 7.617188 Z M 184.859375 9.058594 " fill-opacity="1" fill-rule="nonzero"/></g></svg>