<svg xmlns="http://www.w3.org/2000/svg" xmlns:xlink="http://www.w3.org/1999/xlink" width="50" zoomAndPan="magnify" viewBox="0 0 37.5 37.499999" height="50" preserveAspectRatio="xMidYMid meet" version="1.0"><defs><clipPath id="id1"><path d="M 8.8125 8.8125 L 29.0625 8.8125 L 29.0625 29.0625 L 8.8125 29.0625 Z M 8.8125 8.8125 " clip-rule="nonzero"/></clipPath><clipPath id="id2"><path d="M 8.8125 8.8125 L 29.0625 8.8125 L 29.0625 29.0625 L 8.8125 29.0625 Z M 8.8125 8.8125 " clip-rule="nonzero"/></clipPath></defs><g clip-path="url(#id1)"><path fill="rgb(97.648621%, 74.508667%, 38.42926%)" d="M 28.214844 8.835938 L 25.785156 8.835938 L 25.785156 9.640625 L 24.976562 9.640625 L 24.976562 10.449219 L 24.167969 10.449219 L 24.167969 11.257812 L 23.363281 11.257812 L 23.363281 12.066406 L 22.554688 12.066406 L 22.554688 12.875 L 21.746094 12.875 L 21.746094 13.679688 L 20.941406 13.679688 L 20.941406 14.488281 L 20.132812 14.488281 L 20.132812 15.296875 L 19.324219 15.296875 L 19.324219 16.105469 L 18.515625 16.105469 L 18.515625 16.910156 L 17.710938 16.910156 L 17.710938 17.71875 L 16.902344 17.71875 L 16.902344 18.527344 L 16.09375 18.527344 L 16.09375 19.335938 L 15.285156 19.335938 L 15.285156 20.144531 L 13.679688 20.144531 L 13.679688 19.335938 L 12.871094 19.335938 L 12.871094 18.527344 L 11.25 18.527344 L 11.25 19.335938 L 10.441406 19.335938 L 10.441406 20.148438 L 11.25 20.148438 L 11.25 20.957031 L 12.054688 20.957031 L 12.054688 21.765625 L 12.863281 21.765625 L 12.863281 23.371094 L 12.054688 23.371094 L 12.054688 24.179688 L 11.25 24.179688 L 11.25 24.988281 L 10.441406 24.988281 L 10.441406 25.792969 L 8.824219 25.792969 L 8.824219 29.035156 L 12.066406 29.035156 L 12.066406 27.417969 L 12.871094 27.417969 L 12.871094 26.613281 L 13.679688 26.613281 L 13.679688 25.804688 L 14.488281 25.804688 L 14.488281 24.996094 L 16.09375 24.996094 L 16.09375 25.804688 L 16.902344 25.804688 L 16.902344 26.613281 L 17.710938 26.613281 L 17.710938 27.421875 L 18.527344 27.421875 L 18.527344 26.613281 L 19.332031 26.613281 L 19.332031 24.988281 L 18.527344 24.988281 L 18.527344 24.179688 L 17.71875 24.179688 L 17.71875 22.574219 L 18.527344 22.574219 L 18.527344 21.765625 L 19.335938 21.765625 L 19.335938 20.957031 L 20.144531 20.957031 L 20.144531 20.148438 L 20.949219 20.148438 L 20.949219 19.34375 L 21.757812 19.34375 L 21.757812 18.535156 L 22.566406 18.535156 L 22.566406 17.726562 L 23.371094 17.726562 L 23.371094 16.921875 L 24.179688 16.921875 L 24.179688 16.113281 L 24.988281 16.113281 L 24.988281 15.304688 L 25.796875 15.304688 L 25.796875 14.5 L 26.601562 14.5 L 26.601562 13.691406 L 27.410156 13.691406 L 27.410156 12.882812 L 28.21875 12.882812 L 28.21875 12.074219 L 29.023438 12.074219 L 29.023438 8.835938 Z M 17.710938 21.761719 Z M 18.515625 20.953125 Z M 18.523438 17.730469 L 18.523438 18.53125 Z M 19.324219 20.148438 Z M 20.132812 19.339844 Z M 20.945312 16.109375 L 20.945312 15.304688 Z M 21.753906 15.300781 L 21.753906 14.5 Z M 24.984375 11.265625 L 24.984375 12.070312 Z M 25.785156 13.683594 Z M 25.792969 10.460938 L 25.792969 11.261719 Z M 26.59375 12.878906 Z M 27.402344 12.070312 Z M 27.402344 12.070312 " fill-opacity="1" fill-rule="nonzero"/></g><path fill="rgb(99.21875%, 81.959534%, 50.979614%)" d="M 26.632812 11.238281 L 26.632812 10.433594 L 25.777344 10.433594 L 25.777344 11.238281 L 24.96875 11.238281 L 24.96875 12.046875 L 24.160156 12.046875 L 24.160156 12.855469 L 23.355469 12.855469 L 23.355469 13.664062 L 22.546875 13.664062 L 22.546875 14.46875 L 21.738281 14.46875 L 21.738281 15.277344 L 20.929688 15.277344 L 20.929688 16.085938 L 20.125 16.085938 L 20.125 16.890625 L 19.316406 16.890625 L 19.316406 17.699219 L 18.507812 17.699219 L 18.507812 18.507812 L 17.703125 18.507812 L 17.703125 19.316406 L 16.894531 19.316406 L 16.894531 20.121094 L 16.085938 20.121094 L 16.085938 20.929688 L 15.277344 20.929688 L 15.277344 21.785156 L 16.085938 21.785156 L 16.085938 22.59375 L 16.9375 22.59375 L 16.9375 21.785156 L 17.75 21.785156 L 17.75 20.976562 L 18.554688 20.976562 L 18.554688 20.171875 L 19.363281 20.171875 L 19.363281 19.363281 L 20.171875 19.363281 L 20.171875 18.554688 L 20.976562 18.554688 L 20.976562 17.746094 L 21.785156 17.746094 L 21.785156 16.941406 L 22.59375 16.941406 L 22.59375 16.132812 L 23.402344 16.132812 L 23.402344 15.324219 L 24.207031 15.324219 L 24.207031 14.515625 L 25.015625 14.515625 L 25.015625 13.710938 L 25.824219 13.710938 L 25.824219 12.902344 L 26.632812 12.902344 L 26.632812 12.09375 L 27.441406 12.09375 L 27.441406 11.238281 Z M 16.894531 21.738281 L 16.132812 21.738281 L 16.132812 20.976562 L 16.890625 20.976562 Z M 17.703125 20.933594 L 16.941406 20.933594 L 16.941406 20.171875 L 17.703125 20.171875 Z M 18.507812 20.125 L 17.75 20.125 L 17.75 19.363281 L 18.507812 19.363281 Z M 19.316406 19.316406 L 18.554688 19.316406 L 18.554688 18.554688 L 19.316406 18.554688 Z M 20.125 18.507812 L 19.363281 18.507812 L 19.363281 17.746094 L 20.125 17.746094 Z M 20.929688 17.699219 L 20.171875 17.699219 L 20.171875 16.941406 L 20.929688 16.941406 Z M 21.738281 16.894531 L 20.976562 16.894531 L 20.976562 16.132812 L 21.738281 16.132812 Z M 22.546875 16.085938 L 21.785156 16.085938 L 21.785156 15.324219 L 22.546875 15.324219 Z M 23.355469 15.277344 L 22.59375 15.277344 L 22.59375 14.515625 L 23.355469 14.515625 Z M 24.160156 14.46875 L 23.402344 14.46875 L 23.402344 13.710938 L 24.160156 13.710938 Z M 24.96875 13.660156 L 24.207031 13.660156 L 24.207031 12.902344 L 24.96875 12.902344 Z M 25.777344 12.855469 L 25.015625 12.855469 L 25.015625 12.09375 L 25.777344 12.09375 Z M 26.585938 12.046875 L 25.824219 12.046875 L 25.824219 11.285156 L 26.585938 11.285156 Z M 26.585938 12.046875 " fill-opacity="1" fill-rule="nonzero"/><path fill="rgb(100%, 100%, 100%)" d="M 28.222656 11.261719 L 28.222656 12.070312 L 27.414062 12.070312 L 27.414062 11.261719 Z M 27.414062 10.457031 L 27.414062 11.261719 L 28.222656 11.261719 L 28.222656 10.457031 Z M 27.414062 9.648438 L 27.414062 10.457031 L 28.222656 10.457031 L 28.222656 9.648438 Z M 26.609375 12.070312 L 26.609375 12.878906 L 27.414062 12.878906 L 27.414062 12.070312 Z M 26.609375 9.648438 L 26.609375 10.457031 L 27.414062 10.457031 L 27.414062 9.648438 Z M 25.800781 12.878906 L 25.800781 13.6875 L 26.609375 13.6875 L 26.609375 12.878906 Z M 25.800781 9.648438 L 25.800781 10.457031 L 26.609375 10.457031 L 26.609375 9.648438 Z M 24.992188 13.6875 L 24.992188 14.496094 L 25.800781 14.496094 L 25.800781 13.6875 Z M 24.992188 10.457031 L 24.992188 11.261719 L 25.800781 11.261719 L 25.800781 10.457031 Z M 24.183594 14.496094 L 24.183594 15.300781 L 24.992188 15.300781 L 24.992188 14.496094 Z M 24.183594 11.265625 L 24.183594 12.070312 L 24.992188 12.070312 L 24.992188 11.261719 Z M 23.378906 15.300781 L 23.378906 16.109375 L 24.183594 16.109375 L 24.183594 15.300781 Z M 23.378906 12.074219 L 23.378906 12.878906 L 24.183594 12.878906 L 24.183594 12.070312 Z M 22.570312 16.109375 L 22.570312 16.917969 L 23.378906 16.917969 L 23.378906 16.109375 Z M 22.570312 12.878906 L 22.570312 13.6875 L 23.378906 13.6875 L 23.378906 12.878906 Z M 21.761719 16.917969 L 21.761719 17.722656 L 22.570312 17.722656 L 22.570312 16.917969 Z M 21.761719 13.6875 L 21.761719 14.496094 L 22.570312 14.496094 L 22.570312 13.6875 Z M 20.953125 17.722656 L 20.953125 18.53125 L 21.761719 18.53125 L 21.761719 17.722656 Z M 20.953125 14.492188 L 20.953125 15.300781 L 21.761719 15.300781 L 21.761719 14.496094 Z M 20.148438 18.53125 L 20.148438 19.339844 L 20.953125 19.339844 L 20.953125 18.53125 Z M 20.148438 15.300781 L 20.148438 16.109375 L 20.953125 16.109375 L 20.953125 15.300781 Z M 19.339844 19.339844 L 19.339844 20.148438 L 20.148438 20.148438 L 20.148438 19.339844 Z M 19.339844 16.109375 L 19.339844 16.917969 L 20.148438 16.917969 L 20.148438 16.109375 Z M 18.53125 20.148438 L 18.53125 20.953125 L 19.339844 20.953125 L 19.339844 20.148438 Z M 18.53125 16.917969 L 18.53125 17.722656 L 19.339844 17.722656 L 19.339844 16.917969 Z M 17.726562 20.953125 L 17.726562 21.761719 L 18.53125 21.761719 L 18.53125 20.953125 Z M 17.726562 17.722656 L 17.726562 18.53125 L 18.53125 18.53125 L 18.53125 17.722656 Z M 16.917969 21.761719 L 16.917969 22.570312 L 17.726562 22.570312 L 17.726562 21.761719 Z M 16.917969 18.53125 L 16.917969 19.339844 L 17.726562 19.339844 L 17.726562 18.53125 Z M 16.109375 19.339844 L 16.109375 20.148438 L 16.917969 20.148438 L 16.917969 19.339844 Z M 15.300781 20.148438 L 15.300781 20.953125 L 16.109375 20.953125 L 16.109375 20.148438 Z M 15.300781 20.148438 " fill-opacity="1" fill-rule="nonzero"/><path fill="rgb(94.119263%, 30.198669%, 36.859131%)" d="M 14.515625 23.355469 L 14.515625 25.015625 L 13.710938 25.015625 L 13.710938 25.824219 L 12.902344 25.824219 L 12.902344 26.632812 L 11.238281 26.632812 L 11.238281 24.96875 L 12.046875 24.96875 L 12.046875 24.160156 L 12.855469 24.160156 L 12.855469 23.355469 Z M 14.515625 23.355469 " fill-opacity="1" fill-rule="nonzero"/><g clip-path="url(#id2)"><path fill="rgb(23.919678%, 23.139954%, 32.159424%)" d="M 28.222656 8.808594 L 25.769531 8.808594 L 25.769531 9.617188 L 24.964844 9.617188 L 24.964844 10.425781 L 24.15625 10.425781 L 24.15625 11.234375 L 23.347656 11.234375 L 23.347656 12.039062 L 22.539062 12.039062 L 22.539062 12.847656 L 21.730469 12.847656 L 21.730469 13.652344 L 20.925781 13.652344 L 20.925781 14.460938 L 20.117188 14.460938 L 20.117188 15.269531 L 19.308594 15.269531 L 19.308594 16.078125 L 18.5 16.078125 L 18.5 16.886719 L 17.695312 16.886719 L 17.695312 17.691406 L 16.886719 17.691406 L 16.886719 18.5 L 16.078125 18.5 L 16.078125 19.308594 L 15.269531 19.308594 L 15.269531 20.117188 L 13.71875 20.117188 L 13.71875 19.308594 L 12.910156 19.308594 L 12.910156 18.5 L 11.234375 18.5 L 11.234375 19.308594 L 10.425781 19.308594 L 10.425781 20.179688 L 11.234375 20.179688 L 11.234375 20.984375 L 12.039062 20.984375 L 12.039062 21.792969 L 12.847656 21.792969 L 12.847656 23.347656 L 12.039062 23.347656 L 12.039062 24.15625 L 11.234375 24.15625 L 11.234375 24.964844 L 10.425781 24.964844 L 10.425781 25.769531 L 8.808594 25.769531 L 8.808594 29.0625 L 12.101562 29.0625 L 12.101562 27.445312 L 12.910156 27.445312 L 12.910156 26.636719 L 13.71875 26.636719 L 13.71875 25.832031 L 14.523438 25.832031 L 14.523438 25.023438 L 16.078125 25.023438 L 16.078125 25.832031 L 16.886719 25.832031 L 16.886719 26.636719 L 17.695312 26.636719 L 17.695312 27.445312 L 18.5625 27.445312 L 18.5625 26.636719 L 19.371094 26.636719 L 19.371094 24.964844 L 18.5625 24.964844 L 18.5625 24.15625 L 17.753906 24.15625 L 17.753906 22.601562 L 18.5625 22.601562 L 18.5625 21.792969 L 19.371094 21.792969 L 19.371094 20.984375 L 20.179688 20.984375 L 20.179688 20.179688 L 20.984375 20.179688 L 20.984375 19.371094 L 21.792969 19.371094 L 21.792969 18.5625 L 22.601562 18.5625 L 22.601562 17.753906 L 23.40625 17.753906 L 23.40625 16.945312 L 24.214844 16.945312 L 24.214844 16.140625 L 25.023438 16.140625 L 25.023438 15.332031 L 25.832031 15.332031 L 25.832031 14.523438 L 26.640625 14.523438 L 26.640625 13.714844 L 27.445312 13.714844 L 27.445312 12.910156 L 28.253906 12.910156 L 28.253906 12.101562 L 29.0625 12.101562 L 29.0625 8.808594 Z M 11.234375 28.191406 L 9.679688 28.191406 L 9.679688 26.636719 L 10.425781 26.636719 L 10.425781 27.445312 L 11.234375 27.445312 Z M 14.464844 24.183594 L 14.464844 24.964844 L 13.652344 24.964844 L 13.652344 25.769531 L 12.847656 25.769531 L 12.847656 26.578125 L 11.292969 26.578125 L 11.292969 25.023438 L 12.101562 25.023438 L 12.101562 24.214844 L 12.910156 24.214844 L 12.910156 23.40625 L 14.464844 23.40625 Z M 18.5 25.023438 L 18.5 26.578125 L 17.753906 26.578125 L 17.753906 25.769531 L 16.945312 25.769531 L 16.945312 24.964844 L 16.140625 24.964844 L 16.140625 24.15625 L 15.332031 24.15625 L 15.332031 23.347656 L 14.523438 23.347656 L 14.523438 22.539062 L 13.71875 22.539062 L 13.71875 21.730469 L 12.910156 21.730469 L 12.910156 20.925781 L 12.101562 20.925781 L 12.101562 20.117188 L 11.292969 20.117188 L 11.292969 19.371094 L 12.847656 19.371094 L 12.847656 20.175781 L 13.652344 20.175781 L 13.652344 20.984375 L 14.460938 20.984375 L 14.460938 21.792969 L 15.269531 21.792969 L 15.269531 22.601562 L 16.078125 22.601562 L 16.078125 23.40625 L 16.882812 23.40625 L 16.882812 24.214844 L 17.691406 24.214844 L 17.691406 25.023438 Z M 28.191406 11.261719 L 28.191406 12.039062 L 27.386719 12.039062 L 27.386719 12.847656 L 26.578125 12.847656 L 26.578125 13.652344 L 25.769531 13.652344 L 25.769531 14.460938 L 24.964844 14.460938 L 24.964844 15.269531 L 24.15625 15.269531 L 24.15625 16.078125 L 23.347656 16.078125 L 23.347656 16.886719 L 22.539062 16.886719 L 22.539062 17.691406 L 21.730469 17.691406 L 21.730469 18.5 L 20.925781 18.5 L 20.925781 19.308594 L 20.117188 19.308594 L 20.117188 20.117188 L 19.308594 20.117188 L 19.308594 20.925781 L 18.5 20.925781 L 18.5 21.730469 L 17.695312 21.730469 L 17.695312 22.539062 L 16.140625 22.539062 L 16.140625 21.730469 L 15.332031 21.730469 L 15.332031 20.179688 L 16.140625 20.179688 L 16.140625 19.371094 L 16.945312 19.371094 L 16.945312 18.5625 L 17.753906 18.5625 L 17.753906 17.753906 L 18.5625 17.753906 L 18.5625 16.945312 L 19.371094 16.945312 L 19.371094 16.140625 L 20.179688 16.140625 L 20.179688 15.332031 L 20.984375 15.332031 L 20.984375 14.523438 L 21.792969 14.523438 L 21.792969 13.714844 L 22.601562 13.714844 L 22.601562 12.910156 L 23.40625 12.910156 L 23.40625 12.101562 L 24.214844 12.101562 L 24.214844 11.292969 L 25.023438 11.292969 L 25.023438 10.484375 L 25.832031 10.484375 L 25.832031 9.679688 L 28.191406 9.679688 Z M 28.191406 11.261719 " fill-opacity="1" fill-rule="nonzero"/></g></svg>